<?xml version="1.0" encoding="utf-8"?>
<!-- Generator: Adobe Illustrator 15.1.0, SVG Export Plug-In  -->
<!DOCTYPE svg PUBLIC "-//W3C//DTD SVG 1.1//EN" "http://www.w3.org/Graphics/SVG/1.1/DTD/svg11.dtd" [
	<!ENTITY ns_flows "http://ns.adobe.com/Flows/1.0/">
]>
<svg version="1.1"
	 xmlns="http://www.w3.org/2000/svg" xmlns:xlink="http://www.w3.org/1999/xlink" xmlns:a="http://ns.adobe.com/AdobeSVGViewerExtensions/3.0/"
	 x="0px" y="0px" width="123px" height="97px" viewBox="697.129 642.492 123 97"
	 overflow="visible" enable-background="new 697.129 642.492 123 97" xml:space="preserve">
<defs>
</defs>
<linearGradient id="SVGID_1_" gradientUnits="userSpaceOnUse" x1="483.1299" y1="946" x2="483.1299" y2="46.8912">
	<stop  offset="0" style="stop-color:#041724"/>
	<stop  offset="1" style="stop-color:#000000"/>
</linearGradient>
<rect x="123.129" display="none" fill="url(#SVGID_1_)" width="720" height="1001"/>
<path display="none" fill="#31ABFF" fill-opacity="0.29" stroke="#31ABFF" stroke-width="0.8902" stroke-miterlimit="10" stroke-opacity="0.64" d="
	M698.129,643.039v95.783h122V657.74C780.41,651.722,739.326,646.832,698.129,643.039z"/>
<path fill="#31ABFF" fill-opacity="0.29" stroke="#31ABFF" stroke-width="0.8902" stroke-miterlimit="10" stroke-opacity="0.64" d="
	M698.129,643.039v95.783h122V657.74C780.41,651.722,739.326,646.832,698.129,643.039z"/>
<path display="none" fill="#31ABFF" d="M747.514,675.48c-0.104-2.278-0.235-5.027-0.209-7.41h-0.079
	c-0.576,2.146-1.31,4.529-2.095,6.755l-2.566,7.646h-2.487l-2.356-7.541c-0.681-2.251-1.309-4.66-1.78-6.859h-0.053
	c-0.078,2.304-0.183,5.105-0.313,7.515l-0.394,7.096h-3.011l1.178-17.648h4.242l2.305,7.097c0.628,2.068,1.178,4.163,1.623,6.127
	h0.078c0.472-1.912,1.074-4.085,1.755-6.153l2.435-7.07h4.189l1.021,17.648h-3.142L747.514,675.48z"/>
<path display="none" fill="#31ABFF" d="M757.647,677.68l-1.519,5.001h-3.325l5.656-17.648h4.11l5.734,17.648h-3.456l-1.598-5.001
	H757.647z M762.701,675.244l-1.388-4.347c-0.34-1.073-0.628-2.277-0.891-3.299h-0.052c-0.262,1.021-0.523,2.252-0.838,3.299
	l-1.361,4.347H762.701z"/>
<path display="none" fill="#31ABFF" d="M779.695,682.681l-1.911-3.509c-0.76-1.361-1.257-2.304-1.755-3.325h-0.078
	c-0.419,1.021-0.891,1.964-1.598,3.325l-1.754,3.509h-3.692l5.237-8.929l-5.027-8.72h3.691l1.912,3.64
	c0.575,1.1,0.995,1.964,1.466,2.959h0.053c0.471-1.1,0.838-1.885,1.388-2.959l1.885-3.64h3.692l-5.158,8.615l5.367,9.033H779.695z"
	/>
<path display="none" fill="#31ABFF" d="M773.577,723.187c-0.509,0-1.007-0.109-1.483-0.324c-8.057-3.664-16.873-3.663-24.926-0.001
	c-0.478,0.216-0.977,0.325-1.484,0.325c-1.702,0-3.187-1.207-3.78-3.075l-6.004-19.563c-0.773-2.435,0.854-5.537,3.557-6.764
	c13.016-5.92,27.331-5.92,40.349,0c2.702,1.227,4.329,4.329,3.552,6.775l-5.996,19.54
	C776.762,721.979,775.279,723.187,773.577,723.187z M759.629,717.658c4.595,0,9.127,1.002,13.473,2.979
	c0.756,0.343,1.592-0.218,1.926-1.266l5.996-19.54c0.37-1.165-0.507-3.04-2.23-3.822c-12.381-5.631-25.948-5.631-38.327,0
	c-1.725,0.782-2.602,2.657-2.235,3.811l6.004,19.563c0.328,1.032,1.157,1.603,1.923,1.253
	C750.501,718.66,755.035,717.658,759.629,717.658z"/>
<path display="none" fill="#31ABFF" d="M750.686,703.627l3.01,0.176l-1.854-5.907l-6.055,4.576l2.898,0.903
	c-6.05,8.577,7.235,16.625,0.38,26.625c0.573,0,1.298,0,2.209,0C758.053,720,745.121,712.109,750.686,703.627z"/>
<path display="none" fill="#31ABFF" d="M759.294,703.627l3.01,0.176l-1.854-5.907l-6.056,4.576l2.897,0.903
	c-6.049,8.577,7.235,16.625,0.382,26.625c0.574,0,1.297,0,2.209,0C766.661,720,753.73,712.109,759.294,703.627z"/>
<path display="none" fill="#31ABFF" d="M767.904,703.627l3.008,0.176l-1.854-5.907l-6.055,4.576l2.897,0.903
	c-6.05,8.577,7.235,16.625,0.38,26.625c0.573,0,1.298,0,2.209,0C775.269,720,762.336,712.109,767.904,703.627z"/>
<linearGradient id="SVGID_3_" gradientUnits="userSpaceOnUse" x1="758.6294" y1="643.626" x2="758.6294" y2="737.4362">
	<stop  offset="0.5092" style="stop-color:#31ABFF;stop-opacity:0"/>
	<stop  offset="0.9018" style="stop-color:#31ABFF"/>
	<stop  offset="1" style="stop-color:#63E6FF"/>
</linearGradient>
<path fill="url(#SVGID_3_)" stroke="#31ABFF" stroke-miterlimit="10" d="M697.629,643.039V738.5h122v-80.76
	C780.629,651.722,739.629,646.832,697.629,643.039z"/>
<path fill="#FFFFFF" d="M747.514,675.48c-0.104-2.278-0.235-5.027-0.209-7.41h-0.079c-0.576,2.146-1.31,4.529-2.095,6.755
	l-2.566,7.646h-2.487l-2.356-7.541c-0.681-2.251-1.309-4.66-1.78-6.859h-0.053c-0.078,2.304-0.183,5.105-0.313,7.515l-0.394,7.096
	h-3.011l1.178-17.648h4.242l2.305,7.097c0.628,2.068,1.178,4.163,1.623,6.127h0.078c0.472-1.912,1.074-4.085,1.755-6.153l2.435-7.07
	h4.189l1.021,17.648h-3.142L747.514,675.48z"/>
<path fill="#FFFFFF" d="M757.647,677.68l-1.519,5.001h-3.325l5.656-17.648h4.11l5.734,17.648h-3.456l-1.598-5.001H757.647z
	 M762.701,675.244l-1.388-4.347c-0.34-1.073-0.628-2.277-0.891-3.299h-0.052c-0.262,1.021-0.523,2.252-0.838,3.299l-1.361,4.347
	H762.701z"/>
<path fill="#FFFFFF" d="M779.695,682.681l-1.911-3.509c-0.76-1.361-1.257-2.304-1.755-3.325h-0.078
	c-0.419,1.021-0.891,1.964-1.598,3.325l-1.754,3.509h-3.692l5.237-8.929l-5.027-8.72h3.691l1.912,3.64
	c0.575,1.1,0.995,1.964,1.466,2.959h0.053c0.471-1.1,0.838-1.885,1.388-2.959l1.885-3.64h3.692l-5.158,8.615l5.367,9.033H779.695z"
	/>
<path fill="#FFFFFF" d="M773.577,723.187c-0.509,0-1.007-0.109-1.483-0.324c-8.057-3.664-16.873-3.663-24.926-0.001
	c-0.478,0.216-0.977,0.325-1.484,0.325c-1.702,0-3.187-1.207-3.78-3.075l-6.004-19.563c-0.773-2.435,0.854-5.537,3.557-6.764
	c13.016-5.92,27.331-5.92,40.349,0c2.702,1.227,4.329,4.329,3.552,6.775l-5.996,19.54
	C776.762,721.979,775.279,723.187,773.577,723.187z M759.629,717.658c4.595,0,9.127,1.002,13.473,2.979
	c0.756,0.343,1.592-0.218,1.926-1.266l5.996-19.54c0.37-1.165-0.507-3.04-2.23-3.822c-12.381-5.631-25.948-5.631-38.327,0
	c-1.725,0.782-2.602,2.657-2.235,3.811l6.004,19.563c0.328,1.032,1.157,1.603,1.923,1.253
	C750.501,718.66,755.035,717.658,759.629,717.658z"/>
<path fill="#FFFFFF" d="M750.686,703.627l3.01,0.176l-1.854-5.907l-6.055,4.576l2.898,0.903c-6.05,8.577,7.235,16.625,0.38,26.625
	c0.573,0,1.298,0,2.209,0C758.053,720,745.121,712.109,750.686,703.627z"/>
<path fill="#FFFFFF" d="M759.294,703.627l3.01,0.176l-1.854-5.907l-6.056,4.576l2.897,0.903c-6.049,8.577,7.235,16.625,0.382,26.625
	c0.574,0,1.297,0,2.209,0C766.661,720,753.73,712.109,759.294,703.627z"/>
<path fill="#FFFFFF" d="M767.904,703.627l3.008,0.176l-1.854-5.907l-6.055,4.576l2.897,0.903c-6.05,8.577,7.235,16.625,0.38,26.625
	c0.573,0,1.298,0,2.209,0C775.269,720,762.336,712.109,767.904,703.627z"/>
<text transform="matrix(1 0 0 1 730.7563 682.6807)" display="none" fill="#31ABFF" font-family="'MyriadPro-Semibold'" font-size="26.1844">MAX</text>
<path display="none" fill="none" stroke="#31ABFF" stroke-width="2.4433" stroke-miterlimit="10" d="M776.192,719.741
	c-0.579,1.821-2.173,2.65-3.596,2.008c-8.41-3.825-17.523-3.825-25.935,0c-1.42,0.643-3.016-0.187-3.595-2.008
	c-2-6.518-3.999-13.035-6-19.552c-0.577-1.816,0.696-4.296,2.894-5.293c12.758-5.803,26.58-5.803,39.338,0
	c2.197,0.997,3.471,3.477,2.894,5.293C780.191,706.706,778.192,713.224,776.192,719.741z"/>
<path display="none" fill="#31ABFF" d="M750.686,703.627l3.01,0.176l-1.854-5.907l-6.055,4.576l2.898,0.903
	c-6.05,8.577,7.235,16.625,0.38,26.625c0.573,0,1.298,0,2.209,0C758.053,720,745.121,712.109,750.686,703.627z"/>
<path display="none" fill="#31ABFF" d="M759.294,703.627l3.01,0.176l-1.854-5.907l-6.056,4.576l2.897,0.903
	c-6.049,8.577,7.235,16.625,0.382,26.625c0.574,0,1.297,0,2.209,0C766.661,720,753.73,712.109,759.294,703.627z"/>
<path display="none" fill="#31ABFF" d="M767.904,703.627l3.008,0.176l-1.854-5.907l-6.055,4.576l2.897,0.903
	c-6.05,8.577,7.235,16.625,0.38,26.625c0.573,0,1.298,0,2.209,0C775.269,720,762.336,712.109,767.904,703.627z"/>
<path display="none" fill="none" stroke="#00507F" stroke-miterlimit="10" d="M968.129,664.752
	C828.971,627.465,638.581,610,484.129,610s-344.841,17.465-484,54.752"/>
</svg>
