<?xml version="1.0" encoding="utf-8"?>
<!-- Generator: Adobe Illustrator 15.1.0, SVG Export Plug-In  -->
<!DOCTYPE svg PUBLIC "-//W3C//DTD SVG 1.1//EN" "http://www.w3.org/Graphics/SVG/1.1/DTD/svg11.dtd" [
	<!ENTITY ns_flows "http://ns.adobe.com/Flows/1.0/">
]>
<svg version="1.1"
	 xmlns="http://www.w3.org/2000/svg" xmlns:xlink="http://www.w3.org/1999/xlink" xmlns:a="http://ns.adobe.com/AdobeSVGViewerExtensions/3.0/"
	 x="0px" y="0px" width="158px" height="231px" viewBox="152 346 158 231"
	 overflow="visible" enable-background="new 152 346 158 231" xml:space="preserve">
<defs>
</defs>
<linearGradient id="SVGID_3_" gradientUnits="userSpaceOnUse" x1="360.0005" y1="946" x2="360.0005" y2="46.891">
	<stop  offset="0" style="stop-color:#042417"/>
	<stop  offset="1" style="stop-color:#000000"/>
</linearGradient>
<rect fill="url(#SVGID_3_)" width="720" height="1001"/>
<polygon fill="#6DD436" fill-opacity="0.29" points="309.918,435.516 309.918,345.813 152.353,345.813 152.353,577.48 
	309.918,577.48 309.918,486.998 284.178,461.257 "/>
<g display="none">
	<defs>
		<rect id="SVGID_1_" x="152" y="346" width="158" height="232"/>
	</defs>
	<clipPath id="SVGID_4_" display="inline">
		<use xlink:href="#SVGID_1_"  display="none" overflow="visible"/>
	</clipPath>
	<g clip-path="url(#SVGID_4_)">
		<text transform="matrix(1 0 0 1 160.3643 784.9795)" fill="#FFFFFF" font-family="'MyriadPro-Regular'" font-size="93.6032">20°</text>
		<text transform="matrix(1 0 0 1 160.3643 888.7236)" fill="#FFFFFF" font-family="'MyriadPro-Regular'" font-size="93.6032">21°</text>
		<text transform="matrix(1 0 0 1 160.3643 689.0361)" fill="#FFFFFF" font-family="'MyriadPro-Regular'" font-size="93.6032">19°</text>
		<text transform="matrix(1 0 0 1 160.3643 591.3809)" fill="#FFFFFF" font-family="'MyriadPro-Regular'" font-size="93.6032">18°</text>
		<text transform="matrix(1 0 0 1 160.3643 496.998)" fill="#FFFFFF" font-family="'MyriadPro-Regular'" font-size="93.6032">17°</text>
		<text transform="matrix(1 0 0 1 160.3643 403.3945)" fill="#FFFFFF" font-family="'MyriadPro-Regular'" font-size="93.6032">16°</text>
	</g>
</g>
<linearGradient id="SVGID_6_" gradientUnits="userSpaceOnUse" x1="231" y1="349.6602" x2="231" y2="574.0174">
	<stop  offset="0" style="stop-color:#2175AD"/>
	<stop  offset="0.2822" style="stop-color:#64CE2C;stop-opacity:0"/>
	<stop  offset="0.7055" style="stop-color:#64CE2C;stop-opacity:0"/>
	<stop  offset="1" style="stop-color:#2175AD"/>
</linearGradient>
<polygon display="none" fill="url(#SVGID_6_)" stroke="#6DD436" stroke-miterlimit="10" points="309.5,435.516 309.5,345.5 
	152.5,345.5 152.5,577.5 309.5,577.5 309.5,486.998 283.759,461.257 "/>
</svg>
