<?xml version="1.0" encoding="utf-8"?>
<!-- Generator: Adobe Illustrator 15.1.0, SVG Export Plug-In  -->
<!DOCTYPE svg PUBLIC "-//W3C//DTD SVG 1.1//EN" "http://www.w3.org/Graphics/SVG/1.1/DTD/svg11.dtd" [
	<!ENTITY ns_flows "http://ns.adobe.com/Flows/1.0/">
]>
<svg version="1.1"
	 xmlns="http://www.w3.org/2000/svg" xmlns:xlink="http://www.w3.org/1999/xlink" xmlns:a="http://ns.adobe.com/AdobeSVGViewerExtensions/3.0/"
	 x="0px" y="0px" width="484px" height="28px" viewBox="0 -0.01 484 28" overflow="visible" enable-background="new 0 -0.01 484 28"
	 xml:space="preserve">
<defs>
</defs>
<path display="none" fill="#FFFFFF" d="M289.43,14.996V12.95l1.867-1.69c3.158-2.825,4.693-4.448,4.738-6.139
	c0-1.179-0.713-2.112-2.381-2.112c-1.244,0-2.336,0.623-3.092,1.201l-0.957-2.424c1.09-0.823,2.781-1.49,4.738-1.49
	c3.27,0,5.07,1.912,5.07,4.537c0,2.424-1.758,4.359-3.848,6.227l-1.334,1.112v0.044h5.447v2.78H289.43z"/>
<path display="none" fill="#FFFFFF" d="M302.303,0.357c1.246-0.2,2.869-0.312,4.582-0.312c2.848,0,4.693,0.512,6.139,1.602
	c1.555,1.157,2.533,3.002,2.533,5.649c0,2.869-1.045,4.849-2.49,6.071c-1.578,1.312-3.98,1.936-6.916,1.936
	c-1.756,0-3.004-0.111-3.848-0.223V0.357z M305.705,12.589c0.289,0.066,0.756,0.066,1.18,0.066c3.068,0.023,5.07-1.668,5.07-5.248
	c0.021-3.113-1.801-4.76-4.715-4.76c-0.758,0-1.246,0.067-1.535,0.134V12.589z"/>
<rect y="25.229" fill="#31ABFF" width="484" height="3"/>
<rect y="0.229" fill="#31ABFF" width="137" height="15"/>
<g>
	<g>
		<path fill="#31ABFF" d="M147.51,11.696c0.908,0.466,2.303,0.931,3.743,0.931c1.551,0,2.37-0.643,2.37-1.618
			c0-0.93-0.708-1.462-2.502-2.104c-2.481-0.864-4.099-2.237-4.099-4.408c0-2.547,2.127-4.497,5.649-4.497
			c1.684,0,2.924,0.354,3.81,0.753l-0.753,2.725c-0.598-0.288-1.661-0.709-3.123-0.709s-2.171,0.665-2.171,1.44
			c0,0.953,0.842,1.373,2.769,2.104c2.636,0.975,3.876,2.348,3.876,4.452c0,2.503-1.927,4.63-6.025,4.63
			c-1.706,0-3.39-0.443-4.231-0.908L147.51,11.696z"/>
		<path fill="#31ABFF" d="M162.726,0.243v8.595c0,2.57,0.975,3.877,2.703,3.877c1.772,0,2.747-1.241,2.747-3.877V0.243h3.367v8.374
			c0,4.607-2.326,6.801-6.224,6.801c-3.766,0-5.981-2.082-5.981-6.845v-8.33H162.726z"/>
		<path fill="#31ABFF" d="M174.463,0.443c1.085-0.178,2.703-0.311,4.497-0.311c2.215,0,3.766,0.333,4.829,1.174
			c0.886,0.709,1.374,1.75,1.374,3.124c0,1.906-1.352,3.212-2.636,3.678v0.066c1.042,0.421,1.617,1.417,1.993,2.792
			c0.466,1.684,0.931,3.633,1.219,4.208h-3.456c-0.243-0.421-0.598-1.639-1.041-3.478c-0.398-1.86-1.041-2.37-2.414-2.392h-1.02
			v5.87h-3.345V0.443z M177.808,6.867h1.329c1.684,0,2.68-0.841,2.68-2.149c0-1.373-0.93-2.06-2.481-2.082
			c-0.819,0-1.285,0.067-1.528,0.111V6.867z"/>
		<path fill="#31ABFF" d="M187.597,0.443c1.085-0.178,2.703-0.311,4.497-0.311c2.215,0,3.766,0.333,4.829,1.174
			c0.886,0.709,1.373,1.75,1.373,3.124c0,1.906-1.352,3.212-2.636,3.678v0.066c1.042,0.421,1.617,1.417,1.994,2.792
			c0.466,1.684,0.931,3.633,1.219,4.208h-3.457c-0.243-0.421-0.598-1.639-1.041-3.478c-0.398-1.86-1.041-2.37-2.414-2.392h-1.019
			v5.87h-3.345V0.443z M190.942,6.867h1.329c1.684,0,2.68-0.841,2.68-2.149c0-1.373-0.931-2.06-2.481-2.082
			c-0.82,0-1.285,0.067-1.528,0.111V6.867z"/>
		<path fill="#31ABFF" d="M214.31,7.553c0,4.896-2.969,7.865-7.333,7.865c-4.431,0-7.022-3.345-7.022-7.599
			c0-4.475,2.858-7.819,7.266-7.819C211.807,0,214.31,3.434,214.31,7.553z M203.522,7.753c0,2.924,1.374,4.984,3.632,4.984
			c2.282,0,3.589-2.17,3.589-5.072c0-2.681-1.285-4.984-3.611-4.984C204.851,2.681,203.522,4.851,203.522,7.753z"/>
		<path fill="#31ABFF" d="M219.89,0.243v8.595c0,2.57,0.974,3.877,2.702,3.877c1.772,0,2.746-1.241,2.746-3.877V0.243h3.368v8.374
			c0,4.607-2.326,6.801-6.224,6.801c-3.767,0-5.981-2.082-5.981-6.845v-8.33H219.89z"/>
		<path fill="#31ABFF" d="M231.627,15.174V0.243h3.942l3.101,5.472c0.886,1.573,1.773,3.434,2.437,5.117h0.066
			c-0.221-1.972-0.287-3.988-0.287-6.225V0.243h3.101v14.931h-3.543l-3.19-5.759c-0.886-1.595-1.86-3.522-2.592-5.272l-0.067,0.022
			c0.089,1.971,0.134,4.076,0.134,6.513v4.497H231.627z"/>
		<path fill="#31ABFF" d="M246.909,0.443c1.241-0.2,2.858-0.311,4.563-0.311c2.836,0,4.674,0.51,6.114,1.595
			c1.55,1.152,2.525,2.99,2.525,5.626c0,2.858-1.042,4.829-2.481,6.047c-1.572,1.307-3.965,1.928-6.888,1.928
			c-1.75,0-2.991-0.111-3.833-0.222V0.443z M250.298,12.627c0.288,0.066,0.753,0.066,1.174,0.066c3.057,0.022,5.05-1.661,5.05-5.228
			c0.022-3.101-1.794-4.741-4.696-4.741c-0.753,0-1.24,0.067-1.528,0.133V12.627z"/>
		<path fill="#31ABFF" d="M266.909,11.696c0.909,0.466,2.305,0.931,3.744,0.931c1.551,0,2.37-0.643,2.37-1.618
			c0-0.93-0.709-1.462-2.503-2.104c-2.48-0.864-4.099-2.237-4.099-4.408c0-2.547,2.127-4.497,5.649-4.497
			c1.683,0,2.924,0.354,3.809,0.753l-0.752,2.725c-0.598-0.288-1.661-0.709-3.123-0.709s-2.171,0.665-2.171,1.44
			c0,0.953,0.841,1.373,2.769,2.104c2.636,0.975,3.877,2.348,3.877,4.452c0,2.503-1.928,4.63-6.026,4.63
			c-1.705,0-3.389-0.443-4.231-0.908L266.909,11.696z"/>
		<path fill="#31ABFF" d="M292.426,7.553c0,4.896-2.968,7.865-7.333,7.865c-4.43,0-7.021-3.345-7.021-7.599
			c0-4.475,2.857-7.819,7.266-7.819C289.923,0,292.426,3.433,292.426,7.553z M281.638,7.753c0,2.924,1.373,4.984,3.632,4.984
			c2.282,0,3.588-2.17,3.588-5.072c0-2.681-1.284-4.985-3.61-4.985C282.967,2.68,281.638,4.851,281.638,7.753z"/>
		<path fill="#31ABFF" d="M298.005,0.243v8.595c0,2.57,0.974,3.876,2.702,3.876c1.773,0,2.747-1.24,2.747-3.876V0.243h3.367v8.374
			c0,4.607-2.326,6.801-6.224,6.801c-3.766,0-5.981-2.082-5.981-6.845v-8.33H298.005z"/>
		<path fill="#31ABFF" d="M309.743,15.174V0.243h3.943l3.102,5.472c0.886,1.573,1.771,3.434,2.437,5.117h0.066
			c-0.222-1.972-0.287-3.988-0.287-6.225V0.243h3.101v14.931h-3.545l-3.189-5.759c-0.886-1.595-1.861-3.522-2.591-5.272
			l-0.067,0.022c0.088,1.971,0.133,4.076,0.133,6.513v4.497H309.743z"/>
		<path fill="#31ABFF" d="M325.025,0.443c1.241-0.2,2.858-0.311,4.563-0.311c2.836,0,4.674,0.51,6.115,1.595
			c1.55,1.152,2.524,2.99,2.524,5.626c0,2.858-1.042,4.829-2.481,6.047c-1.572,1.307-3.965,1.927-6.888,1.927
			c-1.75,0-2.992-0.111-3.833-0.222V0.443z M328.414,12.627c0.288,0.066,0.753,0.066,1.174,0.066
			c3.058,0.022,5.051-1.661,5.051-5.228c0.021-3.102-1.794-4.741-4.696-4.741c-0.753,0-1.241,0.067-1.529,0.133V12.627z"/>
	</g>
</g>
<rect x="347" y="0.229" fill="#31ABFF" width="137" height="15"/>
</svg>
