<?xml version="1.0" encoding="utf-8"?>
<!-- Generator: Adobe Illustrator 15.1.0, SVG Export Plug-In  -->
<!DOCTYPE svg PUBLIC "-//W3C//DTD SVG 1.1//EN" "http://www.w3.org/Graphics/SVG/1.1/DTD/svg11.dtd" [
	<!ENTITY ns_flows "http://ns.adobe.com/Flows/1.0/">
]>
<svg version="1.1"
	 xmlns="http://www.w3.org/2000/svg" xmlns:xlink="http://www.w3.org/1999/xlink" xmlns:a="http://ns.adobe.com/AdobeSVGViewerExtensions/3.0/"
	 x="0px" y="0px" width="123px" height="97px" viewBox="146.129 642.49 123 97"
	 overflow="visible" enable-background="new 146.129 642.49 123 97" xml:space="preserve">
<defs>
</defs>
<linearGradient id="SVGID_1_" gradientUnits="userSpaceOnUse" x1="483.1299" y1="946" x2="483.1299" y2="46.8912">
	<stop  offset="0" style="stop-color:#042417"/>
	<stop  offset="1" style="stop-color:#000000"/>
</linearGradient>
<rect x="123.129" display="none" fill="url(#SVGID_1_)" width="720" height="1001"/>
<path display="none" fill="#6DD436" fill-opacity="0.29" stroke="#6DD436" stroke-width="0.8902" stroke-miterlimit="10" stroke-opacity="0.64" d="
	M268.629,643.039V738.5h-122v-80.76C186.629,651.722,227.629,646.832,268.629,643.039z"/>
<path fill="#6DD436" fill-opacity="0.29" stroke="#6DD436" stroke-width="0.8472" stroke-miterlimit="10" stroke-opacity="0.64" d="
	M268.629,643.039V738.5h-122v-80.76C186.629,651.722,227.629,646.832,268.629,643.039z"/>
<g>
	<g>
		<g>
			<circle fill="#6DD436" cx="236.991" cy="676.459" r="8.235"/>
			<path fill="#6DD436" d="M239.268,687.889l-1.035-0.57c-2.861-1.577-6.458-0.536-8.035,2.323l-6.644,12.053l-13.158-4.315
				c-3.009-0.986-6.572,0.18-9.142,3.18l0.004,0.003c-0.45,0.409-0.876,0.873-1.262,1.395l-10.893,14.743
				c-1.679,2.271-1.607,5.14,0.098,6.486l0.618,0.487c1.706,1.349,4.512,0.756,6.334-1.402l11.504-13.622l15.161,5.823
				c1.32,0.507,2.731,0.665,4.069,0.524c2.312,0.265,4.662-0.854,5.854-3.019l8.852-16.056
				C243.169,693.063,242.128,689.466,239.268,687.889z"/>
		</g>
		<polygon fill="#6DD436" points="165.347,682 179.608,699.699 193.868,682 187.129,682 187.129,666 172.129,666 172.129,682 		"/>
	</g>
</g>
<linearGradient id="SVGID_3_" gradientUnits="userSpaceOnUse" x1="207.6294" y1="643.626" x2="207.6294" y2="737.4362">
	<stop  offset="0.5092" style="stop-color:#6DD436;stop-opacity:0"/>
	<stop  offset="0.9018" style="stop-color:#6DD436"/>
	<stop  offset="1" style="stop-color:#65d02D"/>
</linearGradient>
<path display="none" fill="url(#SVGID_3_)" stroke="#6DD436" stroke-miterlimit="10" d="M268.629,643.039V738.5h-122v-80.76
	C186.629,651.722,227.629,646.832,268.629,643.039z"/>
<g display="none">
	<g display="inline">
		<g>
			<circle fill="#FFFFFF" cx="236.991" cy="676.459" r="8.235"/>
			<path fill="#FFFFFF" d="M239.268,687.889l-1.035-0.57c-2.861-1.577-6.458-0.536-8.035,2.323l-6.644,12.053l-13.158-4.315
				c-3.009-0.986-6.572,0.18-9.142,3.18l0.004,0.003c-0.45,0.409-0.876,0.873-1.262,1.395l-10.893,14.743
				c-1.679,2.271-1.607,5.14,0.098,6.486l0.618,0.487c1.706,1.349,4.512,0.756,6.334-1.402l11.504-13.622l15.161,5.823
				c1.32,0.507,2.731,0.665,4.069,0.524c2.312,0.265,4.662-0.854,5.854-3.019l8.852-16.056
				C243.169,693.063,242.128,689.466,239.268,687.889z"/>
		</g>
		<polygon fill="#FFFFFF" points="165.347,682 179.608,699.699 193.868,682 187.129,682 187.129,666 172.129,666 172.129,682 		"/>
	</g>
</g>
<g display="none">
	<g display="inline">
		<g display="none">
			<circle fill="#6DD436" cx="236.991" cy="676.459" r="8.235"/>
			<path fill="#6DD436" d="M239.268,687.889l-1.035-0.57c-2.861-1.577-6.458-0.536-8.035,2.323l-6.644,12.053l-13.158-4.315
				c-3.009-0.986-6.572,0.18-9.142,3.18l0.004,0.003c-0.45,0.409-0.876,0.873-1.262,1.395l-10.893,14.743
				c-1.679,2.271-1.607,5.14,0.098,6.486l0.618,0.487c1.706,1.349,4.512,0.756,6.334-1.402l11.504-13.622l15.161,5.823
				c1.32,0.507,2.731,0.665,4.069,0.524c2.312,0.265,4.662-0.854,5.854-3.019l8.852-16.056
				C243.169,693.063,242.128,689.466,239.268,687.889z"/>
		</g>
		<polygon display="none" fill="#6DD436" points="165.347,682 179.608,699.699 193.868,682 187.129,682 187.129,666 172.129,666 
			172.129,682 		"/>
	</g>
</g>
<path display="none" fill="none" stroke="#007F50" stroke-miterlimit="10" d="M968.129,664.752
	C828.971,627.465,638.581,610,484.129,610s-344.841,17.465-484,54.752"/>
</svg>
