<?xml version="1.0" encoding="utf-8"?>
<!-- Generator: Adobe Illustrator 15.1.0, SVG Export Plug-In  -->
<!DOCTYPE svg PUBLIC "-//W3C//DTD SVG 1.1//EN" "http://www.w3.org/Graphics/SVG/1.1/DTD/svg11.dtd" [
	<!ENTITY ns_flows "http://ns.adobe.com/Flows/1.0/">
]>
<svg version="1.1"
	 xmlns="http://www.w3.org/2000/svg" xmlns:xlink="http://www.w3.org/1999/xlink" xmlns:a="http://ns.adobe.com/AdobeSVGViewerExtensions/3.0/"
	 x="0px" y="0px" width="159px" height="129px" viewBox="151 175 159 129"
	 overflow="visible" enable-background="new 151 175 159 129" xml:space="preserve">
<defs>
</defs>
<linearGradient id="SVGID_1_" gradientUnits="userSpaceOnUse" x1="360.0005" y1="946" x2="360.0005" y2="46.891">
	<stop  offset="0" style="stop-color:#042417"/>
	<stop  offset="1" style="stop-color:#000000"/>
</linearGradient>
<rect fill="url(#SVGID_1_)" width="720" height="1001"/>
<rect x="151.573" y="175.708" fill="#6DD436" fill-opacity="0.29" stroke="#6DD436" stroke-miterlimit="10" stroke-opacity="0.64" width="157.956" height="127.534"/>
<path fill="#6DD436" fill-opacity="0.29" stroke="#6DD436" stroke-width="0.8243" stroke-miterlimit="10" stroke-opacity="0.64" d="
	M214.667,255.953l-51.053-3.023c-3.593-0.142-5.474,3.107-4.104,7.17l2.857,10.824c1.528,4.532,5.986,9.041,9.909,9.041h62.589
	c5.253,0,6.745-6.561,6.745-11.152c-0.12-25.828,4.735-52.385,14.563-78.246c0.954-2.52-0.953-5.045-4.298-5.702
	c-1.817-0.356-3.633-0.713-5.449-1.069c-3.336-0.655-7.05,0.767-8.259,3.236c-11.038,22.564-18.271,43.783-21.696,66.559
	C216.47,253.589,215.807,256.021,214.667,255.953z"/>
<path fill="#6DD436" d="M181.5,298c-18.86,0,15.646,0-3.215,0c10.184-23-10.184-45,0-67c18.86,0-15.645,0,3.215,0
	C171.316,253,191.684,275,181.5,298z"/>
<polygon fill="#6DD436" points="173.511,231.288 181.012,223.451 184.048,233.866 "/>
<path fill="#6DD436" d="M194.359,298c-18.86,0,15.646,0-3.215,0c10.184-23-10.184-45,0-67c18.86,0-15.645,0,3.215,0
	C184.175,253,204.543,275,194.359,298z"/>
<polygon fill="#6DD436" points="186.37,231.288 193.871,223.451 196.907,233.866 "/>
<path fill="#6DD436" d="M207.86,298c-18.859,0,15.646,0-3.214,0c10.184-23-10.184-45,0-67c18.86,0-15.645,0,3.214,0
	C197.676,253,218.045,275,207.86,298z"/>
<polygon fill="#6DD436" points="199.872,231.288 207.373,223.451 210.409,233.866 "/>
<g>
	<g>
		<g>
			<path opacity="0.29" fill="#6DD436" d="M302,219v-22h-40.44c-2.568,7-4.733,14-6.516,22H302z"/>
			<path opacity="0.64" fill="none" stroke="#6DD436" stroke-miterlimit="10" d="M302.5,218.5v-22h-40.94
				c-2.568,8-4.733,15-6.516,22H302.5z"/>
		</g>
		<g>
			<path opacity="0.29" fill="#6DD436" d="M302,244v-21h-47.87c-1.63,7-2.88,14-3.73,21H302z"/>
			<path opacity="0.64" fill="none" stroke="#6DD436" stroke-miterlimit="10" d="M302.5,244.5v-22h-48.37c-1.63,7-2.88,15-3.73,22
				H302.5z"/>
		</g>
		<g>
			<path opacity="0.29" fill="#6DD436" d="M248.987,270H302v-22h-52.009c-0.671,7-1.003,13.871-0.971,20.759
				C249.02,269.155,249.002,270,248.987,270z"/>
			<path opacity="0.64" fill="none" stroke="#6DD436" stroke-miterlimit="10" d="M248.987,270.5H302.5v-22h-52.509
				c-0.671,7-1.003,13.871-0.971,20.759C249.02,269.655,249.002,269.5,248.987,270.5z"/>
		</g>
	</g>
</g>
</svg>
