<?xml version="1.0" encoding="utf-8"?>
<!-- Generator: Adobe Illustrator 15.1.0, SVG Export Plug-In  -->
<!DOCTYPE svg PUBLIC "-//W3C//DTD SVG 1.1//EN" "http://www.w3.org/Graphics/SVG/1.1/DTD/svg11.dtd" [
	<!ENTITY ns_flows "http://ns.adobe.com/Flows/1.0/">
]>
<svg version="1.1"
	 xmlns="http://www.w3.org/2000/svg" xmlns:xlink="http://www.w3.org/1999/xlink" xmlns:a="http://ns.adobe.com/AdobeSVGViewerExtensions/3.0/"
	 x="0px" y="0px" width="484px" height="28px" viewBox="0 0 484 28" overflow="visible" enable-background="new 0 0 484 28"
	 xml:space="preserve">
<defs>
</defs>
<path display="none" fill="#FFFFFF" d="M289.43,15.005v-2.046l1.867-1.69c3.158-2.825,4.693-4.448,4.738-6.139
	c0-1.179-0.713-2.112-2.381-2.112c-1.244,0-2.336,0.623-3.092,1.201l-0.957-2.424c1.09-0.823,2.781-1.49,4.738-1.49
	c3.27,0,5.07,1.912,5.07,4.537c0,2.424-1.758,4.359-3.848,6.227l-1.334,1.112v0.044h5.447v2.78H289.43z"/>
<path display="none" fill="#FFFFFF" d="M302.303,0.367c1.246-0.2,2.869-0.312,4.582-0.312c2.848,0,4.693,0.512,6.139,1.602
	c1.555,1.157,2.533,3.002,2.533,5.649c0,2.869-1.045,4.849-2.49,6.071c-1.578,1.312-3.98,1.936-6.916,1.936
	c-1.756,0-3.004-0.111-3.848-0.223V0.367z M305.705,12.599c0.289,0.066,0.756,0.066,1.18,0.066c3.068,0.023,5.07-1.668,5.07-5.248
	c0.021-3.113-1.801-4.76-4.715-4.76c-0.758,0-1.246,0.067-1.535,0.134V12.599z"/>
<path fill="#31ABFF" d="M169.412,11.743c0.911,0.467,2.312,0.935,3.758,0.935c1.556,0,2.38-0.645,2.38-1.624
	c0-0.934-0.712-1.468-2.513-2.113c-2.491-0.867-4.114-2.246-4.114-4.425c0-2.558,2.134-4.515,5.671-4.515
	c1.69,0,2.935,0.356,3.824,0.756l-0.756,2.736c-0.601-0.29-1.668-0.712-3.134-0.712c-1.469,0-2.182,0.667-2.182,1.446
	c0,0.956,0.846,1.378,2.779,2.113c2.648,0.979,3.893,2.357,3.893,4.47c0,2.513-1.936,4.648-6.049,4.648
	c-1.713,0-3.402-0.444-4.248-0.911L169.412,11.743z"/>
<path fill="#31ABFF" d="M184.688,0.245v8.629c0,2.58,0.978,3.892,2.712,3.892c1.779,0,2.759-1.246,2.759-3.892V0.245h3.38v8.407
	c0,4.625-2.336,6.827-6.249,6.827c-3.781,0-6.006-2.09-6.006-6.872V0.245H184.688z"/>
<path fill="#31ABFF" d="M196.473,0.445c1.089-0.178,2.713-0.312,4.514-0.312c2.225,0,3.781,0.334,4.849,1.179
	c0.89,0.712,1.379,1.758,1.379,3.136c0,1.913-1.356,3.225-2.646,3.692v0.066c1.046,0.423,1.623,1.423,2.001,2.803
	c0.469,1.69,0.935,3.647,1.225,4.225h-3.471c-0.243-0.422-0.6-1.646-1.045-3.492c-0.4-1.868-1.045-2.379-2.423-2.401h-1.024v5.893
	h-3.357V0.445z M199.83,6.895h1.334c1.69,0,2.691-0.845,2.691-2.157c0-1.379-0.934-2.068-2.49-2.091
	c-0.823,0-1.29,0.067-1.535,0.111V6.895z"/>
<path fill="#31ABFF" d="M209.659,0.445c1.088-0.178,2.713-0.312,4.514-0.312c2.225,0,3.78,0.334,4.849,1.179
	c0.89,0.712,1.378,1.758,1.378,3.136c0,1.913-1.355,3.225-2.646,3.692v0.066c1.045,0.423,1.623,1.423,2.001,2.803
	c0.467,1.69,0.936,3.647,1.225,4.225h-3.47c-0.245-0.422-0.603-1.646-1.047-3.492c-0.399-1.868-1.044-2.379-2.424-2.401h-1.022
	v5.893h-3.357V0.445z M213.017,6.895h1.335c1.689,0,2.69-0.845,2.69-2.157c0-1.379-0.935-2.068-2.492-2.091
	c-0.821,0-1.289,0.067-1.533,0.111V6.895z"/>
<path fill="#31ABFF" d="M236.479,7.584c0,4.915-2.98,7.895-7.364,7.895c-4.446,0-7.049-3.358-7.049-7.628
	c0-4.493,2.869-7.851,7.295-7.851C233.964,0,236.479,3.447,236.479,7.584z M225.646,7.784c0,2.935,1.38,5.004,3.647,5.004
	c2.29,0,3.603-2.18,3.603-5.093c0-2.691-1.29-5.004-3.625-5.004C226.98,2.691,225.646,4.871,225.646,7.784z"/>
<path fill="#31ABFF" d="M242.08,0.245v8.629c0,2.58,0.977,3.892,2.713,3.892c1.778,0,2.757-1.246,2.757-3.892V0.245h3.38v8.407
	c0,4.625-2.335,6.827-6.249,6.827c-3.781,0-6.004-2.09-6.004-6.872V0.245H242.08z"/>
<path fill="#31ABFF" d="M253.862,15.234V0.245h3.96l3.113,5.494c0.889,1.579,1.779,3.447,2.446,5.137h0.066
	c-0.224-1.979-0.288-4.003-0.288-6.25V0.245h3.112v14.99h-3.558l-3.202-5.782c-0.891-1.601-1.868-3.536-2.603-5.293l-0.067,0.022
	c0.091,1.979,0.135,4.092,0.135,6.538v4.515H253.862z"/>
<path fill="#31ABFF" d="M269.205,0.445c1.248-0.2,2.87-0.312,4.584-0.312c2.846,0,4.691,0.512,6.137,1.602
	c1.556,1.157,2.534,3.002,2.534,5.649c0,2.869-1.046,4.849-2.49,6.071c-1.578,1.312-3.98,1.936-6.917,1.936
	c-1.756,0-3.002-0.111-3.848-0.223V0.445z M272.608,12.677c0.288,0.066,0.756,0.066,1.181,0.066
	c3.066,0.023,5.069-1.668,5.069-5.248c0.022-3.113-1.801-4.76-4.714-4.76c-0.758,0-1.248,0.067-1.536,0.134V12.677z"/>
<rect y="25.239" fill="#31ABFF" width="484" height="3"/>
<rect y="0.239" fill="#31ABFF" width="159" height="15"/>
<rect x="325" y="0.239" fill="#31ABFF" width="159" height="15"/>
</svg>
