<?xml version="1.0" encoding="utf-8"?>
<!-- Generator: Adobe Illustrator 15.1.0, SVG Export Plug-In  -->
<!DOCTYPE svg PUBLIC "-//W3C//DTD SVG 1.1//EN" "http://www.w3.org/Graphics/SVG/1.1/DTD/svg11.dtd" [
	<!ENTITY ns_flows "http://ns.adobe.com/Flows/1.0/">
]>
<svg version="1.1"
	 xmlns="http://www.w3.org/2000/svg" xmlns:xlink="http://www.w3.org/1999/xlink" xmlns:a="http://ns.adobe.com/AdobeSVGViewerExtensions/3.0/"
	 x="0px" y="0px" width="26px" height="15px" viewBox="-0.001 0 26 15" overflow="visible" enable-background="new -0.001 0 26 15"
	 xml:space="preserve">
<defs>
</defs>
<path fill="#FFFFFF" d="M0,14.95v-2.046l1.867-1.69c3.158-2.825,4.693-4.448,4.738-6.139c0-1.179-0.713-2.112-2.381-2.112
	c-1.244,0-2.336,0.623-3.092,1.201L0.176,1.74c1.09-0.823,2.781-1.49,4.738-1.49c3.27,0,5.07,1.912,5.07,4.537
	c0,2.424-1.758,4.359-3.848,6.227l-1.334,1.112v0.044h5.447v2.78H0z"/>
<path fill="#FFFFFF" d="M12.873,0.312C14.119,0.111,15.742,0,17.455,0c2.848,0,4.693,0.512,6.139,1.602
	c1.555,1.157,2.533,3.002,2.533,5.649c0,2.869-1.045,4.849-2.49,6.071c-1.578,1.312-3.98,1.936-6.916,1.936
	c-1.756,0-3.004-0.111-3.848-0.223V0.312z M16.275,12.544c0.289,0.066,0.756,0.066,1.18,0.066c3.068,0.023,5.07-1.668,5.07-5.248
	c0.021-3.113-1.801-4.76-4.715-4.76c-0.758,0-1.246,0.067-1.535,0.134V12.544z"/>
</svg>
