<?xml version="1.0" encoding="utf-8"?>
<!-- Generator: Adobe Illustrator 15.1.0, SVG Export Plug-In  -->
<!DOCTYPE svg PUBLIC "-//W3C//DTD SVG 1.1//EN" "http://www.w3.org/Graphics/SVG/1.1/DTD/svg11.dtd" [
	<!ENTITY ns_flows "http://ns.adobe.com/Flows/1.0/">
]>
<svg version="1.1"
	 xmlns="http://www.w3.org/2000/svg" xmlns:xlink="http://www.w3.org/1999/xlink" xmlns:a="http://ns.adobe.com/AdobeSVGViewerExtensions/3.0/"
	 x="0px" y="0px" width="26px" height="15px" viewBox="0 0 26 15" overflow="visible" enable-background="new 0 0 26 15"
	 xml:space="preserve">
<defs>
</defs>
<path fill="#FFFFFF" d="M0.689,11.764c0.599,0.311,1.974,0.888,3.351,0.888c1.753,0,2.641-0.843,2.641-1.931
	c0-1.42-1.42-2.064-2.908-2.064H2.397V6.238h1.31c1.132-0.023,2.574-0.444,2.574-1.665c0-0.866-0.71-1.51-2.13-1.51
	c-1.177,0-2.42,0.511-3.019,0.865L0.444,1.488C1.31,0.933,3.042,0.4,4.905,0.4c3.086,0,4.794,1.62,4.794,3.595
	c0,1.532-0.866,2.729-2.641,3.352v0.044c1.73,0.311,3.128,1.621,3.128,3.507c0,2.552-2.24,4.417-5.903,4.417
	c-1.864,0-3.439-0.488-4.283-1.021L0.689,11.764z"/>
<path fill="#FFFFFF" d="M12.937,0.312C14.181,0.111,15.801,0,17.511,0c2.84,0,4.683,0.511,6.125,1.599
	c1.553,1.154,2.529,2.996,2.529,5.638c0,2.863-1.043,4.838-2.486,6.059c-1.575,1.309-3.973,1.931-6.902,1.931
	c-1.753,0-2.996-0.111-3.84-0.222V0.312z M16.333,12.519c0.288,0.066,0.754,0.066,1.178,0.066c3.062,0.022,5.06-1.665,5.06-5.238
	c0.022-3.107-1.798-4.75-4.706-4.75c-0.756,0-1.243,0.067-1.531,0.133V12.519z"/>
</svg>
