<?xml version="1.0" encoding="utf-8"?>
<!-- Generator: Adobe Illustrator 16.0.0, SVG Export Plug-In . SVG Version: 6.00 Build 0)  -->
<!DOCTYPE svg PUBLIC "-//W3C//DTD SVG 1.1//EN" "http://www.w3.org/Graphics/SVG/1.1/DTD/svg11.dtd">
<svg version="1.1" id="Layer_1" xmlns="http://www.w3.org/2000/svg" xmlns:xlink="http://www.w3.org/1999/xlink" x="0px" y="0px"
	 width="430px" height="952px" viewBox="0 0 430 952" enable-background="new 0 0 430 952" xml:space="preserve">
<polygon display="none" fill="#31ABFF" fill-opacity="0.29" stroke="#FFFFFF" stroke-width="1.3481" stroke-miterlimit="10" stroke-opacity="0.64" points="
	202.5,651.487 202.5,536.487 0.5,536.487 0.5,833.487 202.5,833.487 202.5,717.487 169.5,684.487 "/>
<g display="none">
	<g display="inline">
		<g>
			<defs>
				<rect id="SVGID_1_" y="536.987" width="202" height="297"/>
			</defs>
			<clipPath id="SVGID_2_">
				<use xlink:href="#SVGID_1_"  overflow="visible"/>
			</clipPath>
			<g clip-path="url(#SVGID_2_)">
				<text transform="matrix(1 0 0 1 10.7715 1086.6826)" fill="#FFFFFF" font-family="'MyriadPro-Regular'" font-size="120">20°</text>
				<text transform="matrix(1 0 0 1 10.7715 1219.6826)" fill="#FFFFFF" font-family="'MyriadPro-Regular'" font-size="120">21°</text>
				<text transform="matrix(1 0 0 1 10.7715 963.6826)" fill="#FFFFFF" font-family="'MyriadPro-Regular'" font-size="120">19°</text>
				<text transform="matrix(1 0 0 1 10.7715 838.4873)" fill="#FFFFFF" font-family="'MyriadPro-Regular'" font-size="120">18°</text>
				<text transform="matrix(1 0 0 1 10.7715 717.4873)" fill="#FFFFFF" font-family="'MyriadPro-Regular'" font-size="120">17°</text>
				<text transform="matrix(1 0 0 1 10.7715 597.4873)" fill="#FFFFFF" font-family="'MyriadPro-Regular'" font-size="120">16°</text>
			</g>
		</g>
	</g>
</g>
<linearGradient id="SVGID_3_" gradientUnits="userSpaceOnUse" x1="-386.5" y1="200.8135" x2="-386.5" y2="488.0289" gradientTransform="matrix(1 0 0 1 488 341)">
	<stop  offset="0" style="stop-color:#2175AD"/>
	<stop  offset="0.2822" style="stop-color:#2175AD;stop-opacity:0"/>
	<stop  offset="0.7055" style="stop-color:#2175AD;stop-opacity:0"/>
	<stop  offset="1" style="stop-color:#2175AD"/>
</linearGradient>
<polygon display="none" fill="url(#SVGID_3_)" stroke="#31ABFF" stroke-miterlimit="10" points="202.5,651.487 202.5,536.487 
	0.5,536.487 0.5,833.487 202.5,833.487 202.5,717.487 169.5,684.487 "/>
<image display="none" overflow="visible" enable-background="new    " width="731" height="1289" id="erqm2P_2_" xlink:href="EB7C6373.jpg"  transform="matrix(0.9986 0 0 0.9992 195.0122 4.882813e-004)">
</image>
<path fill="none" stroke="#EEF6E9" stroke-miterlimit="10" d="M196.532,495.227v-30.766l0.573-0.626
	c5.103-5.575,11.525-8.521,18.577-8.521c7.2,0,14.2,3.129,18.269,8.162l0.483,0.604v31.524l-0.483,0.604
	c-4.066,5.035-11.064,8.164-18.269,8.164c-7.052,0-13.476-2.947-18.577-8.521L196.532,495.227z"/>
<path fill="#66D22D" fill-opacity="0.3" d="M200.905,466.18v27.327c4.149,4.251,9.244,6.493,14.777,6.493
	c5.629,0,11.063-2.271,14.379-5.97v-28.373c-3.315-3.698-8.75-5.97-14.379-5.97C210.149,459.688,205.057,461.929,200.905,466.18z"/>
<linearGradient id="SVGID_4_" gradientUnits="userSpaceOnUse" x1="-272.3018" y1="137.9883" x2="-272.3018" y2="119.4935" gradientTransform="matrix(1 0 0 1 488 341)">
	<stop  offset="0" style="stop-color:#4DA022;stop-opacity:0"/>
	<stop  offset="0.3061" style="stop-color:#4FA323;stop-opacity:0.3061"/>
	<stop  offset="0.57" style="stop-color:#54AE25;stop-opacity:0.57"/>
	<stop  offset="0.8175" style="stop-color:#5DC029;stop-opacity:0.8175"/>
	<stop  offset="1" style="stop-color:#66D22D"/>
</linearGradient>
<rect x="215.198" y="3.676" fill="url(#SVGID_4_)" width="1" height="475.824"/>
<linearGradient id="SVGID_5_" gradientUnits="userSpaceOnUse" x1="-272.5181" y1="139" x2="-272.5181" y2="162.7708" gradientTransform="matrix(1 0 0 1 488 341)">
	<stop  offset="0" style="stop-color:#4DA022;stop-opacity:0"/>
	<stop  offset="0.3061" style="stop-color:#4FA323;stop-opacity:0.3061"/>
	<stop  offset="0.57" style="stop-color:#54AE25;stop-opacity:0.57"/>
	<stop  offset="0.8175" style="stop-color:#5DC029;stop-opacity:0.8175"/>
	<stop  offset="1" style="stop-color:#66D22D"/>
</linearGradient>
<rect x="214.982" y="480" fill="url(#SVGID_5_)" width="1" height="475.844"/>
<linearGradient id="SVGID_6_" gradientUnits="userSpaceOnUse" x1="-272.8145" y1="139" x2="-258.3206" y2="139" gradientTransform="matrix(1 0 0 1 488 341)">
	<stop  offset="0" style="stop-color:#4DA022;stop-opacity:0"/>
	<stop  offset="0.3061" style="stop-color:#4FA323;stop-opacity:0.3061"/>
	<stop  offset="0.57" style="stop-color:#54AE25;stop-opacity:0.57"/>
	<stop  offset="0.8175" style="stop-color:#5DC029;stop-opacity:0.8175"/>
	<stop  offset="1" style="stop-color:#66D22D"/>
</linearGradient>
<rect x="215.982" y="479.5" fill="url(#SVGID_6_)" width="214.018" height="1"/>
<linearGradient id="SVGID_7_" gradientUnits="userSpaceOnUse" x1="-271.4478" y1="139" x2="-289.672" y2="139" gradientTransform="matrix(1 0 0 1 488 341)">
	<stop  offset="0" style="stop-color:#4DA022;stop-opacity:0"/>
	<stop  offset="0.3061" style="stop-color:#4FA323;stop-opacity:0.3061"/>
	<stop  offset="0.57" style="stop-color:#54AE25;stop-opacity:0.57"/>
	<stop  offset="0.8175" style="stop-color:#5DC029;stop-opacity:0.8175"/>
	<stop  offset="1" style="stop-color:#66D22D"/>
</linearGradient>
<rect x="-0.36" y="479.5" fill="url(#SVGID_7_)" width="216.342" height="1"/>
</svg>
