<?xml version="1.0" encoding="utf-8"?>
<!-- Generator: Adobe Illustrator 16.0.0, SVG Export Plug-In . SVG Version: 6.00 Build 0)  -->
<!DOCTYPE svg PUBLIC "-//W3C//DTD SVG 1.1//EN" "http://www.w3.org/Graphics/SVG/1.1/DTD/svg11.dtd">
<svg version="1.1" id="Layer_1" xmlns="http://www.w3.org/2000/svg" xmlns:xlink="http://www.w3.org/1999/xlink" x="0px" y="0px"
	 width="444px" height="57.982px" viewBox="0 0 444 57.982" enable-background="new 0 0 444 57.982" xml:space="preserve">
<linearGradient id="SVGID_1_" gradientUnits="userSpaceOnUse" x1="-4.8716" y1="-897.0178" x2="-4.8716" y2="2.0913" gradientTransform="matrix(1 0 0 -1 488 48.9819)">
	<stop  offset="0" style="stop-color:#041724"/>
	<stop  offset="1" style="stop-color:#000000"/>
</linearGradient>
<rect x="123.129" y="0" display="none" fill="url(#SVGID_1_)" width="720" height="1001"/>
<polygon display="none" fill="#31ABFF" fill-opacity="0.29" stroke="#FFFFFF" stroke-width="1.3481" stroke-miterlimit="10" stroke-opacity="0.64" points="
	533.991,435.514 533.991,345.812 691.556,345.812 691.556,577.48 533.991,577.48 533.991,486.998 559.732,461.257 "/>
<path display="none" fill="#31ABFF" fill-opacity="0.29" stroke="#31ABFF" stroke-width="0.8902" stroke-miterlimit="10" stroke-opacity="0.64" d="
	M268.629,643.039V738.5h-122v-80.76C186.629,651.72,227.629,646.832,268.629,643.039z"/>
<polygon display="none" fill="#31ABFF" fill-opacity="0.29" stroke="#FFFFFF" stroke-width="1.3481" stroke-miterlimit="10" stroke-opacity="0.64" points="
	433.048,435.514 433.048,345.812 275.482,345.812 275.482,577.48 433.048,577.48 433.048,486.998 407.307,461.257 "/>
<g display="none">
	<g display="inline">
		<g>
			<g>
				<defs>
					<rect id="SVGID_2_" x="275.129" y="346" width="158" height="232"/>
				</defs>
				<clipPath id="SVGID_3_">
					<use xlink:href="#SVGID_2_"  overflow="visible"/>
				</clipPath>
				<g clip-path="url(#SVGID_3_)">
					<text transform="matrix(1 0 0 1 283.4941 784.9792)" fill="#FFFFFF" font-family="'MyriadPro-Regular'" font-size="93.6032">20°</text>
					<text transform="matrix(1 0 0 1 283.4941 888.7234)" fill="#FFFFFF" font-family="'MyriadPro-Regular'" font-size="93.6032">21°</text>
					<text transform="matrix(1 0 0 1 283.4941 689.0359)" fill="#FFFFFF" font-family="'MyriadPro-Regular'" font-size="93.6032">19°</text>
					<text transform="matrix(1 0 0 1 283.4941 591.3806)" fill="#FFFFFF" font-family="'MyriadPro-Regular'" font-size="93.6032">18°</text>
					<text transform="matrix(1 0 0 1 283.4941 496.9978)" fill="#FFFFFF" font-family="'MyriadPro-Regular'" font-size="93.6032">17°</text>
					<text transform="matrix(1 0 0 1 283.4941 403.3943)" fill="#FFFFFF" font-family="'MyriadPro-Regular'" font-size="93.6032">16°</text>
				</g>
			</g>
		</g>
	</g>
</g>
<line display="none" fill="none" stroke="#00507F" stroke-miterlimit="10" x1="483.629" y1="98" x2="483.629" y2="610"/>
<linearGradient id="SVGID_4_" gradientUnits="userSpaceOnUse" x1="-133.8711" y1="-300.678" x2="-133.8711" y2="-525.0353" gradientTransform="matrix(1 0 0 -1 488 48.9819)">
	<stop  offset="0" style="stop-color:#2175AD"/>
	<stop  offset="0.2822" style="stop-color:#2175AD;stop-opacity:0"/>
	<stop  offset="0.7055" style="stop-color:#2175AD;stop-opacity:0"/>
	<stop  offset="1" style="stop-color:#2175AD"/>
</linearGradient>
<polygon display="none" fill="url(#SVGID_4_)" stroke="#31ABFF" stroke-miterlimit="10" points="432.629,435.514 432.629,345.5 
	275.629,345.5 275.629,577.5 432.629,577.5 432.629,486.998 406.889,461.257 "/>
<g display="none">
	<g display="inline">
		<g>
			<g>
				<defs>
					<rect id="SVGID_5_" x="533.129" y="346" width="158" height="232"/>
				</defs>
				<clipPath id="SVGID_6_">
					<use xlink:href="#SVGID_5_"  overflow="visible"/>
				</clipPath>
				<g clip-path="url(#SVGID_6_)">
					<text transform="matrix(1 0 0 1 550.7227 489.49)" fill="#FFFFFF" font-family="'MyriadPro-Regular'" font-size="93.6032">20°</text>
					<text transform="matrix(1 0 0 1 550.7227 593.2332)" fill="#FFFFFF" font-family="'MyriadPro-Regular'" font-size="93.6032">21°</text>
					<text transform="matrix(1 0 0 1 550.7227 393.5466)" fill="#FFFFFF" font-family="'MyriadPro-Regular'" font-size="93.6032">19°</text>
					<text transform="matrix(1 0 0 1 550.7227 295.8904)" fill="#FFFFFF" font-family="'MyriadPro-Regular'" font-size="93.6032">18°</text>
					<text transform="matrix(1 0 0 1 550.7227 201.5076)" fill="#FFFFFF" font-family="'MyriadPro-Regular'" font-size="93.6032">17°</text>
				</g>
			</g>
		</g>
	</g>
</g>
<path display="none" fill="#31ABFF" fill-opacity="0.29" stroke="#31ABFF" stroke-width="0.8902" stroke-miterlimit="10" stroke-opacity="0.64" d="
	M698.129,643.039v95.783h122V657.74C780.41,651.72,739.326,646.832,698.129,643.039z"/>
<circle display="none" fill="#31ABFF" stroke="#31ABFF" stroke-width="0.5936" stroke-miterlimit="10" cx="756.627" cy="420.198" r="6.141"/>
<circle display="none" fill="#31ABFF" fill-opacity="0.45" cx="756.627" cy="420.198" r="10.912"/>
<line display="none" fill="none" stroke="#31ABFF" stroke-width="2" stroke-miterlimit="10" x1="756.129" y1="419" x2="756.129" y2="607"/>
<circle display="none" fill="#31ABFF" stroke="#31ABFF" stroke-width="0.5936" stroke-miterlimit="10" cx="494.93" cy="726.5" r="6.141"/>
<circle display="none" fill="#31ABFF" fill-opacity="0.45" cx="494.93" cy="726.5" r="10.912"/>
<circle display="none" fill="#31ABFF" stroke="#31ABFF" stroke-width="0.5936" stroke-miterlimit="10" cx="210.631" cy="524.197" r="6.141"/>
<circle display="none" fill="#31ABFF" fill-opacity="0.45" cx="210.631" cy="524.197" r="10.912"/>
<line display="none" fill="none" stroke="#31ABFF" stroke-width="2" stroke-miterlimit="10" x1="211.129" y1="529" x2="211.129" y2="607"/>
<path display="none" fill="#31ABFF" fill-opacity="0.29" stroke="#31ABFF" stroke-width="0.8472" stroke-miterlimit="10" stroke-opacity="0.64" d="
	M268.629,643.039V738.5h-122v-80.76C186.629,651.72,227.629,646.832,268.629,643.039z"/>
<path display="none" fill="#31ABFF" fill-opacity="0.29" stroke="#31ABFF" stroke-width="0.8902" stroke-miterlimit="10" stroke-opacity="0.64" d="
	M698.129,643.039v95.783h122V657.74C780.41,651.72,739.326,646.832,698.129,643.039z"/>
<g display="none">
	<g display="inline">
		<g display="none">
			<circle display="inline" fill="#31ABFF" cx="236.991" cy="676.459" r="8.235"/>
			<path display="inline" fill="#31ABFF" d="M239.268,687.887l-1.035-0.567c-2.859-1.577-6.457-0.536-8.033,2.32l-6.645,12.056
				l-13.159-4.315c-3.009-0.986-6.572,0.18-9.142,3.18l0.004,0.005c-0.45,0.407-0.876,0.872-1.262,1.396l-10.893,14.743
				c-1.679,2.271-1.607,5.14,0.098,6.483l0.618,0.487c1.706,1.352,4.512,0.756,6.334-1.4l11.504-13.621l15.161,5.82
				c1.32,0.51,2.729,0.665,4.067,0.524c2.313,0.265,4.662-0.854,5.854-3.021l8.852-16.057
				C243.169,693.062,242.128,689.466,239.268,687.887z"/>
		</g>
		<polygon display="none" fill="#31ABFF" points="165.347,682 179.608,699.699 193.868,682 187.129,682 187.129,666 172.129,666 
			172.129,682 		"/>
	</g>
</g>
<path display="none" fill="#31ABFF" d="M747.514,675.48c-0.104-2.278-0.232-5.027-0.209-7.41h-0.079
	c-0.573,2.146-1.31,4.526-2.095,6.755l-2.563,7.646h-2.487l-2.356-7.541c-0.681-2.251-1.309-4.66-1.777-6.856h-0.056
	c-0.076,2.304-0.183,5.104-0.313,7.515l-0.396,7.096h-3.011l1.178-17.646h4.242l2.308,7.097c0.628,2.068,1.178,4.163,1.621,6.127
	h0.077c0.475-1.912,1.074-4.085,1.755-6.15l2.438-7.07h4.188l1.021,17.646h-3.142L747.514,675.48z"/>
<path display="none" fill="#31ABFF" d="M757.646,677.678l-1.521,5.001h-3.325l5.656-17.646h4.11l5.731,17.646h-3.456l-1.598-5.001
	H757.646z M762.701,675.244l-1.389-4.347c-0.342-1.073-0.63-2.277-0.893-3.302h-0.052c-0.263,1.021-0.523,2.252-0.838,3.302
	l-1.361,4.347H762.701z"/>
<path display="none" fill="#31ABFF" d="M779.695,682.679l-1.911-3.509c-0.76-1.361-1.257-2.304-1.755-3.325h-0.078
	c-0.419,1.021-0.894,1.964-1.601,3.325l-1.754,3.509h-3.689l5.234-8.929l-5.024-8.72h3.688l1.912,3.64
	c0.575,1.103,0.995,1.964,1.466,2.959h0.056c0.471-1.1,0.838-1.885,1.388-2.959l1.885-3.64h3.692l-5.158,8.615l5.367,9.03
	L779.695,682.679L779.695,682.679z"/>
<path display="none" fill="#31ABFF" d="M773.577,723.187c-0.509,0-1.007-0.108-1.483-0.323c-8.057-3.664-16.873-3.663-24.926-0.001
	c-0.478,0.216-0.977,0.325-1.484,0.325c-1.699,0-3.187-1.207-3.777-3.075l-6.004-19.563c-0.773-2.435,0.854-5.537,3.557-6.764
	c13.016-5.92,27.331-5.92,40.349,0c2.702,1.227,4.329,4.329,3.555,6.775l-5.996,19.538
	C776.762,721.978,775.279,723.187,773.577,723.187z M759.629,717.658c4.595,0,9.127,1.002,13.473,2.979
	c0.759,0.346,1.595-0.218,1.929-1.266l5.996-19.54c0.368-1.165-0.509-3.04-2.23-3.822c-12.381-5.631-25.948-5.631-38.327,0
	c-1.725,0.782-2.602,2.657-2.232,3.813l6.004,19.563c0.328,1.032,1.156,1.604,1.923,1.253
	C750.501,718.66,755.035,717.658,759.629,717.658z"/>
<path display="none" fill="#31ABFF" d="M750.686,703.627l3.013,0.176l-1.854-5.904l-6.055,4.573l2.896,0.903
	c-6.05,8.577,7.235,16.625,0.383,26.625c0.57,0,1.298,0,2.209,0C758.053,720,745.121,712.109,750.686,703.627z"/>
<path display="none" fill="#31ABFF" d="M759.294,703.627l3.01,0.176l-1.854-5.904l-6.059,4.573l2.897,0.903
	c-6.049,8.577,7.235,16.625,0.382,26.625c0.574,0,1.297,0,2.209,0C766.661,720,753.73,712.109,759.294,703.627z"/>
<path display="none" fill="#31ABFF" d="M767.904,703.627l3.008,0.176l-1.854-5.904l-6.055,4.573l2.897,0.903
	c-6.053,8.577,7.232,16.625,0.38,26.625c0.57,0,1.298,0,2.209,0C775.269,720,762.336,712.109,767.904,703.627z"/>
<linearGradient id="SVGID_7_" gradientUnits="userSpaceOnUse" x1="-280.3711" y1="-594.6433" x2="-280.3711" y2="-688.4536" gradientTransform="matrix(1 0 0 -1 488 48.9819)">
	<stop  offset="0.5092" style="stop-color:#31ABFF;stop-opacity:0"/>
	<stop  offset="0.9018" style="stop-color:#31ABFF"/>
	<stop  offset="1" style="stop-color:#63E6FF"/>
</linearGradient>
<path display="none" fill="url(#SVGID_7_)" stroke="#31ABFF" stroke-miterlimit="10" d="M268.629,643.039V738.5h-122v-80.76
	C186.629,651.72,227.629,646.832,268.629,643.039z"/>
<linearGradient id="SVGID_8_" gradientUnits="userSpaceOnUse" x1="270.6289" y1="-594.6433" x2="270.6289" y2="-688.4536" gradientTransform="matrix(1 0 0 -1 488 48.9819)">
	<stop  offset="0.5092" style="stop-color:#31ABFF;stop-opacity:0"/>
	<stop  offset="0.9018" style="stop-color:#31ABFF"/>
	<stop  offset="1" style="stop-color:#63E6FF"/>
</linearGradient>
<path display="none" fill="url(#SVGID_8_)" stroke="#31ABFF" stroke-miterlimit="10" d="M697.629,643.039V738.5h122v-80.76
	C780.629,651.72,739.629,646.832,697.629,643.039z"/>
<g display="none">
	<g display="inline">
		<g>
			<circle fill="#FFFFFF" cx="236.991" cy="676.459" r="8.235"/>
			<path fill="#FFFFFF" d="M239.268,687.887l-1.035-0.567c-2.859-1.577-6.457-0.536-8.033,2.32l-6.645,12.056l-13.159-4.315
				c-3.009-0.986-6.572,0.18-9.142,3.18l0.004,0.005c-0.45,0.407-0.876,0.872-1.262,1.396l-10.893,14.743
				c-1.679,2.271-1.607,5.14,0.098,6.483l0.618,0.487c1.706,1.352,4.512,0.756,6.334-1.4l11.504-13.621l15.161,5.82
				c1.32,0.51,2.729,0.665,4.067,0.524c2.313,0.265,4.662-0.854,5.854-3.021l8.852-16.057
				C243.169,693.062,242.128,689.466,239.268,687.887z"/>
		</g>
		<polygon fill="#FFFFFF" points="165.347,682 179.608,699.699 193.868,682 187.129,682 187.129,666 172.129,666 172.129,682 		"/>
	</g>
</g>
<path display="none" fill="#FFFFFF" d="M747.514,675.48c-0.104-2.278-0.232-5.027-0.209-7.41h-0.079
	c-0.573,2.146-1.31,4.526-2.095,6.755l-2.563,7.646h-2.487l-2.356-7.541c-0.681-2.251-1.309-4.66-1.777-6.856h-0.056
	c-0.076,2.304-0.183,5.104-0.313,7.515l-0.396,7.096h-3.011l1.178-17.646h4.242l2.308,7.097c0.628,2.068,1.178,4.163,1.621,6.127
	h0.077c0.475-1.912,1.074-4.085,1.755-6.15l2.438-7.07h4.188l1.021,17.646h-3.142L747.514,675.48z"/>
<path display="none" fill="#FFFFFF" d="M757.646,677.678l-1.521,5.001h-3.325l5.656-17.646h4.11l5.731,17.646h-3.456l-1.598-5.001
	H757.646z M762.701,675.244l-1.389-4.347c-0.342-1.073-0.63-2.277-0.893-3.302h-0.052c-0.263,1.021-0.523,2.252-0.838,3.302
	l-1.361,4.347H762.701z"/>
<path display="none" fill="#FFFFFF" d="M779.695,682.679l-1.911-3.509c-0.76-1.361-1.257-2.304-1.755-3.325h-0.078
	c-0.419,1.021-0.894,1.964-1.601,3.325l-1.754,3.509h-3.689l5.234-8.929l-5.024-8.72h3.688l1.912,3.64
	c0.575,1.103,0.995,1.964,1.466,2.959h0.056c0.471-1.1,0.838-1.885,1.388-2.959l1.885-3.64h3.692l-5.158,8.615l5.367,9.03
	L779.695,682.679L779.695,682.679z"/>
<path display="none" fill="#FFFFFF" d="M773.577,723.187c-0.509,0-1.007-0.108-1.483-0.323c-8.057-3.664-16.873-3.663-24.926-0.001
	c-0.478,0.216-0.977,0.325-1.484,0.325c-1.699,0-3.187-1.207-3.777-3.075l-6.004-19.563c-0.773-2.435,0.854-5.537,3.557-6.764
	c13.016-5.92,27.331-5.92,40.349,0c2.702,1.227,4.329,4.329,3.555,6.775l-5.996,19.538
	C776.762,721.978,775.279,723.187,773.577,723.187z M759.629,717.658c4.595,0,9.127,1.002,13.473,2.979
	c0.759,0.346,1.595-0.218,1.929-1.266l5.996-19.54c0.368-1.165-0.509-3.04-2.23-3.822c-12.381-5.631-25.948-5.631-38.327,0
	c-1.725,0.782-2.602,2.657-2.232,3.813l6.004,19.563c0.328,1.032,1.156,1.604,1.923,1.253
	C750.501,718.66,755.035,717.658,759.629,717.658z"/>
<path display="none" fill="#FFFFFF" d="M750.686,703.627l3.013,0.176l-1.854-5.904l-6.055,4.573l2.896,0.903
	c-6.05,8.577,7.235,16.625,0.383,26.625c0.57,0,1.298,0,2.209,0C758.053,720,745.121,712.109,750.686,703.627z"/>
<path display="none" fill="#FFFFFF" d="M759.294,703.627l3.01,0.176l-1.854-5.904l-6.059,4.573l2.897,0.903
	c-6.049,8.577,7.235,16.625,0.382,26.625c0.574,0,1.297,0,2.209,0C766.661,720,753.73,712.109,759.294,703.627z"/>
<path display="none" fill="#FFFFFF" d="M767.904,703.627l3.008,0.176l-1.854-5.904l-6.055,4.573l2.897,0.903
	c-6.053,8.577,7.232,16.625,0.38,26.625c0.57,0,1.298,0,2.209,0C775.269,720,762.336,712.109,767.904,703.627z"/>
<g display="none">
	<g display="inline">
		<g display="none">
			<circle display="inline" fill="#31ABFF" cx="236.991" cy="676.459" r="8.235"/>
			<path display="inline" fill="#31ABFF" d="M239.268,687.887l-1.035-0.567c-2.859-1.577-6.457-0.536-8.033,2.32l-6.645,12.056
				l-13.159-4.315c-3.009-0.986-6.572,0.18-9.142,3.18l0.004,0.005c-0.45,0.407-0.876,0.872-1.262,1.396l-10.893,14.743
				c-1.679,2.271-1.607,5.14,0.098,6.483l0.618,0.487c1.706,1.352,4.512,0.756,6.334-1.4l11.504-13.621l15.161,5.82
				c1.32,0.51,2.729,0.665,4.067,0.524c2.313,0.265,4.662-0.854,5.854-3.021l8.852-16.057
				C243.169,693.062,242.128,689.466,239.268,687.887z"/>
		</g>
		<polygon display="none" fill="#31ABFF" points="165.347,682 179.608,699.699 193.868,682 187.129,682 187.129,666 172.129,666 
			172.129,682 		"/>
	</g>
</g>
<text transform="matrix(1 0 0 1 730.7559 682.6804)" display="none" fill="#31ABFF" enable-background="new    " font-family="'MyriadPro-Semibold'" font-size="26.1844">MAX</text>
<path display="none" fill="none" stroke="#31ABFF" stroke-width="2.4433" stroke-miterlimit="10" d="M776.192,719.741
	c-0.579,1.821-2.173,2.647-3.599,2.008c-8.409-3.825-17.521-3.825-25.935,0c-1.42,0.643-3.019-0.187-3.595-2.008
	c-2-6.521-3.999-13.035-6-19.552c-0.577-1.816,0.693-4.299,2.894-5.293c12.758-5.806,26.58-5.806,39.338,0
	c2.197,0.994,3.474,3.477,2.896,5.293C780.191,706.706,778.192,713.222,776.192,719.741z"/>
<path display="none" fill="#31ABFF" d="M750.686,703.627l3.013,0.176l-1.854-5.904l-6.055,4.573l2.896,0.903
	c-6.05,8.577,7.235,16.625,0.383,26.625c0.57,0,1.298,0,2.209,0C758.053,720,745.121,712.109,750.686,703.627z"/>
<path display="none" fill="#31ABFF" d="M759.294,703.627l3.01,0.176l-1.854-5.904l-6.059,4.573l2.897,0.903
	c-6.049,8.577,7.235,16.625,0.382,26.625c0.574,0,1.297,0,2.209,0C766.661,720,753.73,712.109,759.294,703.627z"/>
<path display="none" fill="#31ABFF" d="M767.904,703.627l3.008,0.176l-1.854-5.904l-6.055,4.573l2.897,0.903
	c-6.053,8.577,7.232,16.625,0.38,26.625c0.57,0,1.298,0,2.209,0C775.269,720,762.336,712.109,767.904,703.627z"/>
<linearGradient id="SVGID_9_" gradientUnits="userSpaceOnUse" x1="-720.3711" y1="-300.678" x2="-720.3711" y2="-525.0338" gradientTransform="matrix(-1 0 0 -1 -107.7422 48.9819)">
	<stop  offset="0" style="stop-color:#2175AD"/>
	<stop  offset="0.2822" style="stop-color:#2175AD;stop-opacity:0"/>
	<stop  offset="0.7055" style="stop-color:#2175AD;stop-opacity:0"/>
	<stop  offset="1" style="stop-color:#2175AD"/>
</linearGradient>
<polygon display="none" fill="url(#SVGID_9_)" stroke="#31ABFF" stroke-miterlimit="10" points="533.629,435.514 533.629,345.5 
	691.629,345.5 691.629,577.5 533.629,577.5 533.629,486.998 559.371,461.257 "/>
<rect x="210.129" y="127" display="none" fill="#31ABFF" width="2" height="482"/>
<polyline display="none" fill="#31ABFF" stroke="#31ABFF" stroke-width="0.2319" stroke-miterlimit="10" stroke-opacity="0.64" points="
	187.129,596.969 187.129,606.937 144.129,606.937 144.129,581.016 187.129,581.016 187.129,596.969 "/>
<polyline display="none" fill="#31ABFF" stroke="#31ABFF" stroke-width="0.2319" stroke-miterlimit="10" stroke-opacity="0.64" points="
	187.129,561.967 187.129,571.937 144.129,571.937 144.129,546.014 187.129,546.014 187.129,561.967 "/>
<polyline display="none" fill="#31ABFF" stroke="#31ABFF" stroke-width="0.2319" stroke-miterlimit="10" stroke-opacity="0.64" points="
	187.129,526.966 187.129,536.933 144.129,536.933 144.129,511.013 187.129,511.013 187.129,526.966 "/>
<polyline display="none" fill="#31ABFF" stroke="#31ABFF" stroke-width="0.2319" stroke-miterlimit="10" stroke-opacity="0.64" points="
	187.129,491.964 187.129,501.932 144.129,501.932 144.129,476.012 187.129,476.012 187.129,491.964 "/>
<polyline display="none" fill="#31ABFF" stroke="#31ABFF" stroke-width="0.2319" stroke-miterlimit="10" stroke-opacity="0.64" points="
	187.129,456.963 187.129,466.93 144.129,466.93 144.129,441.01 187.129,441.01 187.129,456.963 "/>
<polyline display="none" fill="#31ABFF" stroke="#31ABFF" stroke-width="0.2319" stroke-miterlimit="10" stroke-opacity="0.64" points="
	187.129,421.961 187.129,431.929 144.129,431.929 144.129,406.01 187.129,406.01 187.129,421.961 "/>
<polyline display="none" fill="#31ABFF" stroke="#31ABFF" stroke-width="0.2319" stroke-miterlimit="10" stroke-opacity="0.64" points="
	187.129,386.96 187.129,396.927 144.129,396.927 144.129,371.009 187.129,371.009 187.129,386.96 "/>
<polyline display="none" fill="#31ABFF" stroke="#31ABFF" stroke-width="0.2319" stroke-miterlimit="10" stroke-opacity="0.64" points="
	187.129,351.959 187.129,361.927 144.129,361.927 144.129,336.008 187.129,336.008 187.129,351.959 "/>
<polyline display="none" fill="#31ABFF" stroke="#31ABFF" stroke-width="0.2319" stroke-miterlimit="10" stroke-opacity="0.64" points="
	187.129,316.958 187.129,326.927 144.129,326.927 144.129,301.007 187.129,301.007 187.129,316.958 "/>
<polyline display="none" fill="#31ABFF" stroke="#31ABFF" stroke-width="0.2319" stroke-miterlimit="10" stroke-opacity="0.64" points="
	187.129,281.956 187.129,291.925 144.129,291.925 144.129,266.005 187.129,266.005 187.129,281.956 "/>
<polyline display="none" fill="#31ABFF" stroke="#31ABFF" stroke-width="0.2319" stroke-miterlimit="10" stroke-opacity="0.64" points="
	187.129,246.955 187.129,256.924 144.129,256.924 144.129,231.004 187.129,231.004 187.129,246.955 "/>
<polyline display="none" fill="#31ABFF" stroke="#31ABFF" stroke-width="0.2319" stroke-miterlimit="10" stroke-opacity="0.64" points="
	187.129,211.954 187.129,221.923 144.129,221.923 144.129,196.003 187.129,196.003 187.129,211.954 "/>
<polyline display="none" fill="#31ABFF" stroke="#31ABFF" stroke-width="0.2319" stroke-miterlimit="10" stroke-opacity="0.64" points="
	187.129,176.952 187.129,186.921 144.129,186.921 144.129,161.001 187.129,161.001 187.129,176.952 "/>
<polyline display="none" fill="#31ABFF" stroke="#31ABFF" stroke-width="0.2319" stroke-miterlimit="10" stroke-opacity="0.64" points="
	187.129,141.951 187.129,151.92 144.129,151.92 144.129,126 187.129,126 187.129,141.951 "/>
<rect x="755.129" y="127" display="none" fill="#31ABFF" width="2" height="482"/>
<polyline display="none" fill="#31ABFF" stroke="#31ABFF" stroke-width="0.2319" stroke-miterlimit="10" stroke-opacity="0.64" points="
	780.129,596.969 780.129,606.937 823.129,606.937 823.129,581.016 780.129,581.016 780.129,596.969 "/>
<polyline display="none" fill="#31ABFF" stroke="#31ABFF" stroke-width="0.2319" stroke-miterlimit="10" stroke-opacity="0.64" points="
	780.129,561.967 780.129,571.937 823.129,571.937 823.129,546.014 780.129,546.014 780.129,561.967 "/>
<polyline display="none" fill="#31ABFF" stroke="#31ABFF" stroke-width="0.2319" stroke-miterlimit="10" stroke-opacity="0.64" points="
	780.129,526.966 780.129,536.933 823.129,536.933 823.129,511.013 780.129,511.013 780.129,526.966 "/>
<polyline display="none" fill="#31ABFF" stroke="#31ABFF" stroke-width="0.2319" stroke-miterlimit="10" stroke-opacity="0.64" points="
	780.129,491.964 780.129,501.932 823.129,501.932 823.129,476.012 780.129,476.012 780.129,491.964 "/>
<polyline display="none" fill="#31ABFF" stroke="#31ABFF" stroke-width="0.2319" stroke-miterlimit="10" stroke-opacity="0.64" points="
	780.129,456.963 780.129,466.93 823.129,466.93 823.129,441.01 780.129,441.01 780.129,456.963 "/>
<polyline display="none" fill="#31ABFF" stroke="#31ABFF" stroke-width="0.2319" stroke-miterlimit="10" stroke-opacity="0.64" points="
	780.129,421.961 780.129,431.929 823.129,431.929 823.129,406.01 780.129,406.01 780.129,421.961 "/>
<polyline display="none" fill="#31ABFF" stroke="#31ABFF" stroke-width="0.2319" stroke-miterlimit="10" stroke-opacity="0.64" points="
	780.129,386.96 780.129,396.927 823.129,396.927 823.129,371.009 780.129,371.009 780.129,386.96 "/>
<polyline display="none" fill="#31ABFF" stroke="#31ABFF" stroke-width="0.2319" stroke-miterlimit="10" stroke-opacity="0.64" points="
	780.129,351.959 780.129,361.927 823.129,361.927 823.129,336.008 780.129,336.008 780.129,351.959 "/>
<polyline display="none" fill="#31ABFF" stroke="#31ABFF" stroke-width="0.2319" stroke-miterlimit="10" stroke-opacity="0.64" points="
	780.129,316.958 780.129,326.927 823.129,326.927 823.129,301.007 780.129,301.007 780.129,316.958 "/>
<polyline display="none" fill="#31ABFF" stroke="#31ABFF" stroke-width="0.2319" stroke-miterlimit="10" stroke-opacity="0.64" points="
	780.129,281.956 780.129,291.925 823.129,291.925 823.129,266.005 780.129,266.005 780.129,281.956 "/>
<polyline display="none" fill="#31ABFF" stroke="#31ABFF" stroke-width="0.2319" stroke-miterlimit="10" stroke-opacity="0.64" points="
	780.129,246.955 780.129,256.924 823.129,256.924 823.129,231.004 780.129,231.004 780.129,246.955 "/>
<polyline display="none" fill="#31ABFF" stroke="#31ABFF" stroke-width="0.2319" stroke-miterlimit="10" stroke-opacity="0.64" points="
	780.129,211.954 780.129,221.923 823.129,221.923 823.129,196.003 780.129,196.003 780.129,211.954 "/>
<polyline display="none" fill="#31ABFF" stroke="#31ABFF" stroke-width="0.2319" stroke-miterlimit="10" stroke-opacity="0.64" points="
	780.129,176.952 780.129,186.921 823.129,186.921 823.129,161.001 780.129,161.001 780.129,176.952 "/>
<polyline display="none" fill="#31ABFF" stroke="#31ABFF" stroke-width="0.2319" stroke-miterlimit="10" stroke-opacity="0.64" points="
	780.129,141.951 780.129,151.92 823.129,151.92 823.129,126 780.129,126 780.129,141.951 "/>
<rect x="274.702" y="175.708" display="none" fill="#31ABFF" fill-opacity="0.29" stroke="#31ABFF" stroke-miterlimit="10" stroke-opacity="0.64" width="157.956" height="127.534"/>
<path display="none" fill="#31ABFF" fill-opacity="0.29" stroke="#31ABFF" stroke-width="0.8243" stroke-miterlimit="10" stroke-opacity="0.64" d="
	M337.796,255.953l-51.053-3.021c-3.593-0.144-5.474,3.105-4.104,7.17l2.857,10.822c1.527,4.532,5.986,9.041,9.908,9.041h62.59
	c5.253,0,6.744-6.561,6.744-11.15c-0.119-25.828,4.733-52.385,14.563-78.246c0.954-2.521-0.951-5.045-4.298-5.702
	c-1.815-0.356-3.633-0.713-5.449-1.069c-3.336-0.653-7.05,0.769-8.259,3.236c-11.038,22.564-18.271,43.783-21.695,66.559
	C339.6,253.589,338.936,256.021,337.796,255.953z"/>
<path display="none" fill="#31ABFF" d="M304.629,298c-18.859,0,15.646,0-3.215,0c10.184-23-10.184-45,0-67
	c18.859,0-15.645,0,3.215,0C294.445,253,314.813,275,304.629,298z"/>
<polygon display="none" fill="#31ABFF" points="296.641,231.288 304.143,223.451 307.177,233.866 "/>
<path display="none" fill="#31ABFF" d="M317.488,298c-18.86,0,15.646,0-3.215,0c10.184-23-10.187-45,0-67c18.857,0-15.646,0,3.215,0
	C307.304,253,327.672,275,317.488,298z"/>
<polygon display="none" fill="#31ABFF" points="309.5,231.288 317,223.451 320.037,233.866 "/>
<path display="none" fill="#31ABFF" d="M330.99,298c-18.859,0,15.646,0-3.215,0c10.185-23-10.186-45,0-67c18.858,0-15.646,0,3.215,0
	C320.807,253,341.174,275,330.99,298z"/>
<polygon display="none" fill="#31ABFF" points="323.001,231.288 330.502,223.451 333.538,233.866 "/>
<g display="none">
	<g display="inline">
		<g display="none">
			<path display="inline" fill="#31ABFF" d="M425.129,219v-22h-40.439c-2.566,7-4.731,14-6.517,22H425.129z"/>
			<path display="inline" opacity="0.64" fill="none" stroke="#31ABFF" stroke-miterlimit="10" enable-background="new    " d="
				M425.629,218.5v-22h-40.939c-2.566,8-4.731,15-6.517,22H425.629z"/>
		</g>
		<g display="none">
			<path display="inline" fill="#31ABFF" d="M425.129,244v-21h-47.87c-1.63,7-2.88,14-3.729,21H425.129z"/>
			<path display="inline" opacity="0.64" fill="none" stroke="#31ABFF" stroke-miterlimit="10" enable-background="new    " d="
				M425.629,244.5v-22h-48.37c-1.63,7-2.88,15-3.729,22H425.629z"/>
		</g>
		<g display="none">
			<path display="inline" fill="#31ABFF" d="M372.116,270h53.013v-22H373.12c-0.671,7-1.003,13.871-0.972,20.759
				C372.148,269.155,372.131,270,372.116,270z"/>
			<path display="inline" opacity="0.64" fill="none" stroke="#31ABFF" stroke-miterlimit="10" enable-background="new    " d="
				M372.116,270.5h53.513v-22H373.12c-0.671,7-1.003,13.871-0.972,20.759C372.148,269.655,372.131,269.5,372.116,270.5z"/>
		</g>
	</g>
</g>
<rect x="533.601" y="175.708" display="none" fill="#31ABFF" fill-opacity="0.29" stroke="#31ABFF" stroke-miterlimit="10" stroke-opacity="0.64" width="157.955" height="127.534"/>
<path display="none" fill="#31ABFF" fill-opacity="0.29" stroke="#31ABFF" stroke-width="0.8243" stroke-miterlimit="10" stroke-opacity="0.64" d="
	M628.462,255.953l51.054-3.021c3.596-0.144,5.478,3.105,4.104,7.17l-2.858,10.822c-1.524,4.532-5.982,9.041-9.908,9.041h-62.589
	c-5.254,0-6.745-6.561-6.745-11.15c0.12-25.828-4.732-52.385-14.563-78.246c-0.953-2.521,0.953-5.045,4.299-5.702
	c1.817-0.356,3.634-0.713,5.448-1.069c3.337-0.653,7.051,0.769,8.26,3.236c11.037,22.564,18.271,43.783,21.695,66.559
	C626.659,253.589,627.323,256.021,628.462,255.953z"/>
<path display="none" fill="#31ABFF" d="M661.629,298c18.86,0-15.645,0,3.215,0c-10.184-23,10.187-45,0-67
	c-18.856,0,15.646,0-3.215,0C671.814,253,651.446,275,661.629,298z"/>
<polygon display="none" fill="#31ABFF" points="669.619,231.288 662.118,223.451 659.082,233.866 "/>
<path display="none" fill="#31ABFF" d="M648.771,298c18.856,0-15.646,0,3.214,0c-10.187-23,10.186-45,0-67
	c-18.86,0,15.646,0-3.214,0C658.955,253,638.586,275,648.771,298z"/>
<polygon display="none" fill="#31ABFF" points="656.759,231.288 649.258,223.451 646.222,233.866 "/>
<path display="none" fill="#31ABFF" d="M635.269,298c18.86,0-15.646,0,3.217,0c-10.187-23,10.185-45,0-67
	c-18.859,0,15.646,0-3.217,0C645.453,253,625.084,275,635.269,298z"/>
<polygon display="none" fill="#31ABFF" points="643.257,231.288 635.756,223.451 632.721,233.866 "/>
<path display="none" fill="#31ABFF" fill-opacity="0.29" stroke="#31ABFF" stroke-width="0.8243" stroke-miterlimit="10" stroke-opacity="0.64" d="
	M541.011,218.609v-21.841h40.562c2.565,7.241,4.73,14.527,6.516,21.841H541.011z"/>
<path display="none" fill="#31ABFF" fill-opacity="0.29" stroke="#31ABFF" stroke-width="0.8243" stroke-miterlimit="10" stroke-opacity="0.64" d="
	M541.011,244.35v-21.843h47.987c1.63,7.265,2.881,14.55,3.729,21.843H541.011z"/>
<path display="none" fill="#31ABFF" fill-opacity="0.29" stroke="#31ABFF" stroke-width="0.8243" stroke-miterlimit="10" stroke-opacity="0.64" d="
	M594.143,270.091h-53.132V248.25h52.128c0.67,6.896,1.002,13.792,0.974,20.681C594.11,269.325,594.127,269.707,594.143,270.091z"/>
<line display="none" fill="none" stroke="#31ABFF" stroke-width="3" stroke-miterlimit="10" x1="667.129" y1="726.5" x2="363.129" y2="726.5"/>
<path display="none" fill="#31ABFF" d="M362.629,703.5h29v-68.552c-9.607,0.396-19.279,0.849-29,1.366V703.5z"/>
<path display="none" fill="#31ABFF" d="M401.629,703.5h29v-69.834c-9.582,0.234-19.253,0.529-29,0.89V703.5z"/>
<path display="none" fill="#31ABFF" d="M440.629,703.5h28v-70.443c-9.225,0.067-18.563,0.196-28,0.389V703.5z"/>
<path display="none" fill="#31ABFF" d="M479.629,633.008V703.5h29v-70.351c-8.34-0.101-16.598-0.149-24.75-0.149
	C482.468,633,481.047,633.005,479.629,633.008z"/>
<path display="none" fill="#31ABFF" d="M519.629,703.5h28v-69.553c-9.42-0.273-18.76-0.488-28-0.646V703.5z"/>
<path display="none" fill="#31ABFF" d="M558.629,703.5h29v-68.051c-9.729-0.447-19.404-0.835-29-1.159V703.5z"/>
<path display="none" fill="#31ABFF" d="M597.629,703.5h28v-66.005c-9.371-0.578-18.71-1.104-28-1.567V703.5z"/>
<path display="none" fill="#31ABFF" d="M636.629,703.5h29v-63.205c-9.684-0.759-19.354-1.46-29-2.099V703.5z"/>
<rect y="0.574" fill="#4DA022" width="100" height="15"/>
<g>
	<g>
		<path fill="#4DA022" d="M113.229,13.909c0.957,0.491,2.429,0.98,3.945,0.98c1.635,0,2.498-0.678,2.498-1.705
			c0-0.979-0.747-1.541-2.638-2.219c-2.615-0.91-4.319-2.356-4.319-4.646c0-2.687,2.241-4.739,5.953-4.739
			c1.773,0,3.082,0.374,4.016,0.794l-0.793,2.872c-0.631-0.304-1.752-0.747-3.293-0.747s-2.287,0.7-2.287,1.519
			c0,1.005,0.887,1.446,2.918,2.219c2.777,1.026,4.086,2.475,4.086,4.69c0,2.64-2.031,4.88-6.351,4.88
			c-1.798,0-3.571-0.468-4.459-0.957L113.229,13.909z"/>
		<path fill="#4DA022" d="M129.266,1.839v9.061c0,2.708,1.026,4.085,2.848,4.085c1.867,0,2.895-1.31,2.895-4.085V1.839h3.549v8.825
			c0,4.854-2.451,7.167-6.561,7.167c-3.969,0-6.303-2.193-6.303-7.214V1.839H129.266z"/>
		<path fill="#4DA022" d="M141.636,2.05c1.146-0.187,2.849-0.326,4.739-0.326c2.334,0,3.969,0.351,5.089,1.236
			c0.935,0.747,1.447,1.846,1.447,3.292c0,2.008-1.425,3.386-2.778,3.875v0.07c1.098,0.443,1.705,1.494,2.102,2.941
			c0.49,1.773,0.98,3.828,1.283,4.437h-3.642c-0.256-0.443-0.63-1.729-1.097-3.666c-0.42-1.961-1.098-2.498-2.545-2.521h-1.073
			v6.188h-3.525L141.636,2.05L141.636,2.05z M145.161,8.82h1.401c1.773,0,2.824-0.888,2.824-2.266c0-1.446-0.979-2.172-2.615-2.193
			c-0.863,0-1.354,0.069-1.61,0.116V8.82z"/>
		<path fill="#4DA022" d="M155.479,2.05c1.144-0.187,2.848-0.326,4.738-0.326c2.334,0,3.969,0.351,5.09,1.236
			c0.935,0.747,1.445,1.846,1.445,3.292c0,2.008-1.424,3.386-2.777,3.875v0.07c1.099,0.443,1.705,1.494,2.103,2.941
			c0.489,1.773,0.979,3.828,1.282,4.437h-3.643c-0.256-0.443-0.629-1.729-1.096-3.666c-0.42-1.961-1.098-2.498-2.545-2.521h-1.074
			v6.188h-3.523V2.05L155.479,2.05z M159.002,8.82h1.4c1.772,0,2.824-0.888,2.824-2.266c0-1.446-0.979-2.172-2.614-2.193
			c-0.864,0-1.354,0.069-1.61,0.116V8.82L159.002,8.82z"/>
		<path fill="#4DA022" d="M183.629,9.543c0,5.16-3.127,8.288-7.729,8.288c-4.668,0-7.4-3.524-7.4-8.008
			c0-4.716,3.014-8.241,7.658-8.241C180.992,1.582,183.629,5.201,183.629,9.543z M172.26,9.754c0,3.082,1.447,5.253,3.828,5.253
			c2.406,0,3.783-2.288,3.783-5.346c0-2.825-1.354-5.253-3.807-5.253C173.66,4.407,172.26,6.695,172.26,9.754z"/>
		<path fill="#4DA022" d="M189.511,1.839v9.061c0,2.708,1.026,4.085,2.849,4.085c1.867,0,2.896-1.31,2.896-4.085V1.839h3.549v8.825
			c0,4.854-2.45,7.167-6.561,7.167c-3.97,0-6.304-2.193-6.304-7.214V1.839H189.511z"/>
		<path fill="#4DA022" d="M201.881,17.574V1.839h4.154l3.27,5.769c0.935,1.657,1.867,3.618,2.568,5.393h0.068
			c-0.232-2.078-0.304-4.203-0.304-6.561V1.839h3.269v15.735h-3.734l-3.361-6.07c-0.934-1.681-1.961-3.712-2.729-5.557l-0.07,0.021
			c0.095,2.078,0.142,4.297,0.142,6.864v4.739L201.881,17.574L201.881,17.574z"/>
		<path fill="#4DA022" d="M217.986,2.05c1.307-0.21,3.012-0.326,4.809-0.326c2.988,0,4.928,0.536,6.443,1.682
			c1.635,1.214,2.662,3.15,2.662,5.93c0,3.013-1.102,5.089-2.615,6.374c-1.658,1.377-4.18,2.031-7.26,2.031
			c-1.847,0-3.152-0.117-4.039-0.233V2.05L217.986,2.05z M221.559,14.889c0.304,0.069,0.793,0.069,1.236,0.069
			c3.223,0.023,5.322-1.751,5.322-5.51c0.021-3.269-1.893-4.996-4.949-4.996c-0.793,0-1.307,0.07-1.609,0.14V14.889L221.559,14.889z
			"/>
		<path fill="#4DA022" d="M239.064,13.909c0.957,0.491,2.428,0.98,3.943,0.98c1.637,0,2.496-0.678,2.496-1.705
			c0-0.979-0.746-1.541-2.637-2.219c-2.615-0.91-4.32-2.356-4.32-4.646c0-2.687,2.242-4.739,5.955-4.739
			c1.773,0,3.08,0.374,4.016,0.794l-0.793,2.872c-0.631-0.304-1.752-0.747-3.293-0.747s-2.285,0.7-2.285,1.519
			c0,1.005,0.887,1.446,2.918,2.219c2.775,1.026,4.086,2.475,4.086,4.69c0,2.64-2.031,4.88-6.354,4.88
			c-1.797,0-3.568-0.468-4.459-0.957L239.064,13.909z"/>
		<path fill="#4DA022" d="M265.957,9.543c0,5.16-3.129,8.288-7.729,8.288c-4.67,0-7.4-3.524-7.4-8.008
			c0-4.716,3.012-8.241,7.658-8.241C263.318,1.582,265.957,5.201,265.957,9.543z M254.588,9.754c0,3.082,1.447,5.253,3.828,5.253
			c2.404,0,3.781-2.288,3.781-5.346c0-2.825-1.354-5.253-3.807-5.253C255.988,4.407,254.588,6.695,254.588,9.754z"/>
		<path fill="#4DA022" d="M271.836,1.839v9.061c0,2.708,1.027,4.085,2.85,4.085c1.867,0,2.896-1.31,2.896-4.085V1.839h3.549v8.825
			c0,4.854-2.451,7.167-6.561,7.167c-3.971,0-6.305-2.193-6.305-7.214V1.839H271.836z"/>
		<path fill="#4DA022" d="M284.207,17.574V1.839h4.156l3.268,5.769c0.938,1.657,1.867,3.618,2.568,5.393h0.07
			c-0.234-2.078-0.307-4.203-0.307-6.561V1.839h3.271v15.735h-3.736l-3.359-6.07c-0.936-1.681-1.961-3.712-2.73-5.557l-0.07,0.021
			c0.096,2.078,0.145,4.297,0.145,6.864v4.739L284.207,17.574L284.207,17.574z"/>
		<path fill="#4DA022" d="M300.313,2.05c1.311-0.21,3.014-0.326,4.811-0.326c2.988,0,4.928,0.536,6.445,1.682
			c1.633,1.214,2.658,3.15,2.658,5.93c0,3.013-1.098,5.089-2.613,6.374c-1.656,1.377-4.182,2.031-7.262,2.031
			c-1.846,0-3.15-0.117-4.039-0.233V2.05L300.313,2.05z M303.885,14.889c0.307,0.069,0.795,0.069,1.236,0.069
			c3.223,0.023,5.324-1.751,5.324-5.51c0.021-3.269-1.895-4.996-4.949-4.996c-0.795,0-1.309,0.07-1.611,0.14V14.889z"/>
	</g>
</g>
<path opacity="0.5" fill="#4DA022" enable-background="new    " d="M354.784,26.664l-0.095-0.02v-0.339l0.076-0.026
	c6.151-2.23,9.68-6.725,9.68-12.33c0-6.214-4.641-12.485-15.004-12.485c-5.654,0-10.928,1.996-13.684,3.991l1.788,4.979
	c2.396-1.676,6.371-3.43,10.511-3.43c5.879,0,9.387,3.021,9.387,8.083c0,6.646-7.119,9.06-11.904,9.06h-3.866v5.135h3.866
	c6.301,0,13.688,2.798,13.773,10.684c0.051,2.667-0.949,5.244-2.74,7.069c-2.146,2.185-5.281,3.292-9.326,3.292
	c-5.053,0-9.747-2.098-11.646-3.273l-1.873,5.308c2.725,1.755,7.952,3.51,13.601,3.51c13.229,0,19.149-7.905,19.149-15.739
	C366.479,33.369,361.889,28.085,354.784,26.664z"/>
<path opacity="0.5" fill="#4DA022" enable-background="new    " d="M415.215,6.799C410.307,2.223,403.072,0,393.098,0
	c-4.939,0-9.962,0.378-14.925,1.124v53.697c3.774,0.423,8.06,0.637,12.731,0.637c10.655,0,19.007-2.715,24.145-7.851
	c5.139-5.058,7.853-12.395,7.853-21.22C422.899,17.946,420.386,11.538,415.215,6.799z M409.705,43.887
	c-4.035,4.056-9.896,6.11-17.42,6.11c-2.116,0-5.162-0.042-7.176-0.408l-0.096-0.018V6.133l0.092-0.02
	c1.541-0.335,4.234-0.734,8.316-0.734c7.365,0,13.047,1.959,16.888,5.823c3.642,3.663,5.466,8.854,5.426,15.431
	C415.735,34.059,413.706,39.866,409.705,43.887z"/>
</svg>
