<?xml version="1.0" encoding="utf-8"?>
<!-- Generator: Adobe Illustrator 15.1.0, SVG Export Plug-In  -->
<!DOCTYPE svg PUBLIC "-//W3C//DTD SVG 1.1//EN" "http://www.w3.org/Graphics/SVG/1.1/DTD/svg11.dtd" [
	<!ENTITY ns_flows "http://ns.adobe.com/Flows/1.0/">
]>
<svg version="1.1"
	 xmlns="http://www.w3.org/2000/svg" xmlns:xlink="http://www.w3.org/1999/xlink" xmlns:a="http://ns.adobe.com/AdobeSVGViewerExtensions/3.0/"
	 x="0px" y="0px" width="291px" height="16px" viewBox="0 221.526 291 16"
	 overflow="visible" enable-background="new 0 221.526 291 16" xml:space="preserve">
<defs>
</defs>
<rect y="222.518" fill="#31ABFF" width="223" height="15"/>
<g>
	<g>
		<path fill="#31ABFF" d="M238.749,224.771h-4.226v-2.988h12.093v2.988h-4.295v12.747h-3.572V224.771z"/>
		<path fill="#31ABFF" d="M262.232,229.487c0,5.16-3.128,8.288-7.728,8.288c-4.669,0-7.401-3.525-7.401-8.008
			c0-4.716,3.012-8.241,7.658-8.241C259.594,221.526,262.232,225.145,262.232,229.487z M250.863,229.697
			c0,3.082,1.448,5.253,3.829,5.253c2.405,0,3.782-2.288,3.782-5.346c0-2.825-1.354-5.253-3.805-5.253
			C252.264,224.351,250.863,226.639,250.863,229.697z"/>
		<path fill="#31ABFF" d="M264.564,237.518v-15.735h4.155l3.269,5.767c0.934,1.658,1.868,3.619,2.568,5.393h0.07
			c-0.233-2.078-0.304-4.203-0.304-6.561v-4.599h3.269v15.735h-3.735l-3.362-6.07c-0.934-1.681-1.961-3.712-2.731-5.557l-0.07,0.023
			c0.094,2.078,0.14,4.296,0.14,6.864v4.739H264.564z"/>
		<path fill="#31ABFF" d="M290.032,230.864h-5.79v3.735h6.467v2.918H280.67v-15.735h9.712v2.918h-6.14v3.269h5.79V230.864z"/>
	</g>
</g>
<g>
	<defs>
		<rect id="SVGID_1_" x="397" y="329.518" width="215" height="476"/>
	</defs>
	<clipPath id="SVGID_2_">
		<use xlink:href="#SVGID_1_"  overflow="visible"/>
	</clipPath>
	<g clip-path="url(#SVGID_2_)">
		<path fill="none" stroke="#E3F6FF" stroke-miterlimit="10" d="M486.532,601.068v-30.766l0.574-0.626
			c5.102-5.575,11.525-8.521,18.576-8.521c7.201,0,14.201,3.129,18.268,8.164l0.484,0.603v31.525l-0.484,0.603
			c-4.066,5.035-11.064,8.164-18.268,8.164c-7.051,0-13.475-2.947-18.576-8.521L486.532,601.068z"/>
		<path fill="#31ABFF" fill-opacity="0.3" d="M490.905,572.021v27.327c4.15,4.251,9.244,6.493,14.777,6.493
			c5.629,0,11.062-2.271,14.379-5.97v-28.373c-3.316-3.698-8.75-5.97-14.379-5.97C500.149,565.529,495.056,567.77,490.905,572.021z"
			/>
		<linearGradient id="SVGID_3_" gradientUnits="userSpaceOnUse" x1="505.4824" y1="584.7124" x2="505.4824" y2="561.9611">
			<stop  offset="0" style="stop-color:#D4EEFF;stop-opacity:0"/>
			<stop  offset="1" style="stop-color:#D4EEFF"/>
		</linearGradient>
		<rect x="504.982" fill="url(#SVGID_3_)" width="1" height="585.341"/>
		<linearGradient id="SVGID_4_" gradientUnits="userSpaceOnUse" x1="505.4824" y1="585.8413" x2="505.4824" y2="609.6124">
			<stop  offset="0" style="stop-color:#D4EEFF;stop-opacity:0"/>
			<stop  offset="1" style="stop-color:#D4EEFF"/>
		</linearGradient>
		<rect x="504.982" y="585.841" fill="url(#SVGID_4_)" width="1" height="475.844"/>
		<linearGradient id="SVGID_5_" gradientUnits="userSpaceOnUse" x1="504.8818" y1="585.8413" x2="524.8834" y2="585.8413">
			<stop  offset="0" style="stop-color:#D4EEFF;stop-opacity:0"/>
			<stop  offset="1" style="stop-color:#D4EEFF"/>
		</linearGradient>
		<rect x="505.982" y="585.341" fill="url(#SVGID_5_)" width="295.342" height="1"/>
		<linearGradient id="SVGID_6_" gradientUnits="userSpaceOnUse" x1="506.6318" y1="585.8413" x2="485.8803" y2="585.8413">
			<stop  offset="0" style="stop-color:#D4EEFF;stop-opacity:0"/>
			<stop  offset="1" style="stop-color:#D4EEFF"/>
		</linearGradient>
		<rect x="259.64" y="585.341" fill="url(#SVGID_6_)" width="246.343" height="1"/>
	</g>
</g>
</svg>
