<?xml version="1.0" encoding="utf-8"?>
<!-- Generator: Adobe Illustrator 15.1.0, SVG Export Plug-In  -->
<!DOCTYPE svg PUBLIC "-//W3C//DTD SVG 1.1//EN" "http://www.w3.org/Graphics/SVG/1.1/DTD/svg11.dtd" [
	<!ENTITY ns_flows "http://ns.adobe.com/Flows/1.0/">
]>
<svg version="1.1"
	 xmlns="http://www.w3.org/2000/svg" xmlns:xlink="http://www.w3.org/1999/xlink" xmlns:a="http://ns.adobe.com/AdobeSVGViewerExtensions/3.0/"
	 x="0px" y="0px" width="123px" height="88px" viewBox="574 763 123 88" overflow="visible" enable-background="new 574 763 123 88"
	 xml:space="preserve">
<defs>
</defs>
<linearGradient id="SVGID_1_" gradientUnits="userSpaceOnUse" x1="360.0005" y1="946" x2="360.0005" y2="46.8912">
	<stop  offset="0" style="stop-color:#041724"/>
	<stop  offset="1" style="stop-color:#000000"/>
</linearGradient>
<rect display="none" fill="url(#SVGID_1_)" width="720" height="1001"/>
<rect x="575" y="763.898" display="none" fill="#6DD436" fill-opacity="0.29" stroke="#6DD436" stroke-width="0.8902" stroke-miterlimit="10" stroke-opacity="0.64" width="122" height="86.564"/>
<rect x="575" y="763.898" fill="#6DD436" fill-opacity="0.29" stroke="#6DD436" stroke-width="0.8902" stroke-miterlimit="10" stroke-opacity="0.64" width="122" height="86.564"/>
<path display="none" fill="#6DD436" d="M607.486,775.877c1.204-0.21,3.011-0.367,4.87-0.367c2.54,0,4.268,0.419,5.446,1.414
	c0.969,0.812,1.519,2.043,1.519,3.535c0,2.278-1.545,3.823-3.194,4.425v0.079c1.257,0.471,2.016,1.701,2.461,3.403
	c0.55,2.199,1.021,4.242,1.388,4.923h-3.325c-0.262-0.523-0.681-1.964-1.178-4.163c-0.498-2.305-1.336-3.037-3.169-3.09h-1.623
	v7.253h-3.194V775.877z M610.681,783.68h1.911c2.174,0,3.535-1.152,3.535-2.906c0-1.938-1.361-2.828-3.456-2.828
	c-1.021,0-1.676,0.078-1.99,0.157V783.68z"/>
<path display="none" fill="#6DD436" d="M632.256,785.46h-6.65v5.185h7.436v2.645h-10.656v-17.648h10.264v2.645h-7.043v4.557h6.65
	V785.46z"/>
<path display="none" fill="#6DD436" d="M639.404,788.288l-1.519,5.001h-3.325l5.656-17.648h4.11l5.734,17.648h-3.456l-1.598-5.001
	H639.404z M644.458,785.853l-1.388-4.347c-0.34-1.073-0.628-2.277-0.891-3.299h-0.052c-0.262,1.021-0.523,2.252-0.838,3.299
	l-1.361,4.347H644.458z"/>
<path display="none" fill="#6DD436" d="M652.522,775.877c1.204-0.21,3.011-0.367,4.87-0.367c2.54,0,4.268,0.419,5.446,1.414
	c0.969,0.812,1.519,2.043,1.519,3.535c0,2.278-1.545,3.823-3.194,4.425v0.079c1.257,0.471,2.016,1.701,2.461,3.403
	c0.55,2.199,1.021,4.242,1.388,4.923h-3.325c-0.262-0.523-0.681-1.964-1.179-4.163c-0.497-2.305-1.335-3.037-3.168-3.09h-1.623
	v7.253h-3.194V775.877z M655.717,783.68h1.911c2.174,0,3.535-1.152,3.535-2.906c0-1.938-1.361-2.828-3.456-2.828
	c-1.021,0-1.676,0.078-1.99,0.157V783.68z"/>
<path display="none" fill="#6DD436" d="M654.34,832h-35.68c-3.121,0-5.66-2.539-5.66-5.66v-19.68c0-3.121,2.539-5.66,5.66-5.66
	h35.68c3.121,0,5.66,2.539,5.66,5.66v19.68C660,829.461,657.461,832,654.34,832z M618.66,804c-1.467,0-2.66,1.193-2.66,2.66v19.68
	c0,1.467,1.193,2.66,2.66,2.66h35.68c1.467,0,2.66-1.193,2.66-2.66v-19.68c0-1.467-1.193-2.66-2.66-2.66H618.66z"/>
<path display="none" fill="#6DD436" d="M626.822,814.006l3.49,0.505l-2.15-6.703l-7.024,5.386l3.361,0.484
	c-7.017,9.952,8.393,19.226,0.442,30.322c0.664,0,1.504,0,2.561,0C635.366,833.696,620.365,823.848,626.822,814.006z"/>
<path display="none" fill="#6DD436" d="M636.807,814.006l3.49,0.505l-2.149-6.703l-7.024,5.386l3.361,0.484
	c-7.017,9.952,8.394,19.226,0.442,30.322c0.665,0,1.505,0,2.562,0C645.351,833.696,630.352,823.848,636.807,814.006z"/>
<path display="none" fill="#6DD436" d="M646.793,814.006l3.49,0.505l-2.15-6.703l-7.024,5.386l3.361,0.484
	c-7.017,9.952,8.394,19.226,0.442,30.322c0.665,0,1.505,0,2.562,0C655.337,833.696,640.337,823.848,646.793,814.006z"/>
<linearGradient id="SVGID_3_" gradientUnits="userSpaceOnUse" x1="635.5" y1="765.6836" x2="635.5" y2="849.0061">
	<stop  offset="0.5092" style="stop-color:#6DD436;stop-opacity:0"/>
	<stop  offset="0.9018" style="stop-color:#6DD436"/>
	<stop  offset="1" style="stop-color:#65d02D"/>
</linearGradient>
<rect x="574.5" y="763.5" fill="url(#SVGID_3_)" stroke="#6DD436" stroke-miterlimit="10" width="122" height="87"/>
<path fill="#FFFFFF" d="M607.486,775.877c1.204-0.21,3.011-0.367,4.87-0.367c2.54,0,4.268,0.419,5.446,1.414
	c0.969,0.812,1.519,2.043,1.519,3.535c0,2.278-1.545,3.823-3.194,4.425v0.079c1.257,0.471,2.016,1.701,2.461,3.403
	c0.55,2.199,1.021,4.242,1.388,4.923h-3.325c-0.262-0.523-0.681-1.964-1.178-4.163c-0.498-2.305-1.336-3.037-3.169-3.09h-1.623
	v7.253h-3.194V775.877z M610.681,783.68h1.911c2.174,0,3.535-1.152,3.535-2.906c0-1.938-1.361-2.828-3.456-2.828
	c-1.021,0-1.676,0.078-1.99,0.157V783.68z"/>
<path fill="#FFFFFF" d="M632.256,785.46h-6.65v5.185h7.436v2.645h-10.656v-17.648h10.264v2.645h-7.043v4.557h6.65V785.46z"/>
<path fill="#FFFFFF" d="M639.404,788.288l-1.519,5.001h-3.325l5.656-17.648h4.11l5.734,17.648h-3.456l-1.598-5.001H639.404z
	 M644.458,785.853l-1.388-4.347c-0.34-1.073-0.628-2.277-0.891-3.299h-0.052c-0.262,1.021-0.523,2.252-0.838,3.299l-1.361,4.347
	H644.458z"/>
<path fill="#FFFFFF" d="M652.522,775.877c1.204-0.21,3.011-0.367,4.87-0.367c2.54,0,4.268,0.419,5.446,1.414
	c0.969,0.812,1.519,2.043,1.519,3.535c0,2.278-1.545,3.823-3.194,4.425v0.079c1.257,0.471,2.016,1.701,2.461,3.403
	c0.55,2.199,1.021,4.242,1.388,4.923h-3.325c-0.262-0.523-0.681-1.964-1.179-4.163c-0.497-2.305-1.335-3.037-3.168-3.09h-1.623
	v7.253h-3.194V775.877z M655.717,783.68h1.911c2.174,0,3.535-1.152,3.535-2.906c0-1.938-1.361-2.828-3.456-2.828
	c-1.021,0-1.676,0.078-1.99,0.157V783.68z"/>
<path fill="#FFFFFF" d="M654.34,832h-35.68c-3.121,0-5.66-2.539-5.66-5.66v-19.68c0-3.121,2.539-5.66,5.66-5.66h35.68
	c3.121,0,5.66,2.539,5.66,5.66v19.68C660,829.461,657.461,832,654.34,832z M618.66,804c-1.467,0-2.66,1.193-2.66,2.66v19.68
	c0,1.467,1.193,2.66,2.66,2.66h35.68c1.467,0,2.66-1.193,2.66-2.66v-19.68c0-1.467-1.193-2.66-2.66-2.66H618.66z"/>
<path fill="#FFFFFF" d="M626.822,814.006l3.49,0.505l-2.15-6.703l-7.024,5.386l3.361,0.484c-7.017,9.952,8.393,19.226,0.442,30.322
	c0.664,0,1.504,0,2.561,0C635.366,833.696,620.365,823.848,626.822,814.006z"/>
<path fill="#FFFFFF" d="M636.807,814.006l3.49,0.505l-2.149-6.703l-7.024,5.386l3.361,0.484c-7.017,9.952,8.394,19.226,0.442,30.322
	c0.665,0,1.505,0,2.562,0C645.351,833.696,630.352,823.848,636.807,814.006z"/>
<path fill="#FFFFFF" d="M646.793,814.006l3.49,0.505l-2.15-6.703l-7.024,5.386l3.361,0.484c-7.017,9.952,8.394,19.226,0.442,30.322
	c0.665,0,1.505,0,2.562,0C655.337,833.696,640.337,823.848,646.793,814.006z"/>
<text transform="matrix(1 0 0 1 605.627 793.2891)" display="none" fill="#6DD436" font-family="'MyriadPro-Semibold'" font-size="26.1844">REAR</text>
<path display="none" fill="none" stroke="#6DD436" stroke-width="3" stroke-miterlimit="10" d="M658.5,826.34
	c0,2.298-1.862,4.16-4.16,4.16h-35.68c-2.298,0-4.16-1.862-4.16-4.16v-19.68c0-2.298,1.862-4.16,4.16-4.16h35.68
	c2.298,0,4.16,1.862,4.16,4.16V826.34z"/>
<path display="none" fill="#6DD436" d="M626.822,814.006l3.49,0.505l-2.15-6.703l-7.024,5.386l3.361,0.484
	c-7.017,9.952,8.393,19.226,0.442,30.322c0.664,0,1.504,0,2.561,0C635.366,833.696,620.365,823.848,626.822,814.006z"/>
<path display="none" fill="#6DD436" d="M636.807,814.006l3.49,0.505l-2.149-6.703l-7.024,5.386l3.361,0.484
	c-7.017,9.952,8.394,19.226,0.442,30.322c0.665,0,1.505,0,2.562,0C645.351,833.696,630.352,823.848,636.807,814.006z"/>
<path display="none" fill="#6DD436" d="M646.793,814.006l3.49,0.505l-2.15-6.703l-7.024,5.386l3.361,0.484
	c-7.017,9.952,8.394,19.226,0.442,30.322c0.665,0,1.505,0,2.562,0C655.337,833.696,640.337,823.848,646.793,814.006z"/>
</svg>
