<?xml version="1.0" encoding="utf-8"?>
<!-- Generator: Adobe Illustrator 15.1.0, SVG Export Plug-In  -->
<!DOCTYPE svg PUBLIC "-//W3C//DTD SVG 1.1//EN" "http://www.w3.org/Graphics/SVG/1.1/DTD/svg11.dtd" [
	<!ENTITY ns_flows "http://ns.adobe.com/Flows/1.0/">
]>
<svg version="1.1"
	 xmlns="http://www.w3.org/2000/svg" xmlns:xlink="http://www.w3.org/1999/xlink" xmlns:a="http://ns.adobe.com/AdobeSVGViewerExtensions/3.0/"
	 x="0px" y="0px" width="159px" height="129px" viewBox="410 175 159 129"
	 overflow="visible" enable-background="new 410 175 159 129" xml:space="preserve">
<defs>
</defs>
<linearGradient id="SVGID_3_" gradientUnits="userSpaceOnUse" x1="360.0005" y1="946" x2="360.0005" y2="46.891">
	<stop  offset="0" style="stop-color:#041724"/>
	<stop  offset="1" style="stop-color:#000000"/>
</linearGradient>
<rect fill="url(#SVGID_3_)" width="720" height="1001"/>
<g display="none">
	<defs>
		<rect id="SVGID_1_" x="410" y="346" width="158" height="232"/>
	</defs>
	<clipPath id="SVGID_4_" display="inline">
		<use xlink:href="#SVGID_1_"  display="none" overflow="visible"/>
	</clipPath>
	<g clip-path="url(#SVGID_4_)">
		<text transform="matrix(1 0 0 1 427.5938 489.4902)" fill="#FFFFFF" font-family="'MyriadPro-Regular'" font-size="93.6032">20°</text>
		<text transform="matrix(1 0 0 1 427.5938 593.2334)" fill="#FFFFFF" font-family="'MyriadPro-Regular'" font-size="93.6032">21°</text>
		<text transform="matrix(1 0 0 1 427.5938 393.5469)" fill="#FFFFFF" font-family="'MyriadPro-Regular'" font-size="93.6032">19°</text>
		<text transform="matrix(1 0 0 1 427.5938 295.8911)" fill="#FFFFFF" font-family="'MyriadPro-Regular'" font-size="93.6032">18°</text>
		<text transform="matrix(1 0 0 1 427.5938 201.5078)" fill="#FFFFFF" font-family="'MyriadPro-Regular'" font-size="93.6032">17°</text>
	</g>
</g>
<rect x="410.472" y="175.708" fill="#31ABFF" fill-opacity="0.29" stroke="#31ABFF" stroke-miterlimit="10" stroke-opacity="0.64" width="157.955" height="127.534"/>
<path fill="#31ABFF" fill-opacity="0.29" stroke="#31ABFF" stroke-width="0.8243" stroke-miterlimit="10" stroke-opacity="0.64" d="
	M505.333,255.953l51.054-3.023c3.593-0.142,5.475,3.107,4.104,7.17l-2.858,10.824c-1.527,4.532-5.985,9.041-9.908,9.041h-62.589
	c-5.254,0-6.745-6.561-6.745-11.152c0.12-25.828-4.735-52.385-14.563-78.246c-0.953-2.52,0.953-5.045,4.299-5.702
	c1.817-0.356,3.634-0.713,5.448-1.069c3.337-0.655,7.051,0.767,8.26,3.236c11.037,22.564,18.271,43.783,21.695,66.559
	C503.529,253.589,504.193,256.021,505.333,255.953z"/>
<path fill="#31ABFF" d="M538.5,298c18.86,0-15.645,0,3.215,0c-10.184-23,10.184-45,0-67c-18.859,0,15.646,0-3.215,0
	C548.685,253,528.316,275,538.5,298z"/>
<polygon fill="#31ABFF" points="546.489,231.288 538.988,223.451 535.952,233.866 "/>
<path fill="#31ABFF" d="M525.642,298c18.859,0-15.646,0,3.214,0c-10.184-23,10.186-45,0-67c-18.86,0,15.646,0-3.214,0
	C535.825,253,515.457,275,525.642,298z"/>
<polygon fill="#31ABFF" points="533.63,231.288 526.129,223.451 523.093,233.866 "/>
<path fill="#31ABFF" d="M512.14,298c18.86,0-15.646,0,3.214,0c-10.184-23,10.185-45,0-67c-18.859,0,15.646,0-3.214,0
	C522.323,253,501.955,275,512.14,298z"/>
<polygon fill="#31ABFF" points="520.128,231.288 512.627,223.451 509.592,233.866 "/>
<path fill="#31ABFF" fill-opacity="0.29" stroke="#31ABFF" stroke-width="0.8243" stroke-miterlimit="10" stroke-opacity="0.64" d="
	M417.882,218.609v-21.841h40.559c2.568,7.243,4.733,14.529,6.516,21.841H417.882z"/>
<path fill="#31ABFF" fill-opacity="0.29" stroke="#31ABFF" stroke-width="0.8243" stroke-miterlimit="10" stroke-opacity="0.64" d="
	M417.882,244.35v-21.841h47.987c1.63,7.263,2.881,14.548,3.73,21.841H417.882z"/>
<path fill="#31ABFF" fill-opacity="0.29" stroke="#31ABFF" stroke-width="0.8243" stroke-miterlimit="10" stroke-opacity="0.64" d="
	M471.014,270.091h-53.132V248.25h52.128c0.67,6.894,1.002,13.792,0.971,20.679C470.98,269.325,470.998,269.707,471.014,270.091z"/>
</svg>
