<?xml version="1.0" encoding="utf-8"?>
<!-- Generator: Adobe Illustrator 15.1.0, SVG Export Plug-In  -->
<!DOCTYPE svg PUBLIC "-//W3C//DTD SVG 1.1//EN" "http://www.w3.org/Graphics/SVG/1.1/DTD/svg11.dtd" [
	<!ENTITY ns_flows "http://ns.adobe.com/Flows/1.0/">
]>
<svg version="1.1"
	 xmlns="http://www.w3.org/2000/svg" xmlns:xlink="http://www.w3.org/1999/xlink" xmlns:a="http://ns.adobe.com/AdobeSVGViewerExtensions/3.0/"
	 x="0px" y="0px" width="416px" height="81px" viewBox="152 17 416 81" overflow="visible" enable-background="new 152 17 416 81"
	 xml:space="preserve">
<defs>
</defs>
<linearGradient id="SVGID_1_" gradientUnits="userSpaceOnUse" x1="360.0005" y1="946" x2="360.0005" y2="46.891">
	<stop  offset="0" style="stop-color:#041724"/>
	<stop  offset="1" style="stop-color:#000000"/>
</linearGradient>
<rect fill="url(#SVGID_1_)" width="720" height="1001"/>
<rect x="152.053" y="17.5" fill="#31ABFF" fill-opacity="0.29" stroke="#31ABFF" stroke-width="0.6866" stroke-miterlimit="10" stroke-opacity="0.64" width="415.947" height="79.5"/>
<linearGradient id="SVGID_3_" gradientUnits="userSpaceOnUse" x1="359.9995" y1="17.9375" x2="359.9995" y2="96.6573">
	<stop  offset="0.5092" style="stop-color:#31ABFF;stop-opacity:0"/>
	<stop  offset="0.9018" style="stop-color:#31ABFF"/>
	<stop  offset="1" style="stop-color:#63E6FF"/>
</linearGradient>
<rect x="152.5" y="17.5" fill="url(#SVGID_3_)" stroke="#31ABFF" stroke-miterlimit="10" width="415" height="80"/>
<path fill="none" stroke="#FFFFFF" stroke-width="6" stroke-miterlimit="10" d="M388.906,87h-57.737c-1.891,0-3.421-1.535-4.2-2.883
	s-0.683-3.441,0.263-5.079l28.869-50.193c0.945-1.638,2.38-2.671,3.937-2.671s2.992,0.892,3.937,2.529l28.869,49.978
	c0.945,1.637,1.041,4.1,0.263,5.447C392.327,85.478,390.798,87,388.906,87z"/>
<polygon fill="none" stroke="#FFFFFF" stroke-width="6" stroke-miterlimit="10" points="338.375,78 359.958,40.616 381.541,78 "/>
</svg>
