<?xml version="1.0" encoding="utf-8"?>
<!-- Generator: Adobe Illustrator 15.1.0, SVG Export Plug-In  -->
<!DOCTYPE svg PUBLIC "-//W3C//DTD SVG 1.1//EN" "http://www.w3.org/Graphics/SVG/1.1/DTD/svg11.dtd" [
	<!ENTITY ns_flows "http://ns.adobe.com/Flows/1.0/">
]>
<svg version="1.1"
	 xmlns="http://www.w3.org/2000/svg" xmlns:xlink="http://www.w3.org/1999/xlink" xmlns:a="http://ns.adobe.com/AdobeSVGViewerExtensions/3.0/"
	 x="0px" y="0px" width="423px" height="56px" viewBox="0 0 423 56" overflow="visible" enable-background="new 0 0 423 56"
	 xml:space="preserve">
<defs>
</defs>
<rect y="0.69" fill="#31ABFF" width="100" height="15"/>
<g>
	<g>
		<path fill="#31ABFF" d="M113.229,14.025c0.957,0.491,2.428,0.981,3.945,0.981c1.634,0,2.498-0.677,2.498-1.705
			c0-0.98-0.747-1.541-2.638-2.218c-2.615-0.911-4.319-2.358-4.319-4.646c0-2.685,2.241-4.739,5.953-4.739
			c1.774,0,3.082,0.374,4.016,0.794l-0.794,2.872c-0.63-0.304-1.751-0.747-3.292-0.747c-1.541,0-2.288,0.7-2.288,1.518
			c0,1.004,0.887,1.447,2.918,2.218c2.778,1.027,4.086,2.475,4.086,4.692c0,2.638-2.031,4.879-6.35,4.879
			c-1.798,0-3.572-0.467-4.459-0.957L113.229,14.025z"/>
		<path fill="#31ABFF" d="M129.265,1.955v9.059c0,2.708,1.027,4.085,2.848,4.085c1.868,0,2.895-1.308,2.895-4.085V1.955h3.548v8.825
			c0,4.855-2.451,7.167-6.56,7.167c-3.969,0-6.303-2.194-6.303-7.214V1.955H129.265z"/>
		<path fill="#31ABFF" d="M141.636,2.166c1.144-0.187,2.848-0.327,4.739-0.327c2.334,0,3.969,0.35,5.089,1.237
			c0.934,0.747,1.447,1.845,1.447,3.292c0,2.008-1.424,3.385-2.778,3.875v0.07c1.098,0.444,1.705,1.494,2.101,2.942
			c0.491,1.774,0.981,3.829,1.284,4.436h-3.642c-0.256-0.443-0.63-1.728-1.097-3.666c-0.42-1.961-1.097-2.498-2.544-2.521h-1.074
			v6.187h-3.525V2.166z M145.161,8.936h1.401c1.774,0,2.825-0.887,2.825-2.265c0-1.447-0.98-2.171-2.615-2.194
			c-0.864,0-1.354,0.07-1.611,0.117V8.936z"/>
		<path fill="#31ABFF" d="M155.478,2.166c1.144-0.187,2.848-0.327,4.739-0.327c2.334,0,3.969,0.35,5.089,1.237
			c0.934,0.747,1.447,1.845,1.447,3.292c0,2.008-1.424,3.385-2.778,3.875v0.07c1.098,0.444,1.705,1.494,2.101,2.942
			c0.491,1.774,0.981,3.829,1.284,4.436h-3.642c-0.256-0.443-0.63-1.728-1.097-3.666c-0.42-1.961-1.097-2.498-2.544-2.521h-1.074
			v6.187h-3.525V2.166z M159.002,8.936h1.401c1.774,0,2.825-0.887,2.825-2.265c0-1.447-0.98-2.171-2.615-2.194
			c-0.864,0-1.354,0.07-1.611,0.117V8.936z"/>
		<path fill="#31ABFF" d="M183.63,9.659c0,5.16-3.128,8.288-7.728,8.288c-4.669,0-7.401-3.525-7.401-8.008
			c0-4.716,3.012-8.241,7.658-8.241C180.992,1.698,183.63,5.317,183.63,9.659z M172.26,9.87c0,3.082,1.448,5.253,3.829,5.253
			c2.405,0,3.782-2.288,3.782-5.346c0-2.825-1.354-5.253-3.805-5.253C173.661,4.523,172.26,6.811,172.26,9.87z"/>
		<path fill="#31ABFF" d="M189.511,1.955v9.059c0,2.708,1.026,4.085,2.848,4.085c1.868,0,2.895-1.308,2.895-4.085V1.955h3.549v8.825
			c0,4.855-2.451,7.167-6.56,7.167c-3.969,0-6.304-2.194-6.304-7.214V1.955H189.511z"/>
		<path fill="#31ABFF" d="M201.881,17.69V1.955h4.155l3.269,5.767c0.934,1.658,1.868,3.619,2.568,5.393h0.069
			c-0.233-2.078-0.303-4.203-0.303-6.561V1.955h3.268V17.69h-3.734l-3.362-6.07c-0.934-1.681-1.961-3.712-2.731-5.557l-0.07,0.023
			c0.094,2.078,0.141,4.296,0.141,6.864v4.739H201.881z"/>
		<path fill="#31ABFF" d="M217.986,2.166c1.308-0.21,3.012-0.327,4.81-0.327c2.988,0,4.926,0.537,6.443,1.681
			c1.634,1.214,2.661,3.151,2.661,5.93c0,3.012-1.098,5.089-2.615,6.374c-1.657,1.377-4.179,2.031-7.26,2.031
			c-1.845,0-3.152-0.117-4.039-0.233V2.166z M221.558,15.006c0.304,0.07,0.794,0.07,1.238,0.07c3.222,0.023,5.322-1.751,5.322-5.51
			c0.023-3.268-1.891-4.996-4.949-4.996c-0.794,0-1.308,0.07-1.611,0.14V15.006z"/>
		<path fill="#31ABFF" d="M239.064,14.025c0.958,0.491,2.429,0.981,3.946,0.981c1.634,0,2.497-0.677,2.497-1.705
			c0-0.98-0.747-1.541-2.638-2.218c-2.614-0.911-4.319-2.358-4.319-4.646c0-2.685,2.241-4.739,5.954-4.739
			c1.773,0,3.081,0.374,4.015,0.794l-0.793,2.872c-0.631-0.304-1.751-0.747-3.292-0.747s-2.288,0.7-2.288,1.518
			c0,1.004,0.887,1.447,2.918,2.218c2.778,1.027,4.086,2.475,4.086,4.692c0,2.638-2.031,4.879-6.351,4.879
			c-1.797,0-3.571-0.467-4.459-0.957L239.064,14.025z"/>
		<path fill="#31ABFF" d="M265.957,9.659c0,5.16-3.128,8.288-7.728,8.288c-4.669,0-7.4-3.525-7.4-8.008
			c0-4.716,3.012-8.241,7.657-8.241C263.319,1.698,265.957,5.317,265.957,9.659z M254.588,9.87c0,3.082,1.447,5.253,3.828,5.253
			c2.405,0,3.782-2.288,3.782-5.346c0-2.825-1.354-5.253-3.806-5.253C255.988,4.523,254.588,6.811,254.588,9.87z"/>
		<path fill="#31ABFF" d="M271.837,1.955v9.059c0,2.708,1.026,4.085,2.848,4.085c1.868,0,2.895-1.308,2.895-4.085V1.955h3.549v8.825
			c0,4.855-2.451,7.167-6.56,7.167c-3.969,0-6.304-2.194-6.304-7.214V1.955H271.837z"/>
		<path fill="#31ABFF" d="M284.208,17.69V1.955h4.155l3.269,5.767c0.934,1.658,1.867,3.619,2.568,5.393h0.069
			c-0.233-2.078-0.303-4.203-0.303-6.561V1.955h3.269V17.69h-3.736l-3.361-6.07c-0.934-1.681-1.961-3.712-2.731-5.557l-0.07,0.023
			c0.094,2.078,0.141,4.296,0.141,6.864v4.739H284.208z"/>
		<path fill="#31ABFF" d="M300.313,2.166c1.308-0.21,3.012-0.327,4.809-0.327c2.988,0,4.927,0.537,6.444,1.681
			c1.634,1.214,2.661,3.151,2.661,5.93c0,3.012-1.098,5.089-2.615,6.374c-1.657,1.377-4.179,2.031-7.26,2.031
			c-1.845,0-3.152-0.117-4.039-0.233V2.166z M303.885,15.006c0.304,0.07,0.794,0.07,1.237,0.07c3.223,0.023,5.323-1.751,5.323-5.51
			c0.023-3.268-1.891-4.996-4.949-4.996c-0.794,0-1.308,0.07-1.611,0.14V15.006z"/>
	</g>
</g>
<g>
	<g>
		<path fill="#8FD7FF" d="M335.54,46.991c2.032,1.301,6.748,3.333,11.707,3.333c9.187,0,12.032-5.854,11.951-10.244
			c-0.081-7.398-6.748-10.569-13.658-10.569h-3.983v-5.366h3.983c5.203,0,11.788-2.683,11.788-8.943
			c0-4.228-2.683-7.967-9.268-7.967c-4.229,0-8.293,1.87-10.569,3.496l-1.87-5.203c2.765-2.032,8.13-4.064,13.821-4.064
			c10.406,0,15.121,6.179,15.121,12.601c0,5.447-3.252,10.081-9.756,12.439v0.162c6.504,1.301,11.788,6.179,11.788,13.577
			c0,8.455-6.585,15.854-19.268,15.854c-5.935,0-11.138-1.87-13.739-3.577L335.54,46.991z"/>
		<path fill="#8FD7FF" d="M378.059,1.139C382.367,0.488,387.489,0,393.099,0c10.163,0,17.398,2.358,22.194,6.829
			c4.879,4.472,7.724,10.813,7.724,19.675c0,8.942-2.764,16.26-7.886,21.3c-5.122,5.122-13.577,7.886-24.227,7.886
			c-5.041,0-9.269-0.244-12.846-0.65V1.139z M385.132,49.593c1.788,0.325,4.39,0.406,7.154,0.406
			c15.121,0,23.333-8.455,23.333-23.251C415.7,13.821,408.383,5.61,393.424,5.61c-3.658,0-6.422,0.325-8.292,0.732V49.593z"/>
	</g>
</g>
</svg>
