<?xml version="1.0" encoding="utf-8"?>
<!-- Generator: Adobe Illustrator 15.1.0, SVG Export Plug-In  -->
<!DOCTYPE svg PUBLIC "-//W3C//DTD SVG 1.1//EN" "http://www.w3.org/Graphics/SVG/1.1/DTD/svg11.dtd" [
	<!ENTITY ns_flows "http://ns.adobe.com/Flows/1.0/">
]>
<svg version="1.1"
	 xmlns="http://www.w3.org/2000/svg" xmlns:xlink="http://www.w3.org/1999/xlink" xmlns:a="http://ns.adobe.com/AdobeSVGViewerExtensions/3.0/"
	 x="0px" y="0px" width="52px" height="407px" viewBox="0 0 52 407" overflow="visible" enable-background="new 0 0 52 407"
	 xml:space="preserve">
<defs>
</defs>
<polyline fill="#31ABFF" stroke="#31ABFF" stroke-width="0.7906" stroke-miterlimit="10" stroke-opacity="0.64" points="
	51.662,401.376 51.662,406.717 19.789,406.717 19.789,392.829 51.662,392.829 51.662,401.376 "/>
<polyline fill="#31ABFF" stroke="#31ABFF" stroke-width="0.7906" stroke-miterlimit="10" stroke-opacity="0.64" points="
	51.662,384.313 51.662,389.654 19.789,389.654 19.789,375.767 51.662,375.767 51.662,384.313 "/>
<polyline fill="#31ABFF" stroke="#31ABFF" stroke-width="0.7906" stroke-miterlimit="10" stroke-opacity="0.64" points="
	51.662,367.251 51.662,372.592 19.789,372.592 19.789,358.704 51.662,358.704 51.662,367.251 "/>
<polyline fill="#31ABFF" stroke="#31ABFF" stroke-width="0.7906" stroke-miterlimit="10" stroke-opacity="0.64" points="
	51.662,350.188 51.662,355.529 19.789,355.529 19.789,341.642 51.662,341.642 51.662,350.188 "/>
<polyline fill="#31ABFF" stroke="#31ABFF" stroke-width="0.7906" stroke-miterlimit="10" stroke-opacity="0.64" points="
	51.662,333.125 51.662,338.468 19.789,338.468 19.789,324.579 51.662,324.579 51.662,333.125 "/>
<polyline fill="#31ABFF" stroke="#31ABFF" stroke-width="0.7906" stroke-miterlimit="10" stroke-opacity="0.64" points="
	51.662,316.063 51.662,321.406 19.789,321.406 19.789,307.518 51.662,307.518 51.662,316.063 "/>
<polyline fill="#31ABFF" stroke="#31ABFF" stroke-width="0.7906" stroke-miterlimit="10" stroke-opacity="0.64" points="
	51.662,299.001 51.662,304.343 19.789,304.343 19.789,290.454 51.662,290.454 51.662,299.001 "/>
<polyline fill="#31ABFF" stroke="#31ABFF" stroke-width="0.7906" stroke-miterlimit="10" stroke-opacity="0.64" points="
	51.662,281.939 51.662,287.281 19.789,287.281 19.789,273.393 51.662,273.393 51.662,281.939 "/>
<polyline fill="#31ABFF" stroke="#31ABFF" stroke-width="0.7906" stroke-miterlimit="10" stroke-opacity="0.64" points="
	51.662,264.877 51.662,270.218 19.789,270.218 19.789,256.33 51.662,256.33 51.662,264.877 "/>
<polyline fill="#31ABFF" stroke="#31ABFF" stroke-width="0.7906" stroke-miterlimit="10" stroke-opacity="0.64" points="
	51.662,247.814 51.662,253.155 19.789,253.155 19.789,239.268 51.662,239.268 51.662,247.814 "/>
<polyline fill="#31ABFF" stroke="#31ABFF" stroke-width="0.7906" stroke-miterlimit="10" stroke-opacity="0.64" points="
	51.662,230.752 51.662,236.094 19.789,236.094 19.789,222.205 51.662,222.205 51.662,230.752 "/>
<polyline fill="#31ABFF" stroke="#31ABFF" stroke-width="0.7906" stroke-miterlimit="10" stroke-opacity="0.64" points="
	51.662,213.69 51.662,219.032 19.789,219.032 19.789,205.145 51.662,205.145 51.662,213.69 "/>
<polyline fill="#31ABFF" stroke="#31ABFF" stroke-width="0.7906" stroke-miterlimit="10" stroke-opacity="0.64" points="
	51.662,196.626 51.662,201.97 19.789,201.97 19.789,188.08 51.662,188.08 51.662,196.626 "/>
<polyline fill="#31ABFF" stroke="#31ABFF" stroke-width="0.7906" stroke-miterlimit="10" stroke-opacity="0.64" points="
	51.662,179.564 51.662,184.906 19.789,184.906 19.789,171.019 51.662,171.019 51.662,179.564 "/>
<polyline fill="#31ABFF" stroke="#31ABFF" stroke-width="0.7906" stroke-miterlimit="10" stroke-opacity="0.64" points="
	51.662,162.504 51.662,167.845 19.789,167.845 19.789,153.957 51.662,153.957 51.662,162.504 "/>
<polyline fill="#31ABFF" stroke="#31ABFF" stroke-width="0.7906" stroke-miterlimit="10" stroke-opacity="0.64" points="
	51.662,145.44 51.662,150.782 19.789,150.782 19.789,136.894 51.662,136.894 51.662,145.44 "/>
<polyline fill="#31ABFF" stroke="#31ABFF" stroke-width="0.7906" stroke-miterlimit="10" stroke-opacity="0.64" points="
	51.662,128.38 51.662,133.72 19.789,133.72 19.789,119.832 51.662,119.832 51.662,128.38 "/>
<polyline fill="#31ABFF" stroke="#31ABFF" stroke-width="0.7906" stroke-miterlimit="10" stroke-opacity="0.64" points="
	51.662,111.315 51.662,116.657 19.789,116.657 19.789,102.77 51.662,102.77 51.662,111.315 "/>
<polyline fill="#31ABFF" stroke="#31ABFF" stroke-width="0.7906" stroke-miterlimit="10" stroke-opacity="0.64" points="
	51.662,94.254 51.662,99.597 19.789,99.597 19.789,85.706 51.662,85.706 51.662,94.254 "/>
<polyline fill="#31ABFF" stroke="#31ABFF" stroke-width="0.7906" stroke-miterlimit="10" stroke-opacity="0.64" points="
	51.662,77.19 51.662,82.534 19.789,82.534 19.789,68.646 51.662,68.646 51.662,77.19 "/>
<polyline fill="#31ABFF" stroke="#31ABFF" stroke-width="0.7906" stroke-miterlimit="10" stroke-opacity="0.64" points="
	51.662,60.131 51.662,65.471 19.789,65.471 19.789,51.583 51.662,51.583 51.662,60.131 "/>
<polyline fill="#31ABFF" stroke="#31ABFF" stroke-width="0.7906" stroke-miterlimit="10" stroke-opacity="0.64" points="
	51.662,43.068 51.662,48.408 19.789,48.408 19.789,34.521 51.662,34.521 51.662,43.068 "/>
<polyline fill="#31ABFF" stroke="#31ABFF" stroke-width="0.7906" stroke-miterlimit="10" stroke-opacity="0.64" points="
	51.662,26.006 51.662,31.346 19.789,31.346 19.789,17.457 51.662,17.457 51.662,26.006 "/>
<polyline fill="#31ABFF" stroke="#31ABFF" stroke-width="0.7906" stroke-miterlimit="10" stroke-opacity="0.64" points="
	51.662,8.942 51.662,14.283 19.789,14.283 19.789,0.396 51.662,0.396 51.662,8.942 "/>
<line fill="#31ABFF" stroke="#31ABFF" stroke-width="2" stroke-miterlimit="10" x1="1" y1="0.396" x2="1" y2="406.396"/>
</svg>
