<?xml version="1.0" encoding="utf-8"?>
<!-- Generator: Adobe Illustrator 15.1.0, SVG Export Plug-In  -->
<!DOCTYPE svg PUBLIC "-//W3C//DTD SVG 1.1//EN" "http://www.w3.org/Graphics/SVG/1.1/DTD/svg11.dtd" [
	<!ENTITY ns_flows "http://ns.adobe.com/Flows/1.0/">
]>
<svg version="1.1"
	 xmlns="http://www.w3.org/2000/svg" xmlns:xlink="http://www.w3.org/1999/xlink" xmlns:a="http://ns.adobe.com/AdobeSVGViewerExtensions/3.0/"
	 x="0px" y="0px" width="112px" height="88px" viewBox="435 763 112 88" overflow="visible" enable-background="new 435 763 112 88"
	 xml:space="preserve">
<defs>
</defs>
<linearGradient id="SVGID_1_" gradientUnits="userSpaceOnUse" x1="360.0005" y1="946" x2="360.0005" y2="46.8912">
	<stop  offset="0" style="stop-color:#041724"/>
	<stop  offset="1" style="stop-color:#000000"/>
</linearGradient>
<rect display="none" fill="url(#SVGID_1_)" width="720" height="1001"/>
<rect x="436" y="763.898" display="none" fill="#31ABFF" fill-opacity="0.29" stroke="#31ABFF" stroke-width="0.8472" stroke-miterlimit="10" stroke-opacity="0.64" width="110.5" height="86.564"/>
<rect x="436" y="763.898" fill="#31ABFF" fill-opacity="0.29" stroke="#31ABFF" stroke-width="0.8472" stroke-miterlimit="10" stroke-opacity="0.64" width="110.5" height="86.564"/>
<path fill="#31ABFF" d="M514.131,826.643c-3.802,0-6.805-2.762-7.491-6.643h-36.89l-0.288-0.267
	c-0.001-0.001-0.14-0.118-0.378-0.207c-0.67,3.742-3.627,6.275-7.49,6.275c-3.139,0-5.975-2.248-7.111-5.55
	c-0.756-0.104-2.004-0.408-2.382-1.285c-0.201-0.149-0.754-0.397-1.168-0.582c-0.407-0.183-0.849-0.381-1.282-0.606
	c-2.414-1.254-1.729-8.888-1.72-8.964c0.161-1.382,0.531-2.293,0.89-3.174c0.177-0.433,0.343-0.843,0.483-1.307
	c0.549-1.818,1.523-2.813,3.861-3.943c2.149-1.037,15.707-2.548,18.307-2.83c3.779-2.869,9.729-7.446,10.271-8.022
	c1.157-1.23,4.437-2.538,8.234-2.538l26.05,0.006c9.494,1.015,10.105,1.434,10.336,1.591c0.786,0.536,0.847,1.467,0.54,2.311
	c0.687,1.097,2.569,4.021,4.767,6.741c1.461,0.885,1.531,2.373,1.33,3.196v7.488l1,0.582v5.14l-0.585,0.268
	c-0.036,0.016-3.613,1.644-7.973,3.282c-0.968,0.364-2.258,0.652-3.696,0.831C521.42,823.025,518.129,826.643,514.131,826.643z
	 M507.505,817.287l0.982,0.014l0.004,1.069c0.034,3.573,2.571,6.272,5.753,6.272c3.059,0,5.756-3.186,5.756-6.957v-0.915
	l0.795-0.232c1.619-0.145,3.003-0.431,4.001-0.806c3.269-1.229,6.028-2.448,7.204-2.969v-2.698l-1-0.582v-8.937l0.051-0.153
	c0.059-0.202,0.137-0.747-0.504-1.084l-0.181-0.095l-0.129-0.158c-2.904-3.565-5.227-7.404-5.324-7.565l-0.309-0.512l0.305-0.515
	c0.04-0.07,0.08-0.161,0.111-0.246c-1.274-0.287-5.417-0.818-9.153-1.219h-25.89c-3.521,0-6.151,1.243-6.777,1.908
	c-0.832,0.884-9.093,7.164-10.74,8.414l-0.222,0.168l-0.276,0.029c-6.159,0.661-16.474,1.971-17.927,2.672
	c-1.999,0.966-2.484,1.62-2.817,2.721c-0.167,0.554-0.359,1.026-0.545,1.482c-0.322,0.792-0.626,1.539-0.756,2.651
	c-0.272,2.331,0.044,6.406,0.688,6.979c0.364,0.186,0.771,0.367,1.146,0.535c1.043,0.467,1.824,0.817,2.134,1.477
	c0.271,0.135,0.93,0.27,1.196,0.27l0.85-0.081l0.274,0.816c0.726,2.803,2.941,4.761,5.389,4.761c3.197,0,5.402-2.127,5.617-5.419
	l0.054-0.82l0.815-0.106c1.108-0.142,1.945,0.255,2.391,0.544h36.02l-0.003-0.64L507.505,817.287z"/>
<path fill="#31ABFF" d="M516.809,806.604L507,799.77V804h-15.43c-2.553,0-3.57-1.224-3.57-2v-6h-5v6.131l0.354,0.112
	c0.197,2.366,2.441,6.757,8.217,6.757H507v4.439L516.809,806.604z"/>
<linearGradient id="SVGID_3_" gradientUnits="userSpaceOnUse" x1="491" y1="765.6836" x2="491" y2="849.0061">
	<stop  offset="0.5092" style="stop-color:#31ABFF;stop-opacity:0"/>
	<stop  offset="0.9018" style="stop-color:#31ABFF"/>
	<stop  offset="1" style="stop-color:#63E6FF"/>
</linearGradient>
<rect x="435.5" y="763.5" display="none" fill="url(#SVGID_3_)" stroke="#31ABFF" stroke-miterlimit="10" width="111" height="87"/>
<path display="none" fill="#FFFFFF" d="M514.131,826.643c-3.802,0-6.805-2.762-7.491-6.643h-36.89l-0.288-0.267
	c-0.001-0.001-0.14-0.118-0.378-0.207c-0.67,3.742-3.627,6.275-7.49,6.275c-3.139,0-5.975-2.248-7.111-5.55
	c-0.756-0.104-2.004-0.408-2.382-1.285c-0.201-0.149-0.754-0.397-1.168-0.582c-0.407-0.183-0.849-0.381-1.282-0.606
	c-2.414-1.254-1.729-8.888-1.72-8.964c0.161-1.382,0.531-2.293,0.89-3.174c0.177-0.433,0.343-0.843,0.483-1.307
	c0.549-1.818,1.523-2.813,3.861-3.943c2.149-1.037,15.707-2.548,18.307-2.83c3.779-2.869,9.729-7.446,10.271-8.022
	c1.157-1.23,4.437-2.538,8.234-2.538l26.05,0.006c9.494,1.015,10.105,1.434,10.336,1.591c0.786,0.536,0.847,1.467,0.54,2.311
	c0.687,1.097,2.569,4.021,4.767,6.741c1.461,0.885,1.531,2.373,1.33,3.196v7.488l1,0.582v5.14l-0.585,0.268
	c-0.036,0.016-3.613,1.644-7.973,3.282c-0.968,0.364-2.258,0.652-3.696,0.831C521.42,823.025,518.129,826.643,514.131,826.643z
	 M507.505,817.287l0.982,0.014l0.004,1.069c0.034,3.573,2.571,6.272,5.753,6.272c3.059,0,5.756-3.186,5.756-6.957v-0.915
	l0.795-0.232c1.619-0.145,3.003-0.431,4.001-0.806c3.269-1.229,6.028-2.448,7.204-2.969v-2.698l-1-0.582v-8.937l0.051-0.153
	c0.059-0.202,0.137-0.747-0.504-1.084l-0.181-0.095l-0.129-0.158c-2.904-3.565-5.227-7.404-5.324-7.565l-0.309-0.512l0.305-0.515
	c0.04-0.07,0.08-0.161,0.111-0.246c-1.274-0.287-5.417-0.818-9.153-1.219h-25.89c-3.521,0-6.151,1.243-6.777,1.908
	c-0.832,0.884-9.093,7.164-10.74,8.414l-0.222,0.168l-0.276,0.029c-6.159,0.661-16.474,1.971-17.927,2.672
	c-1.999,0.966-2.484,1.62-2.817,2.721c-0.167,0.554-0.359,1.026-0.545,1.482c-0.322,0.792-0.626,1.539-0.756,2.651
	c-0.272,2.331,0.044,6.406,0.688,6.979c0.364,0.186,0.771,0.367,1.146,0.535c1.043,0.467,1.824,0.817,2.134,1.477
	c0.271,0.135,0.93,0.27,1.196,0.27l0.85-0.081l0.274,0.816c0.726,2.803,2.941,4.761,5.389,4.761c3.197,0,5.402-2.127,5.617-5.419
	l0.054-0.82l0.815-0.106c1.108-0.142,1.945,0.255,2.391,0.544h36.02l-0.003-0.64L507.505,817.287z"/>
<path display="none" fill="#FFFFFF" d="M516.809,806.604L507,799.77V804h-15.43c-2.553,0-3.57-1.224-3.57-2v-6h-5v6.131l0.354,0.112
	c0.197,2.366,2.441,6.757,8.217,6.757H507v4.439L516.809,806.604z"/>
<path display="none" fill="none" stroke="#31ABFF" stroke-width="2" stroke-miterlimit="10" d="M532,808.908v-8.2
	c0,0,0.497-1.502-0.987-2.283c-2.894-3.552-5.243-7.45-5.243-7.45s0.663-1.12,0.029-1.553c-0.634-0.434-9.878-1.422-9.878-1.422
	h-25.943c-3.783,0-6.69,1.356-7.506,2.224c-0.816,0.867-10.616,8.302-10.616,8.302s-16.104,1.728-18.255,2.766
	c-2.152,1.04-2.896,1.86-3.34,3.332c-0.445,1.474-1.115,2.401-1.337,4.308c-0.223,1.906-0.148,7.267,1.187,7.96
	c1.336,0.692,2.746,1.118,2.895,1.64c0.148,0.52,1.631,0.775,2.076,0.775c0.021,0,0.074-0.007,0.156-0.015
	c0.824,3.188,3.357,5.511,6.356,5.511c3.494,0,6.354-2.351,6.615-6.354c1.175-0.152,1.934,0.552,1.934,0.552h35.02h2.332
	c0,0-0.003-0.743-0.003-0.713c0,4.284,2.972,7.355,6.64,7.355c3.669,0,6.642-3.674,6.642-7.957c0-0.019-0.002-0.135-0.002-0.151
	c1.686-0.15,3.226-0.454,4.32-0.865c4.378-1.646,7.909-3.257,7.909-3.257v-3.922L532,808.908z"/>
<path display="none" fill="#31ABFF" d="M516.809,806.604L507,799.77V804h-15.43c-2.553,0-3.57-1.224-3.57-2v-6h-5v6.131l0.354,0.112
	c0.197,2.366,2.441,6.757,8.217,6.757H507v4.439L516.809,806.604z"/>
</svg>
