<?xml version="1.0" encoding="utf-8"?>
<!-- Generator: Adobe Illustrator 15.1.0, SVG Export Plug-In  -->
<!DOCTYPE svg PUBLIC "-//W3C//DTD SVG 1.1//EN" "http://www.w3.org/Graphics/SVG/1.1/DTD/svg11.dtd" [
	<!ENTITY ns_flows "http://ns.adobe.com/Flows/1.0/">
]>
<svg version="1.1"
	 xmlns="http://www.w3.org/2000/svg" xmlns:xlink="http://www.w3.org/1999/xlink" xmlns:a="http://ns.adobe.com/AdobeSVGViewerExtensions/3.0/"
	 x="0px" y="0px" width="147px" height="80px" viewBox="0 0 147 80" overflow="visible" enable-background="new 0 0 147 80"
	 xml:space="preserve">
<defs>
</defs>
<g>
	<rect opacity="0.29" fill="#31ABFF" width="147" height="80"/>
	<g opacity="0.64">
		<path fill="#31ABFF" d="M146,1v78H1V1H146 M147,0H0v80h147V0L147,0z"/>
	</g>
</g>
<g>
	<linearGradient id="SVGID_2_" gradientUnits="userSpaceOnUse" x1="73" y1="0.6396" x2="73" y2="80.5088">
		<stop  offset="0.5092" style="stop-color:#31ABFF;stop-opacity:0"/>
		<stop  offset="0.9018" style="stop-color:#31ABFF"/>
		<stop  offset="1" style="stop-color:#63E6FF"/>
	</linearGradient>
	<rect fill="url(#SVGID_2_)" width="146" height="79"/>
	<path fill="#31ABFF" d="M146,1v78H1V1H146 M147,0H0v80h147V0L147,0z"/>
</g>
<path fill="#FFFFFF" d="M51,7v43h43V7H51z M90,11v19h-7.752c-1.377-1-4.383-3.271-5.349-3.865L76.473,26h-9.589l-0.3-0.068
	C66.277,26.047,63.98,27,62.1,28H55V11H90z M72.31,37.327l-7.004-7.078C66.147,29.802,66.996,30,67.538,29h7.928
	c1.091,1,2.267,1.714,3.122,2.382L72.31,37.327z M55,32h6.594l9.283,9.072L74,46H55V32z M78.188,46l-3.633-5.684L81.562,34H90v12
	H78.188z"/>
<path fill="#FFFFFF" d="M48,64h5v-2h-5v-3h7v-2H45v13h10v-2h-7V64z M68.089,63.157c0.554-0.598,0.83-1.361,0.83-2.316
	c0-1.158-0.416-2.181-1.248-2.796C66.769,57.355,65.753,57,63.534,57H58v13h3v-5h1.816l3.491,5h3.189l-3.789-5.494
	C66.976,64.227,67.508,63.753,68.089,63.157z M63.257,63H61v-4h2.257c1.894,0,2.657,0.77,2.657,1.943
	C65.914,62.174,65.106,63,63.257,63z M73,70h3V57h-3V70z M91.76,58.939C90.259,57.652,88.454,57,85.564,57H80v13h5.542
	c2.75,0,4.762-0.809,6.172-2.021c1.34-1.158,2.102-2.914,2.102-4.557C93.815,61.818,93.076,60.076,91.76,58.939z M85.263,68H83v-9
	h2.263c1.666,0,2.847,0.412,3.654,0.895c1.088,0.652,1.756,2.272,1.756,3.671C90.673,66.196,88.731,68,85.263,68z M97,70h3V57h-3V70
	z M108.059,57l-5.524,13h3.049l1.249-3h5.11l1.201,3h3.049l-5.521-13H108.059z M107.62,65l1.756-4.461L111.154,65H107.62z
	 M30.961,64.561L30.956,57H28.03L13.137,73h3.513L28,60.794V70h2.153L38,60.802V70h3V57h-2.994L30.961,64.561z M129,57v9.28
	c0,0-0.171-0.794-0.394-1.05L122.39,57H119v13h3v-9.333c0,0.205,0.174,0.659,0.619,1.206L129.072,70H132V57H129z"/>
</svg>
