<?xml version="1.0" encoding="utf-8"?>
<!-- Generator: Adobe Illustrator 15.1.0, SVG Export Plug-In  -->
<!DOCTYPE svg PUBLIC "-//W3C//DTD SVG 1.1//EN" "http://www.w3.org/Graphics/SVG/1.1/DTD/svg11.dtd" [
	<!ENTITY ns_flows "http://ns.adobe.com/Flows/1.0/">
]>
<svg version="1.1"
	 xmlns="http://www.w3.org/2000/svg" xmlns:xlink="http://www.w3.org/1999/xlink" xmlns:a="http://ns.adobe.com/AdobeSVGViewerExtensions/3.0/"
	 x="0px" y="0px" width="104px" height="56px" viewBox="0 0 104 56" overflow="visible" enable-background="new 0 0 104 56"
	 xml:space="preserve">
<defs>
</defs>
<g>
	<rect opacity="0.29" fill="#31ABFF" width="104" height="56"/>
	<g opacity="0.64">
		<path fill="#31ABFF" d="M103,1v54H1V1H103 M104,0H0v56h104V0L104,0z"/>
	</g>
</g>
<g>
	<linearGradient id="SVGID_2_" gradientUnits="userSpaceOnUse" x1="52" y1="2.6387" x2="52" y2="54.9249">
		<stop  offset="0.5092" style="stop-color:#31ABFF;stop-opacity:0"/>
		<stop  offset="0.9018" style="stop-color:#31ABFF"/>
		<stop  offset="1" style="stop-color:#63E6FF"/>
	</linearGradient>
	<rect x="1" y="1" fill="url(#SVGID_2_)" width="102" height="55"/>
	<path fill="#31ABFF" d="M103,1v54H1V1H103 M104,0H0v56h104V0L104,0z"/>
</g>
<path fill="#FFFFFF" d="M51.974,28.059c0,6.279-3.807,10.086-9.404,10.086c-5.682,0-9.006-4.29-9.006-9.745
	c0-5.739,3.664-10.029,9.318-10.029C48.763,18.371,51.974,22.775,51.974,28.059z M38.138,28.315c0,3.75,1.762,6.393,4.658,6.393
	c2.928,0,4.604-2.784,4.604-6.507c0-3.438-1.648-6.393-4.631-6.393C39.843,21.808,38.138,24.593,38.138,28.315z"/>
<path fill="#FFFFFF" d="M55,38V19h4.874l3.977,6.727C64.987,27.745,66.124,30,66.976,32h0.086C66.778,30,67,27.15,67,24.281V19h4v19
	h-4.876l-4.092-7.471c-1.137-2.046-2.387-4.559-3.324-6.803l0.019,0.007C58.84,26.262,59,28.94,59,32.065V38H55z"/>
</svg>
