<?xml version="1.0" encoding="utf-8"?>
<!-- Generator: Adobe Illustrator 15.1.0, SVG Export Plug-In  -->
<!DOCTYPE svg PUBLIC "-//W3C//DTD SVG 1.1//EN" "http://www.w3.org/Graphics/SVG/1.1/DTD/svg11.dtd" [
	<!ENTITY ns_flows "http://ns.adobe.com/Flows/1.0/">
]>
<svg version="1.1"
	 xmlns="http://www.w3.org/2000/svg" xmlns:xlink="http://www.w3.org/1999/xlink" xmlns:a="http://ns.adobe.com/AdobeSVGViewerExtensions/3.0/"
	 x="0px" y="0px" width="194px" height="58px" viewBox="0 0 194 58" overflow="visible" enable-background="new 0 0 194 58"
	 xml:space="preserve">
<defs>
</defs>
<rect x="0.343" y="0.682" fill="#31ABFF" fill-opacity="0.29" stroke="#31ABFF" stroke-width="0.6866" stroke-miterlimit="10" stroke-opacity="0.64" width="192.838" height="56.473"/>
<linearGradient id="SVGID_1_" gradientUnits="userSpaceOnUse" x1="97" y1="2.2344" x2="97" y2="55.2772">
	<stop  offset="0.5092" style="stop-color:#31ABFF;stop-opacity:0"/>
	<stop  offset="0.9018" style="stop-color:#31ABFF"/>
	<stop  offset="1" style="stop-color:#63E6FF"/>
</linearGradient>
<rect x="0.5" y="0.5" fill="url(#SVGID_1_)" stroke="#31ABFF" stroke-miterlimit="10" width="193" height="57"/>
<g>
	<polygon opacity="0.5" fill="#FFFFFF" points="84.708,41 96.807,17.226 108.905,41 	"/>
	<path fill="#FFFFFF" d="M96.807,20.032L106.459,39H87.154L96.807,20.032 M96.807,14.758c-0.355,0-0.71,0.265-0.979,0.794
		L83.241,40.18C82.702,41.238,83.233,42,84.422,42h24.77c1.188,0,1.72-0.762,1.181-1.82L97.786,15.5
		C97.517,14.971,97.162,14.758,96.807,14.758L96.807,14.758z"/>
</g>
</svg>
