<?xml version="1.0" encoding="utf-8"?>
<!-- Generator: Adobe Illustrator 15.1.0, SVG Export Plug-In  -->
<!DOCTYPE svg PUBLIC "-//W3C//DTD SVG 1.1//EN" "http://www.w3.org/Graphics/SVG/1.1/DTD/svg11.dtd" [
	<!ENTITY ns_flows "http://ns.adobe.com/Flows/1.0/">
]>
<svg version="1.1"
	 xmlns="http://www.w3.org/2000/svg" xmlns:xlink="http://www.w3.org/1999/xlink" xmlns:a="http://ns.adobe.com/AdobeSVGViewerExtensions/3.0/"
	 x="0px" y="0px" width="328px" height="17px" viewBox="78.36 221.526 328 17"
	 overflow="visible" enable-background="new 78.36 221.526 328 17" xml:space="preserve">
<defs>
</defs>
<rect x="78.36" y="222.518" fill="#31ABFF" width="145" height="15"/>
<g>
	<g>
		<path fill="#31ABFF" d="M238.101,221.993c0.934-0.187,2.824-0.327,4.6-0.327c2.17,0,3.502,0.21,4.645,0.887
			c1.098,0.584,1.892,1.658,1.892,3.082c0,1.401-0.817,2.708-2.591,3.362v0.047c1.797,0.49,3.128,1.844,3.128,3.875
			c0,1.424-0.653,2.544-1.634,3.338c-1.145,0.911-3.059,1.424-6.188,1.424c-1.75,0-3.059-0.117-3.852-0.233V221.993z
			 M241.626,228.016h1.167c1.868,0,2.872-0.771,2.872-1.938c0-1.191-0.911-1.821-2.521-1.821c-0.771,0-1.215,0.047-1.518,0.094
			V228.016z M241.626,234.997c0.35,0.047,0.77,0.047,1.377,0.047c1.611,0,3.035-0.607,3.035-2.265c0-1.587-1.424-2.218-3.198-2.218
			h-1.214V234.997z"/>
		<path fill="#31ABFF" d="M255.771,233.479l-1.121,4.039h-3.688l4.809-15.735h4.67l4.879,15.735h-3.829l-1.214-4.039H255.771z
			 M259.763,230.818l-0.98-3.338c-0.28-0.934-0.561-2.101-0.794-3.035h-0.046c-0.234,0.934-0.468,2.125-0.725,3.035l-0.934,3.338
			H259.763z"/>
		<path fill="#31ABFF" d="M267.418,221.783h3.571v12.747h6.258v2.988h-9.829V221.783z"/>
		<path fill="#31ABFF" d="M283.15,233.479l-1.12,4.039h-3.689l4.81-15.735h4.669l4.88,15.735h-3.829l-1.214-4.039H283.15z
			 M287.143,230.818l-0.98-3.338c-0.28-0.934-0.561-2.101-0.794-3.035h-0.047c-0.232,0.934-0.467,2.125-0.723,3.035l-0.935,3.338
			H287.143z"/>
		<path fill="#31ABFF" d="M294.798,237.518v-15.735h4.154l3.27,5.767c0.934,1.658,1.867,3.619,2.567,5.393h0.07
			c-0.233-2.078-0.304-4.203-0.304-6.561v-4.599h3.269v15.735h-3.735l-3.361-6.07c-0.935-1.681-1.961-3.712-2.732-5.557
			l-0.069,0.023c0.093,2.078,0.14,4.296,0.14,6.864v4.739H294.798z"/>
		<path fill="#31ABFF" d="M322.459,237.075c-0.653,0.327-2.124,0.677-4.038,0.677c-5.439,0-8.242-3.385-8.242-7.868
			c0-5.37,3.829-8.358,8.592-8.358c1.845,0,3.245,0.374,3.876,0.701l-0.724,2.825c-0.725-0.303-1.729-0.583-2.988-0.583
			c-2.825,0-5.02,1.704-5.02,5.206c0,3.152,1.867,5.136,5.042,5.136c1.074,0,2.265-0.233,2.966-0.514L322.459,237.075z"/>
		<path fill="#31ABFF" d="M334.152,230.864h-5.79v3.735h6.467v2.918h-10.038v-15.735h9.712v2.918h-6.141v3.269h5.79V230.864z"/>
		<path fill="#31ABFF" d="M340.804,238.452l4.995-16.926h2.358l-4.996,16.926H340.804z"/>
		<path fill="#31ABFF" d="M354.412,221.783h9.618v2.918h-6.047v3.595h5.65v2.895h-5.65v6.327h-3.571V221.783z"/>
		<path fill="#31ABFF" d="M368.814,233.479l-1.12,4.039h-3.689l4.81-15.735h4.669l4.88,15.735h-3.829l-1.214-4.039H368.814z
			 M372.807,230.818l-0.98-3.338c-0.28-0.934-0.561-2.101-0.794-3.035h-0.047c-0.233,0.934-0.467,2.125-0.724,3.035l-0.934,3.338
			H372.807z"/>
		<path fill="#31ABFF" d="M380.462,221.993c1.308-0.21,3.012-0.327,4.809-0.327c2.988,0,4.927,0.537,6.444,1.681
			c1.634,1.214,2.661,3.151,2.661,5.93c0,3.012-1.098,5.089-2.615,6.374c-1.657,1.377-4.179,2.031-7.26,2.031
			c-1.845,0-3.152-0.117-4.039-0.233V221.993z M384.033,234.833c0.304,0.07,0.794,0.07,1.237,0.07
			c3.223,0.023,5.323-1.751,5.323-5.51c0.023-3.268-1.891-4.996-4.949-4.996c-0.794,0-1.308,0.07-1.611,0.14V234.833z"/>
		<path fill="#31ABFF" d="M406.069,230.864h-5.79v3.735h6.468v2.918h-10.039v-15.735h9.712v2.918h-6.141v3.269h5.79V230.864z"/>
	</g>
</g>
<g>
	<defs>
		<rect id="SVGID_1_" x="137.36" y="329.518" width="215" height="476"/>
	</defs>
	<clipPath id="SVGID_2_">
		<use xlink:href="#SVGID_1_"  overflow="visible"/>
	</clipPath>
	<g clip-path="url(#SVGID_2_)">
		<path fill="none" stroke="#E3F6FF" stroke-miterlimit="10" d="M226.893,601.068v-30.766l0.574-0.626
			c5.102-5.575,11.525-8.521,18.576-8.521c7.201,0,14.201,3.129,18.268,8.164l0.484,0.603v31.525l-0.484,0.603
			c-4.066,5.035-11.064,8.164-18.268,8.164c-7.051,0-13.475-2.947-18.576-8.521L226.893,601.068z"/>
		<path fill="#31ABFF" fill-opacity="0.3" d="M231.266,572.021v27.327c4.15,4.251,9.244,6.493,14.777,6.493
			c5.629,0,11.062-2.271,14.379-5.97v-28.373c-3.316-3.698-8.75-5.97-14.379-5.97C240.51,565.529,235.416,567.77,231.266,572.021z"
			/>
		<linearGradient id="SVGID_3_" gradientUnits="userSpaceOnUse" x1="245.8428" y1="584.7124" x2="245.8428" y2="561.9611">
			<stop  offset="0" style="stop-color:#D4EEFF;stop-opacity:0"/>
			<stop  offset="1" style="stop-color:#D4EEFF"/>
		</linearGradient>
		<rect x="245.343" fill="url(#SVGID_3_)" width="1" height="585.341"/>
		<linearGradient id="SVGID_4_" gradientUnits="userSpaceOnUse" x1="245.8428" y1="585.8413" x2="245.8428" y2="609.6124">
			<stop  offset="0" style="stop-color:#D4EEFF;stop-opacity:0"/>
			<stop  offset="1" style="stop-color:#D4EEFF"/>
		</linearGradient>
		<rect x="245.343" y="585.841" fill="url(#SVGID_4_)" width="1" height="475.844"/>
		<linearGradient id="SVGID_5_" gradientUnits="userSpaceOnUse" x1="245.2422" y1="585.8413" x2="265.2437" y2="585.8413">
			<stop  offset="0" style="stop-color:#D4EEFF;stop-opacity:0"/>
			<stop  offset="1" style="stop-color:#D4EEFF"/>
		</linearGradient>
		<rect x="246.343" y="585.341" fill="url(#SVGID_5_)" width="295.342" height="1"/>
		<linearGradient id="SVGID_6_" gradientUnits="userSpaceOnUse" x1="246.9922" y1="585.8413" x2="226.2407" y2="585.8413">
			<stop  offset="0" style="stop-color:#D4EEFF;stop-opacity:0"/>
			<stop  offset="1" style="stop-color:#D4EEFF"/>
		</linearGradient>
		<rect y="585.341" fill="url(#SVGID_6_)" width="246.343" height="1"/>
	</g>
</g>
</svg>
