<?xml version="1.0" encoding="UTF-8" standalone="no"?>
<!-- Generator: Adobe Illustrator 15.1.0, SVG Export Plug-In  -->

<svg
   xmlns:dc="http://purl.org/dc/elements/1.1/"
   xmlns:cc="http://creativecommons.org/ns#"
   xmlns:rdf="http://www.w3.org/1999/02/22-rdf-syntax-ns#"
   xmlns:svg="http://www.w3.org/2000/svg"
   xmlns="http://www.w3.org/2000/svg"
   xmlns:sodipodi="http://sodipodi.sourceforge.net/DTD/sodipodi-0.dtd"
   xmlns:inkscape="http://www.inkscape.org/namespaces/inkscape"
   version="1.1"
   x="0px"
   y="0px"
   width="147px"
   height="80px"
   viewBox="0 0 147 80"
   overflow="visible"
   enable-background="new 0 0 147 80"
   xml:space="preserve"
   id="svg3268"
   inkscape:version="0.48.4 r9939"
   sodipodi:docname="dolby_147_80.svg"><metadata
     id="metadata3320"><rdf:RDF><cc:Work
         rdf:about=""><dc:format>image/svg+xml</dc:format><dc:type
           rdf:resource="http://purl.org/dc/dcmitype/StillImage" /></cc:Work></rdf:RDF></metadata><sodipodi:namedview
     pagecolor="#ffffff"
     bordercolor="#666666"
     borderopacity="1"
     objecttolerance="10"
     gridtolerance="10"
     guidetolerance="10"
     inkscape:pageopacity="0"
     inkscape:pageshadow="2"
     inkscape:window-width="1727"
     inkscape:window-height="1320"
     id="namedview3318"
     showgrid="false"
     inkscape:zoom="4.4214807"
     inkscape:cx="51.269821"
     inkscape:cy="7.2485175"
     inkscape:window-x="65"
     inkscape:window-y="24"
     inkscape:window-maximized="1"
     inkscape:current-layer="svg3268" /><defs
     id="defs3270" /><g
     id="g9392"
     transform="matrix(0.51433152,0,0,0.51433152,4.2239161,25.850483)"
     style="fill:#51b5ce;fill-opacity:1"><path
       id="path9350"
       d="M 213.808,1 207.409,13.046 201.227,1 h -5.793 c 1.081,2.04 8.656,16.86 8.656,16.86 v 9.769 h 6.226 c 0.004,-1.328 0,-9.732 0,-9.732 0,0 7.868,-14.848 8.982,-16.897 h -5.49 z"
       inkscape:connector-curvature="0"
       style="fill:#51b5ce;fill-opacity:1" /><path
       id="path9352"
       d="m 139.384,18.37 c 0,4.884 -1.658,5.998 -6.313,5.998 -4.655,0 -6.309,-1.113 -6.309,-5.998 v -8.244 c 0,-4.764 1.654,-5.797 6.309,-5.797 4.653,0 6.313,1.031 6.313,5.797 V 18.37 z M 142.051,2.012 C 140.21,0.689 137.104,0 133.068,0 129.13,0 126.262,0.564 124.07,2.021 121.779,3.547 120.7,6.1 120.7,10.089 v 8.667 c 0,3.998 1.119,6.701 3.349,8.046 1.798,1.289 4.731,1.901 9.021,1.901 4.225,0 7.24,-0.63 8.971,-1.87 2.234,-1.427 3.398,-4.206 3.398,-8.077 v -8.667 c 0,-3.798 -1.143,-6.517 -3.388,-8.077"
       inkscape:connector-curvature="0"
       style="fill:#51b5ce;fill-opacity:1" /><path
       id="path9354"
       d="m 109.767,17.2 c 0,4.527 -2.529,5.672 -4.65,5.672 H 97.619 V 4.797 h 7.498 c 2.122,0 4.65,1.138 4.65,5.354 V 17.2 z M 105.066,1 h -13.56 v 25.864 h 14.512 c 7.152,0 9.814,-2.788 9.814,-10.288 V 10.89 C 115.833,3.774 112.81,1 105.066,1"
       inkscape:connector-curvature="0"
       style="fill:#51b5ce;fill-opacity:1" /><polygon
       id="polygon9356"
       points="167.375,27.247 167.375,22.877 156.173,22.877 156.173,1 150.098,1 150.098,27.247 "
       style="fill:#51b5ce;fill-opacity:1" /><path
       id="path9358"
       d="m 219.445,25.01 c 0,1.162 -0.857,2 -1.947,2 -1.104,0 -1.957,-0.838 -1.957,-2 0,-1.132 0.854,-1.99 1.957,-1.99 1.09,0.001 1.947,0.859 1.947,1.99 m -4.361,0 c 0,1.381 1.105,2.387 2.414,2.387 1.293,0 2.402,-1.006 2.402,-2.387 0,-1.365 -1.111,-2.367 -2.402,-2.367 -1.31,10e-4 -2.414,1.003 -2.414,2.367 m 1.907,-1.012 h 0.563 c 0.489,0 0.617,0.143 0.617,0.399 0,0.31 -0.168,0.452 -0.684,0.452 h -0.497 v -0.851 l 0.001,0 z m 0,1.199 h 0.473 l 0.729,1.194 h 0.459 l -0.777,-1.208 c 0.408,-0.05 0.716,-0.265 0.716,-0.756 0,-0.54 -0.315,-0.782 -0.97,-0.782 h -1.051 v 2.746 h 0.421 v -1.194 l 0,0 z"
       inkscape:connector-curvature="0"
       style="fill:#51b5ce;fill-opacity:1" /><path
       id="path9360"
       d="m 186.814,13.361 c 4.992,-0.427 6.078,-2.709 6.078,-5.989 0,-2.888 -1.316,-4.36 -2.753,-5.19 C 188.938,1.474 187.511,1 184.52,1 h -13.16 v 26.247 h 13.333 c 4.101,0 5.804,-0.752 6.602,-1.257 1.349,-0.847 3.107,-2.719 3.107,-5.706 0.001,-3.529 -1.309,-7.063 -7.588,-6.923 m -3.364,10.072 h -5.749 V 23.41 4.778 4.764 h 6.257 c 2.11,0 3.437,1.564 3.437,3.711 0,3.292 -1.711,3.371 -6.58,3.536 v 3.042 c 4.349,-0.019 7.839,-0.262 7.839,3.941 0,2.113 -1.441,4.439 -5.204,4.439"
       inkscape:connector-curvature="0"
       style="fill:#51b5ce;fill-opacity:1" /><path
       id="path9362"
       d="M 0.035,55.021 H 79.327 V 0 H 0.035 V 55.021 z M 18.427,47.885 H 9.387 V 7.134 h 9.038 c 9.383,0 17.227,9.313 17.227,20.296 0,11.308 -7.843,20.455 -17.225,20.455 m 51.562,0 h -9.068 c -9.39,0 -17.219,-9.146 -17.219,-20.456 0,-10.983 7.831,-20.296 17.219,-20.296 h 9.068 v 40.752 z"
       inkscape:connector-curvature="0"
       style="fill:#51b5ce;fill-opacity:1" /><path
       id="path9364"
       d="m 105.234,45.634 c -0.171,0.584 -0.439,1.067 -0.81,1.438 -0.372,0.37 -0.857,0.653 -1.457,0.83 -0.605,0.183 -1.337,0.279 -2.205,0.279 h -6.1 v 6.096 H 90.574 V 35.44 h 9.819 c 1.765,0 3.061,0.371 3.876,1.104 0.814,0.733 1.217,1.961 1.217,3.685 v 3.29 c -0.001,0.821 -0.085,1.527 -0.252,2.115 m -3.807,-5.458 c 0,-0.578 -0.147,-1.007 -0.45,-1.263 -0.303,-0.269 -0.737,-0.396 -1.306,-0.396 h -5.009 v 6.557 h 5.067 c 0.563,0 0.987,-0.128 1.273,-0.396 0.282,-0.257 0.425,-0.686 0.425,-1.263 v -3.239 l 0,0 z"
       inkscape:connector-curvature="0"
       style="fill:#51b5ce;fill-opacity:1" /><path
       id="path9366"
       d="m 119.12,54.487 -3.865,-6.694 h -1.941 v 6.694 h -3.772 V 35.44 h 9.235 c 0.88,0 1.599,0.131 2.163,0.4 0.569,0.265 1.02,0.618 1.35,1.073 0.336,0.443 0.564,0.963 0.694,1.549 0.134,0.595 0.195,1.201 0.195,1.847 v 2.557 c 0,0.515 -0.043,1.05 -0.135,1.597 -0.09,0.553 -0.267,1.06 -0.53,1.517 -0.272,0.456 -0.641,0.835 -1.109,1.138 -0.471,0.304 -1.087,0.455 -1.849,0.455 h -0.483 l 4.374,6.912 h -4.326 l -10e-4,0.002 0,0 z m 0.341,-14.259 c 0,-0.584 -0.14,-1.019 -0.411,-1.277 -0.282,-0.271 -0.68,-0.4 -1.196,-0.4 h -4.542 v 6.109 h 4.59 c 1.038,0 1.56,-0.574 1.56,-1.712 l -0.001,-2.72 0,0 z"
       inkscape:connector-curvature="0"
       style="fill:#51b5ce;fill-opacity:1" /><path
       id="path9368"
       d="m 143.235,52.072 c -0.209,0.668 -0.536,1.198 -0.982,1.617 -0.445,0.41 -1.005,0.702 -1.686,0.874 -0.684,0.173 -1.5,0.259 -2.446,0.259 h -5.214 c -0.945,0 -1.756,-0.085 -2.438,-0.259 -0.684,-0.172 -1.247,-0.464 -1.682,-0.874 -0.437,-0.419 -0.757,-0.947 -0.967,-1.617 -0.211,-0.671 -0.312,-1.494 -0.312,-2.481 v -9.729 c 0,-0.874 0.114,-1.607 0.354,-2.223 0.23,-0.593 0.574,-1.081 1.021,-1.456 0.451,-0.377 0.994,-0.646 1.637,-0.824 0.651,-0.173 1.389,-0.263 2.219,-0.263 h 5.571 c 1.675,0 2.966,0.365 3.877,1.089 0.908,0.722 1.363,1.946 1.363,3.677 v 9.729 c 0.003,0.987 -0.105,1.813 -0.315,2.481 m -3.887,-12.155 c 0,-0.519 -0.109,-0.915 -0.326,-1.154 -0.215,-0.249 -0.603,-0.378 -1.146,-0.378 h -4.696 c -0.54,0 -0.927,0.142 -1.143,0.433 -0.221,0.281 -0.328,0.647 -0.328,1.1 v 10.085 c 0,0.53 0.116,0.915 0.353,1.165 0.237,0.249 0.621,0.372 1.15,0.372 h 4.635 c 0.529,0 0.908,-0.123 1.145,-0.372 0.237,-0.25 0.354,-0.635 0.354,-1.165 l 0.002,-10.086 0,0 z"
       inkscape:connector-curvature="0"
       style="fill:#51b5ce;fill-opacity:1" /><polygon
       id="polygon9370"
       points="158.763,51.241 168.419,51.241 168.419,54.484 154.086,54.484 154.086,35.485 158.763,35.485 "
       style="fill:#51b5ce;fill-opacity:1" /><path
       id="path9372"
       d="m 187.199,52.104 c -0.207,0.67 -0.546,1.201 -0.999,1.621 -0.453,0.41 -1.021,0.703 -1.714,0.876 -0.693,0.173 -1.528,0.259 -2.483,0.259 h -5.299 c -0.959,0 -1.783,-0.085 -2.479,-0.259 -0.692,-0.173 -1.267,-0.466 -1.707,-0.876 -0.444,-0.42 -0.77,-0.949 -0.982,-1.621 -0.213,-0.671 -0.315,-1.496 -0.315,-2.485 v -9.748 c 0,-0.875 0.114,-1.609 0.354,-2.226 0.24,-0.595 0.588,-1.084 1.042,-1.459 0.452,-0.378 1.01,-0.648 1.664,-0.826 0.661,-0.173 1.408,-0.264 2.266,-0.264 h 5.647 c 1.701,0 3.013,0.366 3.94,1.091 0.923,0.724 1.386,1.95 1.386,3.684 v 9.748 c 0.002,0.989 -0.107,1.816 -0.321,2.485 m -3.947,-12.177 c 0,-0.52 -0.115,-0.918 -0.338,-1.157 -0.219,-0.249 -0.612,-0.378 -1.162,-0.378 h -4.766 c -0.558,0 -0.945,0.142 -1.168,0.434 -0.225,0.281 -0.334,0.648 -0.334,1.102 V 50.03 c 0,0.532 0.126,0.918 0.366,1.168 0.234,0.249 0.622,0.373 1.162,0.373 h 4.711 c 0.535,0 0.922,-0.124 1.163,-0.373 0.239,-0.25 0.365,-0.636 0.365,-1.168 V 39.927 l 0.001,0 z"
       inkscape:connector-curvature="0"
       style="fill:#51b5ce;fill-opacity:1" /><path
       id="path9374"
       d="m 203.292,54.484 -0.442,-1.297 c -0.162,0.205 -0.37,0.4 -0.611,0.594 -0.241,0.189 -0.55,0.36 -0.927,0.519 -0.383,0.161 -0.841,0.281 -1.365,0.369 -0.524,0.097 -1.156,0.139 -1.892,0.139 h -2.108 c -0.906,0 -1.713,-0.075 -2.429,-0.232 -0.71,-0.158 -1.301,-0.434 -1.773,-0.836 -0.47,-0.4 -0.837,-0.937 -1.083,-1.605 -0.249,-0.666 -0.368,-1.508 -0.368,-2.515 v -9.524 c 0,-1.237 0.208,-2.199 0.614,-2.869 0.423,-0.66 0.946,-1.157 1.567,-1.481 0.632,-0.317 1.321,-0.502 2.067,-0.563 0.749,-0.054 1.448,-0.075 2.097,-0.075 h 5.02 c 0.956,0 1.823,0.065 2.605,0.228 0.773,0.156 1.379,0.351 1.793,0.588 v 2.448 h -9.67 c -0.572,0 -1.025,0.108 -1.343,0.324 -0.32,0.221 -0.486,0.713 -0.486,1.479 v 9.908 c 0,0.622 0.168,1.039 0.508,1.233 0.35,0.206 0.775,0.308 1.292,0.308 h 2.97 c 0.197,0 0.437,-0.019 0.722,-0.055 0.278,-0.038 0.551,-0.092 0.824,-0.152 0.278,-0.066 0.557,-0.135 0.824,-0.221 0.268,-0.081 0.486,-0.174 0.648,-0.26 v -4.419 h -4.021 v -2.799 h 8.181 v 10.765 h -3.213 v 0.001 z"
       inkscape:connector-curvature="0"
       style="fill:#51b5ce;fill-opacity:1" /><rect
       id="rect9376"
       height="18.997999"
       width="4.2659998"
       y="35.485001"
       x="210.701"
       style="fill:#51b5ce;fill-opacity:1" /><path
       id="path9378"
       d="m 232.273,54.288 c -0.338,0.129 -0.699,0.231 -1.059,0.313 -0.377,0.073 -0.741,0.151 -1.115,0.188 -0.37,0.048 -0.72,0.07 -1.059,0.07 h -4.398 c -1.83,0 -3.227,-0.367 -4.187,-1.112 -0.971,-0.74 -1.445,-2.021 -1.445,-3.852 v -9.823 c 0,-0.917 0.119,-1.691 0.359,-2.323 0.24,-0.634 0.604,-1.146 1.086,-1.542 0.481,-0.389 1.064,-0.669 1.769,-0.843 0.705,-0.174 1.511,-0.271 2.417,-0.271 h 4.54 c 0.65,0 1.339,0.061 2.054,0.168 0.726,0.113 1.379,0.346 1.971,0.686 v 2.422 h -8.128 c -0.59,0 -1.036,0.119 -1.335,0.367 -0.311,0.248 -0.459,0.664 -0.459,1.247 v 9.99 c 0,0.584 0.148,1.005 0.459,1.252 0.3,0.238 0.745,0.367 1.335,0.367 h 8.128 v 2.254 c -0.277,0.161 -0.589,0.314 -0.933,0.442"
       inkscape:connector-curvature="0"
       style="fill:#51b5ce;fill-opacity:1" /><rect
       id="rect9380"
       height="19.580999"
       width="4.1960001"
       y="35.439999"
       x="242.47301"
       style="fill:#51b5ce;fill-opacity:1" /><rect
       id="rect9382"
       height="19.580999"
       width="4.198"
       y="35.439999"
       x="250.927"
       style="fill:#51b5ce;fill-opacity:1" /><polygon
       id="polygon9384"
       points="269.129,40.421 269.129,43.194 262.863,52.028 269.348,52.028 269.348,55.021 258.75,55.021 258.75,52.359 265.194,43.414 258.92,43.414 258.92,40.421 "
       style="fill:#51b5ce;fill-opacity:1" /></g></svg>