<?xml version="1.0" encoding="UTF-8" standalone="no"?>
<!-- Generator: Adobe Illustrator 15.1.0, SVG Export Plug-In  -->

<svg
   xmlns:dc="http://purl.org/dc/elements/1.1/"
   xmlns:cc="http://creativecommons.org/ns#"
   xmlns:rdf="http://www.w3.org/1999/02/22-rdf-syntax-ns#"
   xmlns:svg="http://www.w3.org/2000/svg"
   xmlns="http://www.w3.org/2000/svg"
   xmlns:sodipodi="http://sodipodi.sourceforge.net/DTD/sodipodi-0.dtd"
   xmlns:inkscape="http://www.inkscape.org/namespaces/inkscape"
   version="1.1"
   x="0px"
   y="0px"
   width="147px"
   height="80px"
   viewBox="0 0 147 80"
   overflow="visible"
   enable-background="new 0 0 147 80"
   xml:space="preserve"
   id="svg3268"
   inkscape:version="0.48.4 r9939"
   sodipodi:docname="dolby_hover_147_80.svg"><metadata
     id="metadata3320"><rdf:RDF><cc:Work
         rdf:about=""><dc:format>image/svg+xml</dc:format><dc:type
           rdf:resource="http://purl.org/dc/dcmitype/StillImage" /><dc:title /></cc:Work></rdf:RDF></metadata><sodipodi:namedview
     pagecolor="#ffffff"
     bordercolor="#666666"
     borderopacity="1"
     objecttolerance="10"
     gridtolerance="10"
     guidetolerance="10"
     inkscape:pageopacity="0"
     inkscape:pageshadow="2"
     inkscape:window-width="1727"
     inkscape:window-height="1320"
     id="namedview3318"
     showgrid="false"
     inkscape:zoom="4.4214807"
     inkscape:cx="-1.6536256"
     inkscape:cy="7.2485175"
     inkscape:window-x="65"
     inkscape:window-y="24"
     inkscape:window-maximized="1"
     inkscape:current-layer="svg3268" /><defs
     id="defs3270" /><path
     style="fill:#ffffff;fill-opacity:1"
     inkscape:connector-curvature="0"
     d="m 114.19211,26.364815 -3.29121,6.195637 -3.1796,-6.195637 h -2.97952 c 0.55599,1.049236 4.45206,8.671629 4.45206,8.671629 v 5.024505 h 3.20222 c 0.002,-0.683033 0,-5.005475 0,-5.005475 0,0 4.04676,-7.636794 4.61973,-8.690659 h -2.82368 z"
     id="path9350" /><path
     style="fill:#ffffff;fill-opacity:1"
     inkscape:connector-curvature="0"
     d="m 75.913501,35.298753 c 0,2.511995 -0.852762,3.08496 -3.246975,3.08496 -2.394213,0 -3.244918,-0.572451 -3.244918,-3.08496 v -4.240149 c 0,-2.450275 0.850705,-2.98158 3.244918,-2.98158 2.393184,0 3.246975,0.530276 3.246975,2.98158 v 4.240149 z m 1.371722,-8.413435 c -0.946884,-0.680461 -2.544398,-1.034835 -4.62024,-1.034835 -2.025438,0 -3.500541,0.290083 -4.627955,1.039464 -1.178334,0.78487 -1.733297,2.097958 -1.733297,4.149627 v 4.457711 c 0,2.056297 0.575537,3.446536 1.722496,4.138311 0.924768,0.662974 2.433302,0.977745 4.639784,0.977745 2.173051,0 3.723761,-0.324029 4.614069,-0.9618 1.149016,-0.733951 1.747698,-2.163279 1.747698,-4.154256 v -4.457711 c 0,-1.953431 -0.587881,-3.351899 -1.742555,-4.154256"
     id="path9352" /><path
     style="fill:#ffffff;fill-opacity:1"
     inkscape:connector-curvature="0"
     d="m 60.680544,34.696985 c 0,2.328379 -1.300744,2.917289 -2.391642,2.917289 h -3.856457 v -9.296543 h 3.856457 c 1.091412,0 2.391642,0.58531 2.391642,2.753731 v 3.625523 z m -2.417872,-8.33217 h -6.974336 v 13.30267 h 7.463979 c 3.678499,0 5.04765,-1.433956 5.04765,-5.291443 v -2.924489 c 5.14e-4,-3.659983 -1.55431,-5.086738 -5.537293,-5.086738"
     id="path9354" /><polygon
     style="fill:#ffffff;fill-opacity:1"
     points="156.173,22.877 156.173,1 150.098,1 150.098,27.247 167.375,27.247 167.375,22.877 "
     id="polygon9356"
     transform="matrix(0.51433152,0,0,0.51433152,4.2239161,25.850483)" /><path
     style="fill:#ffffff;fill-opacity:1"
     inkscape:connector-curvature="0"
     d="m 117.0914,38.713914 c 0,0.597654 -0.44079,1.028663 -1.00141,1.028663 -0.56782,0 -1.00654,-0.431009 -1.00654,-1.028663 0,-0.582223 0.43924,-1.023519 1.00654,-1.023519 0.56062,5.14e-4 1.00141,0.44181 1.00141,1.023519 m -2.243,0 c 0,0.710292 0.56833,1.22771 1.24159,1.22771 0.66503,0 1.23543,-0.517418 1.23543,-1.22771 0,-0.702062 -0.57142,-1.217422 -1.23543,-1.217422 -0.67377,5.14e-4 -1.24159,0.515874 -1.24159,1.217422 m 0.98083,-0.520503 h 0.28957 c 0.2515,0 0.31734,0.07355 0.31734,0.205218 0,0.159443 -0.0864,0.232478 -0.3518,0.232478 h -0.25563 v -0.437696 l 5.2e-4,0 z m 0,0.616683 h 0.24328 l 0.37494,0.614112 h 0.23608 l -0.39963,-0.621312 c 0.20984,-0.02572 0.36826,-0.136298 0.36826,-0.388835 0,-0.277739 -0.16202,-0.402207 -0.4989,-0.402207 h -0.54057 v 1.412354 h 0.21654 v -0.614112 l 0,0 z"
     id="path9358" /><path
     style="fill:#ffffff;fill-opacity:1"
     inkscape:connector-curvature="0"
     d="m 100.30824,32.722466 c 2.56755,-0.219619 3.12611,-1.393324 3.12611,-3.080331 0,-1.485389 -0.67686,-2.242485 -1.41595,-2.669381 -0.61772,-0.364146 -1.35167,-0.607939 -2.890032,-0.607939 h -6.768603 v 13.499659 h 6.857583 c 2.109272,0 2.985182,-0.386777 3.395612,-0.646515 0.69384,-0.435639 1.59803,-1.398467 1.59803,-2.934775 5.2e-4,-1.815076 -0.67326,-3.632724 -3.90275,-3.560718 m -1.730207,5.180348 h -2.956891 v -0.01183 -9.583025 -0.0072 h 3.218172 c 1.085239,0 1.767756,0.804415 1.767756,1.908685 0,1.693179 -0.88002,1.733811 -3.3843,1.818676 v 1.564596 c 2.236828,-0.0098 4.03184,-0.134754 4.03184,2.026981 0,1.086782 -0.74115,2.283118 -2.676577,2.283118"
     id="path9360" /><path
     style="fill:#ffffff;fill-opacity:1"
     inkscape:connector-curvature="0"
     d="M 4.2419177,54.149518 H 45.024293 V 25.850483 H 4.2419177 v 28.299035 z m 9.4595853,-3.67027 H 9.0519461 V 29.519724 h 4.6485279 c 4.825973,0 8.860389,4.78997 8.860389,10.438873 0,5.81606 -4.033902,10.520651 -8.85936,10.520651 m 26.519962,0 h -4.663958 c -4.829573,0 -8.856275,-4.704076 -8.856275,-10.521166 0,-5.648903 4.02773,-10.438872 8.856275,-10.438872 h 4.663958 v 20.960038 z"
     id="path9362" /><path
     style="fill:#ffffff;fill-opacity:1"
     inkscape:connector-curvature="0"
     d="m 58.349079,49.321488 c -0.08795,0.300369 -0.225791,0.548791 -0.416608,0.739608 -0.191332,0.190303 -0.440782,0.335859 -0.749381,0.426895 -0.311171,0.09412 -0.687662,0.143499 -1.134101,0.143499 h -3.137423 v 3.135365 H 50.808979 V 44.078392 H 55.8592 c 0.907796,0 1.574369,0.190817 1.993549,0.567822 0.418666,0.377005 0.625942,1.008604 0.625942,1.895312 v 1.69215 c -5.15e-4,0.422267 -0.04372,0.785385 -0.129612,1.087812 m -1.95806,-2.807222 c 0,-0.297283 -0.07561,-0.517932 -0.231449,-0.649601 C 56.003728,45.72631 55.780508,45.66099 55.487853,45.66099 h -2.576287 v 3.372472 h 2.606118 c 0.289569,0 0.507645,-0.06583 0.654744,-0.203675 0.145042,-0.132184 0.218591,-0.352832 0.218591,-0.649601 v -1.66592 l 0,0 z"
     id="path9364" /><path
     style="fill:#ffffff;fill-opacity:1"
     inkscape:connector-curvature="0"
     d="m 65.491087,53.874865 -1.987892,-3.442936 h -0.998317 v 3.442936 h -1.940059 v -9.796473 h 4.749852 c 0.452612,0 0.822416,0.06738 1.112499,0.205733 0.292655,0.136298 0.524618,0.317857 0.694348,0.551877 0.172815,0.227849 0.290083,0.495302 0.356946,0.7967 0.06892,0.306027 0.100294,0.617712 0.100294,0.94997 v 1.315146 c 0,0.264881 -0.02212,0.540048 -0.06943,0.821387 -0.04629,0.284426 -0.137327,0.545192 -0.272596,0.780241 -0.139898,0.234535 -0.329687,0.429467 -0.570394,0.58531 -0.24225,0.156356 -0.559078,0.23402 -0.950999,0.23402 h -0.248422 l 2.249686,3.55506 h -2.224998 l -5.14e-4,0.001 0,0 z m 0.175387,-7.333854 c 0,-0.300369 -0.07201,-0.524103 -0.21139,-0.656801 -0.145042,-0.139384 -0.349746,-0.205733 -0.615141,-0.205733 h -2.336094 v 3.142052 h 2.360782 c 0.533876,0 0.802357,-0.295227 0.802357,-0.880536 l -5.14e-4,-1.398982 0,0 z"
     id="path9366" /><path
     style="fill:#ffffff;fill-opacity:1"
     inkscape:connector-curvature="0"
     d="m 77.894191,52.632754 c -0.107495,0.343573 -0.275681,0.616169 -0.505073,0.831674 -0.228878,0.210876 -0.516903,0.361061 -0.867163,0.449526 -0.351803,0.08898 -0.771497,0.133212 -1.258055,0.133212 h -2.681725 c -0.486043,0 -0.903166,-0.04372 -1.25394,-0.133212 -0.351803,-0.08846 -0.641371,-0.23865 -0.865105,-0.449526 C 70.238367,53.248923 70.073781,52.977356 69.965771,52.632754 69.857247,52.287637 69.8053,51.864343 69.8053,51.356697 v -5.003931 c 0,-0.449526 0.05863,-0.826531 0.182073,-1.143359 0.118296,-0.304999 0.295226,-0.555992 0.525132,-0.748867 0.231964,-0.193903 0.511246,-0.332258 0.841961,-0.423809 0.33483,-0.08898 0.714407,-0.135269 1.141302,-0.135269 h 2.865341 c 0.861505,0 1.525507,0.187731 1.994063,0.560107 0.467013,0.371347 0.701034,1.000889 0.701034,1.891197 v 5.003931 c 0.0015,0.507646 -0.05401,0.932483 -0.162015,1.276057 m -1.999206,-6.2517 c 0,-0.266938 -0.05606,-0.470613 -0.167672,-0.593538 -0.110582,-0.128069 -0.310142,-0.194418 -0.589424,-0.194418 h -2.415301 c -0.277739,0 -0.476785,0.07304 -0.587881,0.222706 -0.113667,0.144527 -0.168701,0.332772 -0.168701,0.565765 v 5.187033 c 0,0.272596 0.05966,0.470613 0.181559,0.599196 0.121897,0.128069 0.3194,0.191332 0.591482,0.191332 h 2.383926 c 0.272082,0 0.467013,-0.06326 0.58891,-0.191332 0.121896,-0.128583 0.182073,-0.3266 0.182073,-0.599196 l 0.001,-5.187548 0,0 z"
     id="path9368" /><polygon
     style="fill:#ffffff;fill-opacity:1"
     points="168.419,54.484 154.086,54.484 154.086,35.485 158.763,35.485 158.763,51.241 168.419,51.241 "
     id="polygon9370"
     transform="matrix(0.51433152,0,0,0.51433152,4.2239161,25.850483)" /><path
     style="fill:#ffffff;fill-opacity:1"
     inkscape:connector-curvature="0"
     d="m 100.50626,52.649213 c -0.10646,0.344602 -0.28082,0.617712 -0.513815,0.833731 -0.232992,0.210876 -0.525132,0.361575 -0.881564,0.450554 -0.356432,0.08898 -0.785899,0.133212 -1.277085,0.133212 h -2.725443 c -0.493244,0 -0.917053,-0.04372 -1.275028,-0.133212 -0.355917,-0.08898 -0.651658,-0.239678 -0.877964,-0.450554 -0.228363,-0.216019 -0.396035,-0.488101 -0.505073,-0.833731 -0.109553,-0.345117 -0.162015,-0.76944 -0.162015,-1.278114 v -5.013704 c 0,-0.45004 0.05863,-0.827559 0.182074,-1.144902 0.123439,-0.306027 0.302427,-0.557535 0.535933,-0.75041 0.232478,-0.194417 0.519475,-0.333286 0.855848,-0.424837 0.339973,-0.08898 0.724179,-0.135784 1.165475,-0.135784 h 2.90443 c 0.874878,0 1.549681,0.188245 2.026466,0.561136 0.474731,0.372376 0.712861,1.002946 0.712861,1.894797 v 5.013704 c 0.001,0.508674 -0.055,0.934026 -0.1651,1.278114 m -2.030064,-6.263015 c 0,-0.267453 -0.05915,-0.472157 -0.173844,-0.595082 -0.112639,-0.128069 -0.314771,-0.194417 -0.597653,-0.194417 h -2.451305 c -0.286996,0 -0.486043,0.07303 -0.600739,0.22322 -0.115724,0.144527 -0.171786,0.333286 -0.171786,0.566793 v 5.195777 c 0,0.273624 0.06481,0.472156 0.188245,0.600739 0.120353,0.128069 0.319914,0.191846 0.597653,0.191846 h 2.423016 c 0.275167,0 0.474214,-0.06378 0.598167,-0.191846 0.122926,-0.128583 0.187731,-0.327115 0.187731,-0.600739 v -5.196291 l 5.15e-4,0 z"
     id="path9372" /><path
     style="fill:#ffffff;fill-opacity:1"
     inkscape:connector-curvature="0"
     d="m 108.7834,53.873322 -0.22734,-0.667088 c -0.0833,0.105438 -0.1903,0.205732 -0.31425,0.305512 -0.12396,0.09721 -0.28288,0.18516 -0.47679,0.266939 -0.19699,0.08281 -0.43255,0.144527 -0.70206,0.189788 -0.26951,0.04989 -0.59457,0.07149 -0.97311,0.07149 h -1.08422 c -0.46598,0 -0.88105,-0.03858 -1.24931,-0.119325 -0.36517,-0.08126 -0.66914,-0.22322 -0.91191,-0.429981 -0.24173,-0.205733 -0.43049,-0.481929 -0.55702,-0.825502 -0.12807,-0.342545 -0.18927,-0.775612 -0.18927,-1.293544 V 46.47312 c 0,-0.636228 0.10698,-1.131015 0.3158,-1.475618 0.21756,-0.339458 0.48656,-0.595081 0.80596,-0.761724 0.32505,-0.163044 0.67943,-0.258195 1.06312,-0.289569 0.38523,-0.02777 0.74475,-0.03858 1.07855,-0.03858 h 2.58195 c 0.4917,0 0.93762,0.03343 1.33983,0.117268 0.39758,0.08024 0.70926,0.18053 0.9222,0.302427 v 1.259083 h -4.97359 c -0.2942,0 -0.52719,0.05555 -0.69075,0.166643 -0.16458,0.113668 -0.24996,0.366719 -0.24996,0.760697 v 5.095997 c 0,0.319914 0.0864,0.53439 0.26128,0.63417 0.18001,0.105953 0.39861,0.158414 0.66451,0.158414 h 1.52757 c 0.10132,0 0.22476,-0.0098 0.37135,-0.02829 0.14298,-0.01954 0.28339,-0.04732 0.42381,-0.07818 0.14298,-0.03395 0.28648,-0.06943 0.42381,-0.113668 0.13784,-0.04166 0.24996,-0.08949 0.33328,-0.133726 v -2.272831 h -2.06813 v -1.439614 h 4.20775 v 5.536779 h -1.65255 v 5.15e-4 z"
     id="path9374" /><rect
     style="fill:#ffffff;fill-opacity:1"
     x="112.59409"
     y="44.101536"
     width="2.1941381"
     height="9.7712698"
     id="rect9376" /><path
     style="fill:#ffffff;fill-opacity:1"
     inkscape:connector-curvature="0"
     d="m 123.68924,53.772513 c -0.17384,0.06635 -0.35952,0.11881 -0.54468,0.160985 -0.1939,0.03755 -0.38112,0.07766 -0.57348,0.09669 -0.1903,0.02469 -0.37031,0.036 -0.54467,0.036 h -2.26203 c -0.94123,0 -1.65975,-0.18876 -2.15351,-0.571937 -0.49941,-0.380605 -0.74321,-1.039464 -0.74321,-1.981205 v -5.052278 c 0,-0.471642 0.0612,-0.869735 0.18465,-1.194792 0.12344,-0.326087 0.31065,-0.589424 0.55856,-0.7931 0.24739,-0.200075 0.54725,-0.344087 0.90985,-0.433581 0.36261,-0.08949 0.77716,-0.139384 1.24314,-0.139384 h 2.33507 c 0.33431,0 0.68869,0.03137 1.05644,0.08641 0.3734,0.05812 0.70926,0.177958 1.01374,0.352831 v 1.245711 h -4.18048 c -0.30346,0 -0.53285,0.06121 -0.68664,0.18876 -0.15995,0.127554 -0.23607,0.341516 -0.23607,0.641371 v 5.138172 c 0,0.30037 0.0761,0.516903 0.23607,0.643943 0.1543,0.122411 0.38318,0.18876 0.68664,0.18876 h 4.18048 v 1.159303 c -0.14247,0.08281 -0.30294,0.1615 -0.47987,0.227335"
     id="path9378" /><rect
     style="fill:#ffffff;fill-opacity:1"
     x="128.93542"
     y="44.078392"
     width="2.1581352"
     height="10.071125"
     id="rect9380" /><rect
     style="fill:#ffffff;fill-opacity:1"
     x="133.28358"
     y="44.078392"
     width="2.1591637"
     height="10.071125"
     id="rect9382" /><polygon
     style="fill:#ffffff;fill-opacity:1"
     points="262.863,52.028 269.348,52.028 269.348,55.021 258.75,55.021 258.75,52.359 265.194,43.414 258.92,43.414 258.92,40.421 269.129,40.421 269.129,43.194 "
     id="polygon9384"
     transform="matrix(0.51433152,0,0,0.51433152,4.2239161,25.850483)" /></svg>