<?xml version="1.0" encoding="UTF-8" standalone="no"?>
<!-- Generator: Adobe Illustrator 15.1.0, SVG Export Plug-In  -->

<svg
   xmlns:dc="http://purl.org/dc/elements/1.1/"
   xmlns:cc="http://creativecommons.org/ns#"
   xmlns:rdf="http://www.w3.org/1999/02/22-rdf-syntax-ns#"
   xmlns:svg="http://www.w3.org/2000/svg"
   xmlns="http://www.w3.org/2000/svg"
   xmlns:sodipodi="http://sodipodi.sourceforge.net/DTD/sodipodi-0.dtd"
   xmlns:inkscape="http://www.inkscape.org/namespaces/inkscape"
   version="1.1"
   x="0px"
   y="0px"
   width="147px"
   height="80px"
   viewBox="0 0 147 80"
   overflow="visible"
   enable-background="new 0 0 147 80"
   xml:space="preserve"
   id="svg3268"
   inkscape:version="0.48.4 r9939"
   sodipodi:docname="dolby_147_80.svg"><metadata
     id="metadata3320"><rdf:RDF><cc:Work
         rdf:about=""><dc:format>image/svg+xml</dc:format><dc:type
           rdf:resource="http://purl.org/dc/dcmitype/StillImage" /></cc:Work></rdf:RDF></metadata><sodipodi:namedview
     pagecolor="#ffffff"
     bordercolor="#666666"
     borderopacity="1"
     objecttolerance="10"
     gridtolerance="10"
     guidetolerance="10"
     inkscape:pageopacity="0"
     inkscape:pageshadow="2"
     inkscape:window-width="753"
     inkscape:window-height="480"
     id="namedview3318"
     showgrid="false"
     inkscape:zoom="2.0884354"
     inkscape:cx="73.5"
     inkscape:cy="40"
     inkscape:window-x="200"
     inkscape:window-y="93"
     inkscape:window-maximized="0"
     inkscape:current-layer="svg3268" /><defs
     id="defs3270" /><path
     fill="#31ABFF"
     d="M17,42h32V20H17V42z M24,39h-3V23h3.41c3.717,0,6.828,3.616,6.828,7.97c0,4.482-3.111,8.03-6.828,8.03   M45,39h-3.744c-3.723,0-6.826-3.546-6.826-8.03c0-4.355,3.104-7.97,6.826-7.97H45V39z"
     id="path3280"
     style="fill:#51b5ce;fill-opacity:1" /><path
     fill="#31ABFF"
     d="M34.105,56.757c-0.094,0.314-0.118,0.574-0.317,0.773c-0.197,0.199-0.399,0.287-0.722,0.382  C32.742,58.01,32.41,58,31.943,58H29v3h-3V51h5.746c0.947,0,1.402,0.343,1.84,0.734C34.021,52.128,34,52.933,34,53.856v1.768  C34,56.063,34.193,56.442,34.105,56.757 M32,53.829c0-0.311,0.072-0.51-0.09-0.647C31.746,53.038,31.664,53,31.357,53H29v3h2.391  c0.301,0,0.379,0.161,0.533,0.016c0.15-0.139,0.076-0.14,0.076-0.449V53.829L32,53.829z"
     id="path3282"
     style="fill:#51b5ce;fill-opacity:1" /><path
     fill="#31ABFF"
     d="M41.795,62l-2.072-4H39v4h-2V51h4.611c0.475,0,0.859,0.214,1.16,0.357c0.309,0.143,0.549,0.404,0.727,0.648  c0.18,0.238,0.313,0.554,0.384,0.866C43.954,53.193,44,53.554,44,53.899v1.373c0,0.275-0.036,0.562-0.085,0.857  c-0.047,0.297-0.149,0.568-0.292,0.814c-0.146,0.244-0.345,0.548-0.599,0.71S42.438,58,42.031,58h-0.258l2.344,4h-2.32H41.795  L41.795,62z M41.979,53.856c0-0.312-0.076-0.525-0.221-0.664C41.607,53.048,41.393,53,41.119,53H39v3h2.143  c0.557,0,0.838-0.188,0.838-0.801L41.979,53.856L41.979,53.856z"
     id="path3284"
     style="fill:#51b5ce;fill-opacity:1" /><path
     fill="#31ABFF"
     d="M54.784,60.214c-0.113,0.357-0.31,0.643-0.55,0.867c-0.238,0.221-0.551,0.533-0.918,0.625  C52.951,61.797,52.5,62,51.994,62h-2.799c-0.506,0-0.943-0.201-1.309-0.294c-0.367-0.092-0.67-0.326-0.902-0.546  c-0.234-0.225-0.555-0.549-0.668-0.906C46.203,59.892,46,59.411,46,58.88v-5.219c0-0.471,0.211-0.863,0.338-1.193  c0.125-0.318,0.383-0.58,0.623-0.781c0.242-0.203,0.57-0.399,0.914-0.495C48.227,51.098,48.66,51,49.105,51h2.99  c0.896,0,1.634,0.249,2.124,0.637c0.488,0.387,0.78,1.094,0.78,2.024v5.219C55,59.411,54.897,59.854,54.784,60.214 M53,53.69  c0-0.279-0.232-0.423-0.35-0.552C52.537,53.003,52.154,53,51.863,53h-2.521c-0.291,0-0.274,0.011-0.388,0.167  C48.833,53.318,49,53.446,49,53.69v5.412c0,0.285-0.161,0.526-0.034,0.661S49.076,60,49.359,60h2.488  c0.283,0,0.658-0.102,0.789-0.237C52.764,59.628,53,59.388,53,59.103V53.69L53,53.69z"
     id="path3286"
     style="fill:#51b5ce;fill-opacity:1" /><polygon
     fill="#31ABFF"
     points="61,62 61,51 63,51 63,60 68,60 68,62 "
     id="polygon3288"
     style="fill:#51b5ce;fill-opacity:1" /><path
     fill="#31ABFF"
     d="M78.58,60.231c-0.111,0.359-0.417,0.645-0.659,0.869c-0.244,0.219-0.61,0.522-0.981,0.616  C76.566,61.808,76.057,62,75.545,62h-2.846c-0.514,0-0.955-0.19-1.328-0.284s-0.682-0.325-0.92-0.543  c-0.236-0.225-0.289-0.546-0.404-0.905C69.936,59.906,70,59.427,70,58.896v-5.23c0-0.469-0.059-0.863,0.068-1.195  c0.127-0.318,0.254-0.582,0.5-0.781c0.242-0.203,0.511-0.399,0.86-0.495C71.784,51.098,72.154,51,72.615,51h3.031  c0.914,0,1.863,0.249,2.363,0.637c0.494,0.389,0.99,1.098,0.99,2.028v5.23C79,59.427,78.695,59.872,78.58,60.231 M76,53.694  c0-0.277,0.044-0.428-0.073-0.557C75.808,53.006,75.705,53,75.408,53h-2.557c-0.299,0-0.529,0.012-0.65,0.168  C72.08,53.319,72,53.452,72,53.694v5.424c0,0.285,0.09,0.52,0.217,0.653C72.344,59.906,72.576,60,72.865,60h2.529  c0.287,0,0.388-0.094,0.517-0.229C76.04,59.638,76,59.403,76,59.118V53.694L76,53.694z"
     id="path3290"
     style="fill:#51b5ce;fill-opacity:1" /><path
     fill="#31ABFF"
     d="M86.967,62l-0.236-0.942c-0.086,0.109-0.195,0.091-0.326,0.195c-0.131,0.102-0.295,0.132-0.498,0.218  c-0.205,0.086-0.451,0.279-0.732,0.326C84.893,61.85,84.555,62,84.158,62h-1.131c-0.486,0-0.92-0.199-1.305-0.283  c-0.381-0.086-0.697-0.312-0.951-0.529c-0.252-0.215-0.446-0.544-0.579-0.901S80,59.437,80,58.897v-5.111  c0-0.664,0.106-1.18,0.325-1.539c0.229-0.355,0.507-0.621,0.839-0.797c0.342-0.17,0.71-0.322,1.11-0.355  C82.677,51.066,83.051,51,83.398,51h2.695c0.512,0,0.751,0.089,1.167,0.177C87.677,51.261,88,51.419,88,51.548V53h-4.736  c-0.309,0-0.692-0.011-0.862,0.104C82.229,53.223,82,53.417,82,53.827v5.318c0,0.334,0.229,0.573,0.411,0.676  C82.603,59.933,82.971,60,83.248,60h1.594c0.107,0,0.234-0.024,0.387-0.043c0.15-0.02,0.299-0.056,0.441-0.087  c0.15-0.035,0.07-0.078,0.213-0.123C86.025,59.704,86,59.649,86,59.604V57h-2v-1h5v6H86.967L86.967,62L86.967,62z"
     id="path3292"
     style="fill:#51b5ce;fill-opacity:1" /><rect
     x="91"
     y="51"
     fill="#31ABFF"
     width="2"
     height="11"
     id="rect3294"
     style="fill:#51b5ce;fill-opacity:1" /><path
     fill="#31ABFF"
     d="M102.512,61.401c-0.182,0.07-0.369,0.127-0.562,0.17c-0.201,0.039-0.396,0.226-0.597,0.246  c-0.199,0.025-0.384,0.183-0.565,0.183h-2.361c-0.98,0-1.933-0.341-2.448-0.742C95.456,60.86,95,60.026,95,59.044v-5.27  c0-0.494,0.267-0.908,0.396-1.248s0.425-0.615,0.683-0.828c0.258-0.207,0.623-0.409,1-0.502C97.457,51.102,97.938,51,98.426,51  h2.438c0.35,0,0.707,0.083,1.088,0.139C102.344,51.2,103,51.378,103,51.56V53h-4.34c-0.316,0-0.405-0.006-0.563,0.126  C97.929,53.259,98,53.413,98,53.726v5.361c0,0.314-0.071,0.561,0.097,0.694C98.259,59.908,98.344,60,98.66,60H103v1.165  C103,61.251,102.695,61.333,102.512,61.401"
     id="path3296"
     style="fill:#51b5ce;fill-opacity:1" /><rect
     x="108"
     y="51"
     fill="#31ABFF"
     width="2"
     height="11"
     id="rect3298"
     style="fill:#51b5ce;fill-opacity:1" /><rect
     x="113"
     y="51"
     fill="#31ABFF"
     width="2"
     height="11"
     id="rect3300"
     style="fill:#51b5ce;fill-opacity:1" /><polygon
     fill="#31ABFF"
     points="117,62 117,60.366 120.191,56 117,56 117,54 122,54 122,55.45 118.939,60 122,60 122,62 "
     id="polygon3302"
     style="fill:#51b5ce;fill-opacity:1" /><path
     fill="#31ABFF"
     d="M129.018,23l-3.926,7.389L121.301,23h-3.555C118.41,25,123,33.767,123,33.767V40h3.875  c0.004-1,0-6.301,0-6.301S131.703,25,132.385,23H129.018z"
     id="path3304"
     style="fill:#51b5ce;fill-opacity:1" /><path
     fill="#31ABFF"
     d="M83,34.079c0,2.994-0.645,3.68-3.5,3.68s-3.5-0.684-3.5-3.68v-5.059c0-2.92,0.645-3.555,3.5-3.555  c2.854,0,3.5,0.633,3.5,3.555V34.079z M84.962,24.044c-1.131-0.811-3.015-1.234-5.491-1.234c-2.414,0-4.118,0.348-5.462,1.24  C72.604,24.985,72,26.552,72,28.999v5.314c0,2.453,0.638,4.111,2.005,4.938c1.105,0.791,2.878,1.166,5.509,1.166  c2.594,0,4.392-0.387,5.454-1.146C86.337,38.396,87,36.69,87,34.313v-5.314C87,26.669,86.337,25.001,84.962,24.044"
     id="path3306"
     style="fill:#51b5ce;fill-opacity:1" /><path
     fill="#31ABFF"
     d="M65,33.362C65,36.138,63.646,37,62.346,37H58V26h4.346C63.648,26,65,26.45,65,29.036V33.362z M62,23h-8v16  h8.898C67.287,39,69,37.579,69,32.978v-3.488C69,25.126,67.064,23,62.316,23"
     id="path3308"
     style="fill:#51b5ce;fill-opacity:1" /><polygon
     fill="#31ABFF"
     points="94,23 90,23 90,40 101,40 101,37 94,37 "
     id="polygon3310"
     style="fill:#51b5ce;fill-opacity:1" /><path
     fill="#31ABFF"
     d="M132.475,38.151c0,0.713-0.523,1.227-1.193,1.227c-0.678,0-1.199-0.514-1.199-1.227  c0-0.693,0.521-1.221,1.199-1.221C131.951,36.933,132.475,37.458,132.475,38.151 M129.799,38.151c0,0.848,0.68,1.465,1.482,1.465  c0.793,0,1.473-0.617,1.473-1.465c0-0.838-0.682-1.451-1.473-1.451C130.477,36.7,129.799,37.315,129.799,38.151 M130.971,37.53  h0.346c0.301,0,0.375,0.088,0.375,0.246c0,0.189-0.1,0.275-0.418,0.275h-0.305V37.53H130.971z M130.971,38.267h0.289l0.447,0.732  h0.283l-0.475-0.742c0.248-0.031,0.436-0.162,0.436-0.463c0-0.332-0.193-0.48-0.596-0.48h-0.645v1.686h0.26V38.267L130.971,38.267z"
     id="path3312"
     style="fill:#51b5ce;fill-opacity:1" /><path
     fill="#31ABFF"
     d="M112.459,31.007c3.062-0.264,3.727-1.662,3.727-3.676c0-1.771-0.807-2.885-1.688-3.395  c-0.736-0.434-1.611-0.936-3.447-0.936H103v17h8.158c2.516,0,3.561-0.701,4.051-1.009c0.826-0.52,1.904-1.787,1.904-3.619  C117.113,33.206,116.311,30.921,112.459,31.007 M110,37h-3v0.169V25.741V26h3.707c1.293,0,2.22,0.824,2.22,2.142  c0,2.02-0.927,1.935-3.927,2.035v1.865c2-0.01,4.698-0.252,4.698,2.328c0,1.295-0.995,2.63-3.302,2.63"
     id="path3314"
     style="fill:#51b5ce;fill-opacity:1" /><polygon
     fill="#31ABFF"
     points="132,61 130,61 130,48 17,48 17,46 132,46 "
     id="polygon3316"
     style="fill:#51b5ce;fill-opacity:1" /></svg>