<?xml version="1.0" encoding="UTF-8" standalone="no"?>
<!-- Generator: Adobe Illustrator 15.1.0, SVG Export Plug-In  -->

<svg
   xmlns:dc="http://purl.org/dc/elements/1.1/"
   xmlns:cc="http://creativecommons.org/ns#"
   xmlns:rdf="http://www.w3.org/1999/02/22-rdf-syntax-ns#"
   xmlns:svg="http://www.w3.org/2000/svg"
   xmlns="http://www.w3.org/2000/svg"
   xmlns:sodipodi="http://sodipodi.sourceforge.net/DTD/sodipodi-0.dtd"
   xmlns:inkscape="http://www.inkscape.org/namespaces/inkscape"
   version="1.1"
   x="0px"
   y="0px"
   width="147px"
   height="80px"
   viewBox="0 0 147 80"
   overflow="visible"
   enable-background="new 0 0 147 80"
   xml:space="preserve"
   id="svg3244"
   inkscape:version="0.48.4 r9939"
   sodipodi:docname="dts_hover_147_80.svg"><metadata
     id="metadata3292"><rdf:RDF><cc:Work
         rdf:about=""><dc:format>image/svg+xml</dc:format><dc:type
           rdf:resource="http://purl.org/dc/dcmitype/StillImage" /></cc:Work></rdf:RDF></metadata><sodipodi:namedview
     pagecolor="#ffffff"
     bordercolor="#666666"
     borderopacity="1"
     objecttolerance="10"
     gridtolerance="10"
     guidetolerance="10"
     inkscape:pageopacity="0"
     inkscape:pageshadow="2"
     inkscape:window-width="640"
     inkscape:window-height="480"
     id="namedview3290"
     showgrid="false"
     inkscape:zoom="1.9863946"
     inkscape:cx="73.5"
     inkscape:cy="40"
     inkscape:window-x="65"
     inkscape:window-y="24"
     inkscape:window-maximized="0"
     inkscape:current-layer="svg3244" /><defs
     id="defs3246" /><path
     id="path128_4_"
     fill="#FFFFFF"
     d="M72,38.444c0,3.297,1.878,5.021,1.878,5.021c0.988,1.365,3.034,1.51,3.034,1.51  c1.059,0.131,2.61-0.104,2.61-0.104l0.061-13.229c0,0-1.401-0.172-2.52-0.033c0,0-2.159,0.084-3.282,1.639  c0,0-1.781,1.828-1.781,4.9V38.444L72,38.444z M91,47.841c-6,0-10.202,0.098-10.202,0.098c-5.779,0.154-8.407,0.076-8.407,0.076  c-6.061,0-11.028-4.168-11.166-9.816c-0.13-5.301,4.147-9.645,10.59-9.99c0,0,2.875-0.275,7.785,0.398l-0.005-0.57l-0.399-10.639  L91,17.362V29h6v-3.974l12.274-5.281l0.21,9.07l4.381-0.008l-0.325,3.168c-2.315-0.072-4.54-0.064-4.54-0.064v5.896  c0,0.291,0.329,3.082,0.432,3.762c0,0,0.342,1.631,1.637,2.697c0,0,0.837,0.625,2.482,0.763c0,0,0.638-0.03,1.663-0.03h2.816h0.092  c2.106,0,2.747-0.32,2.747-0.32c0.902-0.432,1.443-1.261,1.443-2.238c0-0.736-0.321-1.355-0.808-1.85l-0.018-0.008l-3.081-2.983  c-0.965-0.916-1.471-1.661-1.668-1.991l-0.023-0.034c-0.387-0.641-0.608-1.394-0.608-2.198c0-1.566,0.863-2.95,2.119-3.682  l0.085-0.047c1.137-0.725,7.019-2.848,17.659-0.364l-0.087,2.729l-0.221-0.018c0,0-2.84-0.268-3.98-0.047l-0.026,0.004  c-0.878,0.146-1.552,0.826-1.552,1.734c0,0.445,0.182,0.92,0.466,1.217l0.071,0.076l4.265,4.221l0.036,0.039  c0.866,0.883,1.403,2.1,1.403,3.443c0,2.139-1.572,4.084-3.464,4.746c0,0-1.21,0.402-3.197,0.529c0,0-0.938,0.041-3.618,0.041  h-0.146c-9.665,1-19.718,0.004-19.718,0.004l-0.245,0.032c-6.443-0.207-7.732-5.07-7.732-5.07c-0.36-0.906-0.404-3.15-0.404-3.15  l0.012-7.917l-6.406,0.011L91,47.835V47.841z" /><path
     id="path130_4_"
     fill="#FFFFFF"
     d="M12.062,28c3.016-3,11.647-5.269,21.97-4.656C45.841,24.047,55,27.776,56,32.017v-0.039  c0-1.77,0.278-2.83,0.278-2.83c-0.254-4.512-10.319-8.006-22.817-7.826c-10.305,0.148-18.913,2.752-21.714,6.193  c0,0,0.156,0.25,0.27,0.371L12.058,28H12.062z" /><path
     id="path132_4_"
     fill="#FFFFFF"
     d="M14.856,29.938c4.188-2.059,11.377-3.162,19.46-2.68  c11.809,0.701,21.328,4.533,22.248,8.775l0.002-0.041c0.068-1.77,0-2.83,0-2.83c-0.256-4.512-10.46-8.006-22.958-7.826  c-8.219,0.119-15.398,1.795-19.39,4.215c0,0,0.307,0.195,0.625,0.381L14.856,29.938L14.856,29.938z" /><path
     id="path142_4_"
     fill="#FFFFFF"
     d="M20.178,32.2c3.933-0.865,8.841-1.23,14.128-0.914c11.809,0.701,21.328,4.533,22.248,8.775  l0.002-0.039c0.066-1.77,0-2.83,0-2.83c-0.257-4.514-10.463-8.006-22.96-7.826c-5.773,0.08-11.037,0.936-15.04,2.273  c0,0,0.832,0.314,1.606,0.555L20.178,32.2z" /><path
     id="path144_4_"
     fill="#FFFFFF"
     d="M10.994,25.142c0.993-4.234,10.696-7.678,22.61-7.85  c11.396-0.162,20.751,2.699,22.524,6.635c0,0,0.184,0.416,0.25,0.844c0,0,0.178,0.713,0.178,3.072l-0.002,0.148  c-0.93-4.236-10.442-8.076-22.242-8.777c-11.976-0.713-21.945,2.133-23.303,5.934L10.994,25.142z" /><path
     id="path146_4_"
     fill="#FFFFFF"
     d="M55.611,38.233c-2.798,3.439-11.476,6.043-21.778,6.191  c-12.498,0.178-23.141-3.314-23.396-7.828c0,0-0.437-1.062-0.437-2.832v-0.039c1,4.244,10.877,8.074,22.685,8.777  c10.316,0.613,19.446-1.311,22.47-4.553c0,0,0.226,0.129,0.344,0.271L55.611,38.233L55.611,38.233z" /><path
     id="path148_4_"
     fill="#FFFFFF"
     d="M53.213,36.192c-3.991,2.42-11.171,4.098-19.388,4.215  c-12.497,0.18-23.137-3.314-23.393-7.828c0,0-0.433-1.059-0.433-2.83V29.71c1,4.24,10.873,8.074,22.681,8.777  c8.081,0.48,15.491-0.623,19.679-2.682c0,0,0.411,0.168,0.732,0.375L53.213,36.192L53.213,36.192z" /><path
     id="path150_4_"
     fill="#FFFFFF"
     d="M48.878,34.103c-4.006,1.338-9.268,2.193-15.042,2.277  c-12.496,0.178-22.703-3.316-22.96-7.826c0,0-0.063-1.061,0-2.832l0.004-0.039c0.92,4.24,10.438,8.072,22.247,8.775  c5.283,0.314,10.193-0.051,14.126-0.914c0,0,0.732,0.227,1.597,0.549L48.878,34.103L48.878,34.103z" /><path
     id="path152_4_"
     fill="#FFFFFF"
     d="M56.44,40.604c-0.994,4.232-10.698,7.676-22.608,7.848  c-11.4,0.164-20.753-2.697-22.525-6.633c0,0-0.187-0.416-0.252-0.842c0,0-0.18-0.717-0.18-3.076l0.004-0.148  c0.929,4.236,10.441,8.076,22.242,8.779c11.977,0.713,21.944-2.133,23.302-5.936L56.44,40.604L56.44,40.604z" /><path
     id="path194_6_"
     fill="#FFFFFF"
     d="M131,21.72V20h-1v-1h2v1h-1V21.72L131,21.72z" /><path
     id="path196_6_"
     fill="#FFFFFF"
     d="M133,21.72V19h0.631l0.746,2.047c0.069,0.191,0.122,0.331,0.151,0.428  c0.035-0.107,0.093-0.26,0.169-0.463L135.454,19H136v3h-1v-2.538L134.693,22h-0.375L133,19.421V21.72L133,21.72L133,21.72z" /><path
     fill="#FFFFFF"
     d="M63,65V53h1.301L69,62.704V53h2v12h-1.632L64,55.843V65H63z"
     id="path3280" /><path
     fill="#FFFFFF"
     d="M77.586,62.464l1.24,0.188c-0.207,0.925-0.581,1.623-1.122,2.093c-0.542,0.471-1.212,0.706-2.012,0.706  c-1.007,0-1.821-0.382-2.444-1.146s-0.934-1.867-0.934-3.309c0-1.496,0.313-2.637,0.942-3.423c0.628-0.786,1.424-1.179,2.387-1.179  c0.919,0,1.687,0.386,2.301,1.159c0.615,0.772,0.923,1.742,0.923,3.205L78.858,61h-5.304c0.049,1,0.274,1.857,0.677,2.352  c0.403,0.495,0.893,0.817,1.469,0.817C76.604,64.169,77.231,63.65,77.586,62.464z M73.628,60h3.966  c-0.055-1-0.215-1.266-0.481-1.636c-0.387-0.539-0.879-0.786-1.477-0.786c-0.539,0-0.999,0.191-1.38,0.64S73.666,59,73.628,60z"
     id="path3282" /><path
     fill="#FFFFFF"
     d="M79.895,60.922c0-1.496,0.314-2.625,0.942-3.387c0.628-0.761,1.424-1.142,2.387-1.142  c0.946,0,1.738,0.381,2.375,1.142c0.637,0.762,0.954,1.861,0.954,3.297c0,1.556-0.312,2.715-0.938,3.476  c-0.625,0.762-1.422,1.143-2.391,1.143c-0.952,0-1.745-0.382-2.379-1.146S79.895,62.413,79.895,60.922z M81.127,60.918  c0,1.122,0.204,1.957,0.611,2.504c0.408,0.547,0.914,0.821,1.519,0.821c0.565,0,1.051-0.276,1.456-0.83  c0.405-0.553,0.608-1.385,0.608-2.496c0-1.117-0.204-1.949-0.612-2.496s-0.914-0.821-1.518-0.821c-0.571,0-1.059,0.275-1.461,0.825  C81.328,58.977,81.127,59.807,81.127,60.918z"
     id="path3284" /><path
     fill="#FFFFFF"
     d="M88.349,58.262v-1.673h1.371v1.673H88.349z M88.349,65.255v-1.673h1.371v1.673H88.349z"
     id="path3286" /><path
     fill="#FFFFFF"
     d="M90.96,65l3.801-6.256L91.408,53h1.544l1.793,3.211c0.368,0.629,0.628,1.193,0.778,1.549  c0.211-0.426,0.471-0.99,0.778-1.472L98.286,53h1.396l-3.438,5.647L99.952,65h-1.6l-2.476-4.138  c-0.139-0.238-0.277-0.442-0.419-0.739c-0.223,0.437-0.383,0.639-0.479,0.8L92.519,65H90.96z"
     id="path3288" /></svg>