<?xml version="1.0" encoding="UTF-8" standalone="no"?>
<!-- Generator: Adobe Illustrator 15.1.0, SVG Export Plug-In  -->

<svg
   xmlns:dc="http://purl.org/dc/elements/1.1/"
   xmlns:cc="http://creativecommons.org/ns#"
   xmlns:rdf="http://www.w3.org/1999/02/22-rdf-syntax-ns#"
   xmlns:svg="http://www.w3.org/2000/svg"
   xmlns="http://www.w3.org/2000/svg"
   xmlns:sodipodi="http://sodipodi.sourceforge.net/DTD/sodipodi-0.dtd"
   xmlns:inkscape="http://www.inkscape.org/namespaces/inkscape"
   version="1.1"
   x="0px"
   y="0px"
   width="147px"
   height="80px"
   viewBox="0 0 147 80"
   overflow="visible"
   enable-background="new 0 0 147 80"
   xml:space="preserve"
   id="svg3155"
   inkscape:version="0.48.4 r9939"
   sodipodi:docname="meridian_hover_147_80.svg"><metadata
     id="metadata3186"><rdf:RDF><cc:Work
         rdf:about=""><dc:format>image/svg+xml</dc:format><dc:type
           rdf:resource="http://purl.org/dc/dcmitype/StillImage" /></cc:Work></rdf:RDF></metadata><sodipodi:namedview
     pagecolor="#ffffff"
     bordercolor="#666666"
     borderopacity="1"
     objecttolerance="10"
     gridtolerance="10"
     guidetolerance="10"
     inkscape:pageopacity="0"
     inkscape:pageshadow="2"
     inkscape:window-width="1727"
     inkscape:window-height="1320"
     id="namedview3184"
     showgrid="false"
     inkscape:zoom="10.62585"
     inkscape:cx="73.5"
     inkscape:cy="40"
     inkscape:window-x="65"
     inkscape:window-y="24"
     inkscape:window-maximized="1"
     inkscape:current-layer="svg3155" /><defs
     id="defs3157" /><path
     fill="#FFFFFF"
     d="M95.752,15.136L72.377,6.12L49,15.136l0,0l0,0V42.13l23.5,9.018L96,42.13V15.14L95.752,15.136z M51,40.569  v-8.998l3.828,1.518l5.301,7.873l1.896,3.877L51,40.569z M56.85,32.884c0.487-0.098,0.78-0.205,1.29-0.277l4.58,1.76  c0.628,0.842,1.309,1.568,1.803,2.184l-3.627,2.357L56.85,32.884z M71,48.327l-6.686-2.559l-2.11-4.506l4.063-2.545L71,40.528  V48.327z M71,38.128l-4.34-1.658c-0.799-0.904-2.544-2.979-3.101-3.568l-0.254-0.113l-5.54-2.127c0,0-1.559-0.043-2.646,0.139  L51,29.171V18.374l20,7.758V38.128z M51.673,16.341l20.354-7.852l20.338,7.85l-20.348,7.812L51.673,16.341z M79.732,45.769  L73,48.327v-7.799l4.783-1.811l4.049,2.545L79.732,45.769z M79.571,36.55c0.493-0.615,1.174-1.342,1.803-2.184l4.579-1.76  c0.431,0.043,0.802,0.18,1.29,0.277l-4.045,6.023L79.571,36.55z M93,40.569l-10.945,4.27l1.886-3.877l5.237-7.873L93,31.571V40.569z   M93,29.171L88.928,30.8c-1.088-0.182-2.679-0.139-2.679-0.139l-5.496,2.127l-0.227,0.113c-0.559,0.59-2.353,2.664-3.149,3.568  L73,38.128V26.132l20-7.758V29.171z"
     id="path3180" /><path
     fill="#FFFFFF"
     d="M48,65h5v-2h-5v-3h7v-2H45v12h10v-2h-7V65z M68.089,63.554c0.554-0.598,0.83-1.361,0.83-2.316  c0-1.158-0.416-1.878-1.248-2.494C66.769,58.054,65.753,58,63.534,58H58v12h3v-5h1.816l3.491,5h3.189l-3.789-5.295  C66.976,64.425,67.508,64.149,68.089,63.554z M63.257,63H61v-3h2.257c1.894,0,2.657,0.27,2.657,1.443  C65.914,62.674,65.106,63,63.257,63z M73,70h3V58h-3V70z M91.76,59.638C90.259,58.351,88.454,58,85.564,58H80v12h5.542  c2.75,0,4.762-0.61,6.172-1.823c1.34-1.158,2.102-2.665,2.102-4.308C93.815,62.266,93.076,60.775,91.76,59.638z M85.263,68H83v-8  h2.263c1.666,0,2.847,0.11,3.654,0.592c1.088,0.652,1.756,1.923,1.756,3.322C90.673,66.545,88.731,68,85.263,68z M97,70h3V58h-3V70z   M108.059,58l-5.524,12h3.049l1.249-3h5.11l1.201,3h3.049l-5.521-12H108.059z M107.62,65l1.756-4.461L111.154,65H107.62z   M30.961,65.561L30.956,58H28.03L13.137,74h3.513L28,61.19V70h2.153L38,61.198V70h3V58h-2.994L30.961,65.561z M129,58v8.677  c0,0-0.171-0.492-0.394-0.748L122.39,58H119v12h3v-8.937c0,0.205,0.174,0.461,0.619,1.008L129.072,70H132V58H129z"
     id="path3182" /></svg>