<?xml version="1.0" encoding="UTF-8" standalone="no"?>
<!-- Generator: Adobe Illustrator 15.1.0, SVG Export Plug-In  -->

<svg
   xmlns:dc="http://purl.org/dc/elements/1.1/"
   xmlns:cc="http://creativecommons.org/ns#"
   xmlns:rdf="http://www.w3.org/1999/02/22-rdf-syntax-ns#"
   xmlns:svg="http://www.w3.org/2000/svg"
   xmlns="http://www.w3.org/2000/svg"
   xmlns:sodipodi="http://sodipodi.sourceforge.net/DTD/sodipodi-0.dtd"
   xmlns:inkscape="http://www.inkscape.org/namespaces/inkscape"
   version="1.1"
   x="0px"
   y="0px"
   width="147px"
   height="80px"
   viewBox="0 0 147 80"
   overflow="visible"
   enable-background="new 0 0 147 80"
   xml:space="preserve"
   id="svg3188"
   inkscape:version="0.48.4 r9939"
   sodipodi:docname="meridian2D_hover_147_80.svg"><metadata
     id="metadata3219"><rdf:RDF><cc:Work
         rdf:about=""><dc:format>image/svg+xml</dc:format><dc:type
           rdf:resource="http://purl.org/dc/dcmitype/StillImage" /></cc:Work></rdf:RDF></metadata><sodipodi:namedview
     pagecolor="#ffffff"
     bordercolor="#666666"
     borderopacity="1"
     objecttolerance="10"
     gridtolerance="10"
     guidetolerance="10"
     inkscape:pageopacity="0"
     inkscape:pageshadow="2"
     inkscape:window-width="640"
     inkscape:window-height="480"
     id="namedview3217"
     showgrid="false"
     inkscape:zoom="1.9863946"
     inkscape:cx="73.5"
     inkscape:cy="40"
     inkscape:window-x="65"
     inkscape:window-y="24"
     inkscape:window-maximized="0"
     inkscape:current-layer="svg3188" /><defs
     id="defs3190" /><path
     fill="#FFFFFF"
     d="M51,7v43h43V7H51z M90,11v19h-7.752c-1.377-1-4.383-3.271-5.349-3.865L76.473,26h-9.589l-0.3-0.068  C66.277,26.047,63.98,27,62.1,28H55V11H90z M72.31,37.327l-7.004-7.078C66.147,29.802,66.996,30,67.538,29h7.928  c1.091,1,2.267,1.714,3.122,2.382L72.31,37.327z M55,32h6.594l9.283,9.072L74,46H55V32z M78.188,46l-3.633-5.684L81.562,34H90v12  H78.188z"
     id="path3213" /><path
     fill="#FFFFFF"
     d="M48,64h5v-2h-5v-3h7v-2H45v13h10v-2h-7V64z M68.089,63.157c0.554-0.598,0.83-1.361,0.83-2.316  c0-1.158-0.416-2.181-1.248-2.796C66.769,57.355,65.753,57,63.534,57H58v13h3v-5h1.816l3.491,5h3.189l-3.789-5.494  C66.976,64.227,67.508,63.753,68.089,63.157z M63.257,63H61v-4h2.257c1.894,0,2.657,0.77,2.657,1.943  C65.914,62.174,65.106,63,63.257,63z M73,70h3V57h-3V70z M91.76,58.939C90.259,57.652,88.454,57,85.564,57H80v13h5.542  c2.75,0,4.762-0.809,6.172-2.021c1.34-1.158,2.102-2.914,2.102-4.557C93.815,61.818,93.076,60.076,91.76,58.939z M85.263,68H83v-9  h2.263c1.666,0,2.847,0.412,3.654,0.895c1.088,0.652,1.756,2.272,1.756,3.671C90.673,66.196,88.731,68,85.263,68z M97,70h3V57h-3V70  z M108.059,57l-5.524,13h3.049l1.249-3h5.11l1.201,3h3.049l-5.521-13H108.059z M107.62,65l1.756-4.461L111.154,65H107.62z   M30.961,64.561L30.956,57H28.03L13.137,73h3.513L28,60.794V70h2.153L38,60.802V70h3V57h-2.994L30.961,64.561z M129,57v9.28  c0,0-0.171-0.794-0.394-1.05L122.39,57H119v13h3v-9.333c0,0.205,0.174,0.659,0.619,1.206L129.072,70H132V57H129z"
     id="path3215" /></svg>