<?xml version="1.0" encoding="utf-8"?>
<!-- Generator: Adobe Illustrator 16.0.0, SVG Export Plug-In . SVG Version: 6.00 Build 0)  -->
<!DOCTYPE svg PUBLIC "-//W3C//DTD SVG 1.1//EN" "http://www.w3.org/Graphics/SVG/1.1/DTD/svg11.dtd">
<svg version="1.1" id="Layer_1" xmlns="http://www.w3.org/2000/svg" xmlns:xlink="http://www.w3.org/1999/xlink" x="0px" y="0px"
	 width="501px" height="92px" viewBox="-214.5 195.5 501 92" enable-background="new -214.5 195.5 501 92" xml:space="preserve">
<linearGradient id="SVGID_1_" gradientUnits="userSpaceOnUse" x1="360" y1="-463" x2="360" y2="436.1088" gradientTransform="matrix(1 0 0 -1 0 483)">
	<stop  offset="0" style="stop-color:#041724"/>
	<stop  offset="1" style="stop-color:#000000"/>
</linearGradient>
<rect display="none" fill="url(#SVGID_1_)" width="720" height="1001"/>
<circle display="none" fill="#31ABFF" stroke="#31ABFF" stroke-width="0.5936" stroke-miterlimit="10" cx="87.502" cy="524.197" r="6.141"/>
<circle display="none" fill="#31ABFF" fill-opacity="0.45" cx="87.502" cy="524.197" r="10.912"/>
<line display="none" fill="none" stroke="#31ABFF" stroke-width="2" stroke-miterlimit="10" x1="88" y1="529" x2="88" y2="607"/>
<polyline display="none" fill="#31ABFF" fill-opacity="0.29" stroke="#31ABFF" stroke-width="0.2319" stroke-miterlimit="10" stroke-opacity="0.64" points="
	64,596.969 64,606.938 21,606.938 21,581.018 64,581.018 64,596.969 "/>
<polyline display="none" fill="#31ABFF" fill-opacity="0.29" stroke="#31ABFF" stroke-width="0.2319" stroke-miterlimit="10" stroke-opacity="0.64" points="
	64,561.967 64,571.938 21,571.938 21,546.016 64,546.016 64,561.967 "/>
<polyline display="none" fill="#31ABFF" fill-opacity="0.29" stroke="#31ABFF" stroke-width="0.2319" stroke-miterlimit="10" stroke-opacity="0.64" points="
	64,526.966 64,536.935 21,536.935 21,511.015 64,511.015 64,526.966 "/>
<polyline display="none" fill="#31ABFF" fill-opacity="0.29" stroke="#31ABFF" stroke-width="0.2319" stroke-miterlimit="10" stroke-opacity="0.64" points="
	64,491.964 64,501.934 21,501.934 21,476.014 64,476.014 64,491.964 "/>
<polyline display="none" fill="#31ABFF" fill-opacity="0.29" stroke="#31ABFF" stroke-width="0.2319" stroke-miterlimit="10" stroke-opacity="0.64" points="
	64,456.963 64,466.932 21,466.932 21,441.012 64,441.012 64,456.963 "/>
<polyline display="none" fill="#31ABFF" fill-opacity="0.29" stroke="#31ABFF" stroke-width="0.2319" stroke-miterlimit="10" stroke-opacity="0.64" points="
	64,421.961 64,431.931 21,431.931 21,406.01 64,406.01 64,421.961 "/>
<polyline display="none" fill="#31ABFF" fill-opacity="0.29" stroke="#31ABFF" stroke-width="0.2319" stroke-miterlimit="10" stroke-opacity="0.64" points="
	64,386.96 64,396.929 21,396.929 21,371.009 64,371.009 64,386.96 "/>
<polyline display="none" fill="#31ABFF" fill-opacity="0.29" stroke="#31ABFF" stroke-width="0.2319" stroke-miterlimit="10" stroke-opacity="0.64" points="
	64,351.959 64,361.928 21,361.928 21,336.008 64,336.008 64,351.959 "/>
<polyline display="none" fill="#31ABFF" fill-opacity="0.29" stroke="#31ABFF" stroke-width="0.2319" stroke-miterlimit="10" stroke-opacity="0.64" points="
	64,316.958 64,326.927 21,326.927 21,301.007 64,301.007 64,316.958 "/>
<polyline display="none" fill="#31ABFF" fill-opacity="0.29" stroke="#31ABFF" stroke-width="0.2319" stroke-miterlimit="10" stroke-opacity="0.64" points="
	64,281.956 64,291.925 21,291.925 21,266.005 64,266.005 64,281.956 "/>
<polyline display="none" fill="#31ABFF" fill-opacity="0.29" stroke="#31ABFF" stroke-width="0.2319" stroke-miterlimit="10" stroke-opacity="0.64" points="
	64,246.955 64,256.924 21,256.924 21,231.004 64,231.004 64,246.955 "/>
<polyline display="none" fill="#31ABFF" fill-opacity="0.29" stroke="#31ABFF" stroke-width="0.2319" stroke-miterlimit="10" stroke-opacity="0.64" points="
	64,211.954 64,221.923 21,221.923 21,196.003 64,196.003 64,211.954 "/>
<polyline display="none" fill="#31ABFF" fill-opacity="0.29" stroke="#31ABFF" stroke-width="0.2319" stroke-miterlimit="10" stroke-opacity="0.64" points="
	64,176.952 64,186.921 21,186.921 21,161.001 64,161.001 64,176.952 "/>
<polyline display="none" fill="#31ABFF" fill-opacity="0.29" stroke="#31ABFF" stroke-width="0.2319" stroke-miterlimit="10" stroke-opacity="0.64" points="
	64,141.951 64,151.92 21,151.92 21,126 64,126 64,141.951 "/>
<line display="none" fill="none" stroke="#31ABFF" stroke-miterlimit="10" x1="80.5" y1="126" x2="80.5" y2="607"/>
<rect x="-207.5" y="273.5" fill="#31ABFF" width="482" height="2"/>
<polyline fill="#31ABFF" stroke="#31ABFF" stroke-width="0.2319" stroke-miterlimit="10" stroke-opacity="0.64" points="
	-195.469,250.5 -205.438,250.5 -205.438,207.5 -179.518,207.5 -179.518,250.5 -195.469,250.5 "/>
<polyline fill="#31ABFF" stroke="#31ABFF" stroke-width="0.2319" stroke-miterlimit="10" stroke-opacity="0.64" points="
	-160.467,250.5 -170.438,250.5 -170.438,207.5 -144.516,207.5 -144.516,250.5 -160.467,250.5 "/>
<polyline fill="#31ABFF" stroke="#31ABFF" stroke-width="0.2319" stroke-miterlimit="10" stroke-opacity="0.64" points="
	-125.466,250.5 -135.435,250.5 -135.435,207.5 -109.515,207.5 -109.515,250.5 -125.466,250.5 "/>
<polyline fill="#31ABFF" stroke="#31ABFF" stroke-width="0.2319" stroke-miterlimit="10" stroke-opacity="0.64" points="
	-90.464,250.5 -100.434,250.5 -100.434,207.5 -74.514,207.5 -74.514,250.5 -90.464,250.5 "/>
<polyline fill="#31ABFF" stroke="#31ABFF" stroke-width="0.2319" stroke-miterlimit="10" stroke-opacity="0.64" points="
	-55.463,250.5 -65.432,250.5 -65.432,207.5 -39.512,207.5 -39.512,250.5 -55.463,250.5 "/>
<polyline fill="#31ABFF" stroke="#31ABFF" stroke-width="0.2319" stroke-miterlimit="10" stroke-opacity="0.64" points="
	-20.461,250.5 -30.431,250.5 -30.431,207.5 -4.51,207.5 -4.51,250.5 -20.461,250.5 "/>
<polyline fill="#31ABFF" stroke="#31ABFF" stroke-width="0.2319" stroke-miterlimit="10" stroke-opacity="0.64" points="
	14.54,250.5 4.571,250.5 4.571,207.5 30.491,207.5 30.491,250.5 14.54,250.5 "/>
<polyline fill="#31ABFF" stroke="#31ABFF" stroke-width="0.2319" stroke-miterlimit="10" stroke-opacity="0.64" points="
	49.541,250.5 39.572,250.5 39.572,207.5 65.492,207.5 65.492,250.5 49.541,250.5 "/>
<polyline fill="#31ABFF" stroke="#31ABFF" stroke-width="0.2319" stroke-miterlimit="10" stroke-opacity="0.64" points="
	84.542,250.5 74.573,250.5 74.573,207.5 100.493,207.5 100.493,250.5 84.542,250.5 "/>
<polyline fill="#31ABFF" stroke="#31ABFF" stroke-width="0.2319" stroke-miterlimit="10" stroke-opacity="0.64" points="
	119.544,250.5 109.575,250.5 109.575,207.5 135.495,207.5 135.495,250.5 119.544,250.5 "/>
<polyline fill="#31ABFF" stroke="#31ABFF" stroke-width="0.2319" stroke-miterlimit="10" stroke-opacity="0.64" points="
	154.545,250.5 144.576,250.5 144.576,207.5 170.496,207.5 170.496,250.5 154.545,250.5 "/>
<polyline fill="#31ABFF" stroke="#31ABFF" stroke-width="0.2319" stroke-miterlimit="10" stroke-opacity="0.64" points="
	189.546,250.5 179.577,250.5 179.577,207.5 205.497,207.5 205.497,250.5 189.546,250.5 "/>
<polyline fill="#31ABFF" stroke="#31ABFF" stroke-width="0.2319" stroke-miterlimit="10" stroke-opacity="0.64" points="
	224.548,250.5 214.579,250.5 214.579,207.5 240.499,207.5 240.499,250.5 224.548,250.5 "/>
<polyline fill="#31ABFF" stroke="#31ABFF" stroke-width="0.2319" stroke-miterlimit="10" stroke-opacity="0.64" points="
	259.549,250.5 249.58,250.5 249.58,207.5 275.5,207.5 275.5,250.5 259.549,250.5 "/>
</svg>
