<?xml version="1.0" encoding="utf-8"?>
<!-- Generator: Adobe Illustrator 16.0.0, SVG Export Plug-In . SVG Version: 6.00 Build 0)  -->
<!DOCTYPE svg PUBLIC "-//W3C//DTD SVG 1.1//EN" "http://www.w3.org/Graphics/SVG/1.1/DTD/svg11.dtd">
<svg version="1.1" id="Layer_1" xmlns="http://www.w3.org/2000/svg" xmlns:xlink="http://www.w3.org/1999/xlink" x="0px" y="0px"
	 width="503px" height="77px" viewBox="0 0 503 77" enable-background="new 0 0 503 77" xml:space="preserve">
<polyline fill="#55A4DA" fill-opacity="0.29" stroke="#55A4DA" stroke-width="0.2319" stroke-miterlimit="10" stroke-opacity="0.64" points="
	22.41,51.75 12.441,51.75 12.441,8.75 38.361,8.75 38.361,51.75 22.41,51.75 "/>
<polyline fill="#55A4DA" fill-opacity="0.29" stroke="#55A4DA" stroke-width="0.2319" stroke-miterlimit="10" stroke-opacity="0.64" points="
	57.412,51.75 47.441,51.75 47.441,8.75 73.363,8.75 73.363,51.75 57.412,51.75 "/>
<polyline fill="#55A4DA" fill-opacity="0.29" stroke="#55A4DA" stroke-width="0.2319" stroke-miterlimit="10" stroke-opacity="0.64" points="
	92.413,51.75 82.444,51.75 82.444,8.75 108.364,8.75 108.364,51.75 92.413,51.75 "/>
<polyline fill="#55A4DA" fill-opacity="0.29" stroke="#55A4DA" stroke-width="0.2319" stroke-miterlimit="10" stroke-opacity="0.64" points="
	127.415,51.75 117.445,51.75 117.445,8.75 143.365,8.75 143.365,51.75 127.415,51.75 "/>
<polyline fill="#55A4DA" fill-opacity="0.29" stroke="#55A4DA" stroke-width="0.2319" stroke-miterlimit="10" stroke-opacity="0.64" points="
	162.416,51.75 152.447,51.75 152.447,8.75 178.367,8.75 178.367,51.75 162.416,51.75 "/>
<polyline fill="#55A4DA" fill-opacity="0.29" stroke="#55A4DA" stroke-width="0.2319" stroke-miterlimit="10" stroke-opacity="0.64" points="
	197.418,51.75 187.448,51.75 187.448,8.75 213.369,8.75 213.369,51.75 197.418,51.75 "/>
<polyline fill="#55A4DA" fill-opacity="0.29" stroke="#55A4DA" stroke-width="0.2319" stroke-miterlimit="10" stroke-opacity="0.64" points="
	232.419,51.75 222.45,51.75 222.45,8.75 248.37,8.75 248.37,51.75 232.419,51.75 "/>
<polyline fill="#55A4DA" fill-opacity="0.29" stroke="#55A4DA" stroke-width="0.2319" stroke-miterlimit="10" stroke-opacity="0.64" points="
	267.42,51.75 257.451,51.75 257.451,8.75 283.371,8.75 283.371,51.75 267.42,51.75 "/>
<polyline fill="#55A4DA" fill-opacity="0.29" stroke="#55A4DA" stroke-width="0.2319" stroke-miterlimit="10" stroke-opacity="0.64" points="
	302.421,51.75 292.452,51.75 292.452,8.75 318.372,8.75 318.372,51.75 302.421,51.75 "/>
<polyline fill="#55A4DA" fill-opacity="0.29" stroke="#55A4DA" stroke-width="0.2319" stroke-miterlimit="10" stroke-opacity="0.64" points="
	337.423,51.75 327.454,51.75 327.454,8.75 353.374,8.75 353.374,51.75 337.423,51.75 "/>
<polyline fill="#55A4DA" fill-opacity="0.29" stroke="#55A4DA" stroke-width="0.2319" stroke-miterlimit="10" stroke-opacity="0.64" points="
	372.424,51.75 362.455,51.75 362.455,8.75 388.375,8.75 388.375,51.75 372.424,51.75 "/>
<polyline fill="#55A4DA" fill-opacity="0.29" stroke="#55A4DA" stroke-width="0.2319" stroke-miterlimit="10" stroke-opacity="0.64" points="
	407.425,51.75 397.456,51.75 397.456,8.75 423.376,8.75 423.376,51.75 407.425,51.75 "/>
<polyline fill="#55A4DA" fill-opacity="0.29" stroke="#55A4DA" stroke-width="0.2319" stroke-miterlimit="10" stroke-opacity="0.64" points="
	442.427,51.75 432.458,51.75 432.458,8.75 458.378,8.75 458.378,51.75 442.427,51.75 "/>
<polyline fill="#55A4DA" fill-opacity="0.29" stroke="#55A4DA" stroke-width="0.2319" stroke-miterlimit="10" stroke-opacity="0.64" points="
	477.428,51.75 467.459,51.75 467.459,8.75 493.379,8.75 493.379,51.75 477.428,51.75 "/>
<line fill="none" stroke="#55A4DA" stroke-miterlimit="10" x1="493.379" y1="68.25" x2="12.379" y2="68.25"/>
</svg>
