<?xml version="1.0" encoding="UTF-8" standalone="no"?>
<!-- Generator: Adobe Illustrator 15.1.0, SVG Export Plug-In  -->

<svg
   xmlns:dc="http://purl.org/dc/elements/1.1/"
   xmlns:cc="http://creativecommons.org/ns#"
   xmlns:rdf="http://www.w3.org/1999/02/22-rdf-syntax-ns#"
   xmlns:svg="http://www.w3.org/2000/svg"
   xmlns="http://www.w3.org/2000/svg"
   xmlns:xlink="http://www.w3.org/1999/xlink"
   xmlns:sodipodi="http://sodipodi.sourceforge.net/DTD/sodipodi-0.dtd"
   xmlns:inkscape="http://www.inkscape.org/namespaces/inkscape"
   version="1.1"
   x="0px"
   y="0px"
   width="720"
   height="610"
   viewBox="-28 0 720 610"
   overflow="visible"
   enable-background="new -28 0 720 585"
   xml:space="preserve"
   id="svg3362"
   inkscape:version="0.48.4 r9939"
   sodipodi:docname="static_elements_720_585.svg"
   style="overflow:visible"><metadata
     id="metadata3702"><rdf:RDF><cc:Work
         rdf:about=""><dc:format>image/svg+xml</dc:format><dc:type
           rdf:resource="http://purl.org/dc/dcmitype/StillImage" /></cc:Work></rdf:RDF></metadata><sodipodi:namedview
     pagecolor="#ffffff"
     bordercolor="#666666"
     borderopacity="1"
     objecttolerance="10"
     gridtolerance="10"
     guidetolerance="10"
     inkscape:pageopacity="0"
     inkscape:pageshadow="2"
     inkscape:window-width="1855"
     inkscape:window-height="1000"
     id="namedview3700"
     showgrid="false"
     inkscape:zoom="1.6136752"
     inkscape:cx="143.39933"
     inkscape:cy="355.35115"
     inkscape:window-x="65"
     inkscape:window-y="24"
     inkscape:window-maximized="1"
     inkscape:current-layer="svg3362"
     showborder="false"
     showguides="true"
     inkscape:guide-bbox="true"><sodipodi:guide
       orientation="1,0"
       position="76.223516,485.84745"
       id="guide5413" /><sodipodi:guide
       orientation="1,0"
       position="190.24894,495.143"
       id="guide5415" /><sodipodi:guide
       orientation="1,0"
       position="301.79555,353.23093"
       id="guide5417" /></sodipodi:namedview><defs
     id="defs3364"><symbol
       id="arrow_4_"
       viewBox="-96.751 -28.408 193.525 57.159"><g
         id="g3367"><polygon
           stroke-miterlimit="10"
           points="96.431,-28.064 -96.407,-28.064 -96.407,28.408 96.431,28.408 "
           id="polygon3369"
           style="fill:#31abff;fill-opacity:0.28999999;stroke:#31abff;stroke-width:0.68660003;stroke-miterlimit:10;stroke-opacity:0.63999999" /></g><g
         id="g3371"><polygon
           points="0.057,12.155 12.155,-11.619 -12.042,-11.619 "
           id="polygon3373"
           style="opacity:0.5;fill:#31abff" /><path
           d="M 0.057,8.849 9.709,-10.119 H -9.596 L 0.057,8.849 m 0,5.483 c -0.354,0 -0.71,-0.265 -0.979,-0.794 l -12.586,-24.732 c -0.539,-1.059 -0.008,-1.925 1.181,-1.925 h 24.77 c 1.188,0 1.72,0.866 1.181,1.925 L 1.036,13.538 c -0.269,0.529 -0.625,0.794 -0.979,0.794 l 0,0 z"
           id="path3375"
           inkscape:connector-curvature="0"
           style="fill:#31abff" /></g></symbol></defs><g
     display="none"
     id="g3377"
     style="display:none"
     transform="translate(0,25)"><g
       display="inline"
       id="g3379"
       style="display:inline"><path
         display="none"
         d="m 28.635,82.202 v 2.6 h -9.878 v -2.6 h 9.878 z"
         id="path3381"
         inkscape:connector-curvature="0"
         style="fill:#8fd7ff;display:none" /><path
         display="none"
         d="m 31.636,94.32 v -2.16 l 2.759,-2.68 c 6.639,-6.319 9.639,-9.678 9.679,-13.598 0,-2.64 -1.28,-5.079 -5.159,-5.079 -2.36,0 -4.319,1.2 -5.519,2.2 l -1.12,-2.479 c 1.8,-1.52 4.359,-2.64 7.359,-2.64 5.599,0 7.958,3.839 7.958,7.559 0,4.799 -3.479,8.679 -8.958,13.958 l -2.08,1.919 v 0.08 h 11.678 v 2.919 H 31.636 z"
         id="path3383"
         inkscape:connector-curvature="0"
         style="fill:#8fd7ff;display:none" /></g></g><g
     display="none"
     id="g3385"
     style="display:none"
     transform="translate(0,25)"><g
       display="inline"
       id="g3387"
       style="display:inline"><path
         display="none"
         d="m 142.649,82.202 v 2.6 h -9.878 v -2.6 h 9.878 z"
         id="path3389"
         inkscape:connector-curvature="0"
         style="fill:#8fd7ff;display:none" /><path
         display="none"
         d="m 145.651,94.32 v -2.16 l 2.759,-2.68 c 6.639,-6.319 9.639,-9.678 9.679,-13.598 0,-2.64 -1.28,-5.079 -5.159,-5.079 -2.36,0 -4.319,1.2 -5.519,2.2 l -1.12,-2.479 c 1.8,-1.52 4.359,-2.64 7.359,-2.64 5.599,0 7.958,3.839 7.958,7.559 0,4.799 -3.479,8.679 -8.958,13.958 l -2.08,1.919 v 0.08 h 11.678 v 2.919 h -16.597 z"
         id="path3391"
         inkscape:connector-curvature="0"
         style="fill:#8fd7ff;display:none" /></g></g><g
     display="none"
     id="g3393"
     style="display:none"
     transform="translate(0,25)"><g
       display="inline"
       id="g3395"
       style="display:inline"><path
         display="none"
         d="m 252.607,82.202 v 2.6 h -9.878 v -2.6 h 9.878 z"
         id="path3397"
         inkscape:connector-curvature="0"
         style="fill:#8fd7ff;display:none" /><path
         display="none"
         d="m 255.609,94.32 v -2.16 l 2.759,-2.68 c 6.639,-6.319 9.639,-9.678 9.679,-13.598 0,-2.64 -1.28,-5.079 -5.159,-5.079 -2.36,0 -4.319,1.2 -5.519,2.2 l -1.12,-2.479 c 1.8,-1.52 4.359,-2.64 7.359,-2.64 5.599,0 7.958,3.839 7.958,7.559 0,4.799 -3.479,8.679 -8.958,13.958 l -2.08,1.919 v 0.08 h 11.678 v 2.919 h -16.597 z"
         id="path3399"
         inkscape:connector-curvature="0"
         style="fill:#8fd7ff;display:none" /></g></g><g
     display="none"
     id="g3401"
     style="display:none"
     transform="translate(0,25)"><g
       display="inline"
       id="g3403"
       style="display:inline"><path
         display="none"
         d="m 12.074,37.798 c 0.835,-0.167 2.527,-0.292 4.115,-0.292 1.942,0 3.133,0.188 4.156,0.793 0.982,0.522 1.692,1.483 1.692,2.757 0,1.253 -0.731,2.423 -2.318,3.008 v 0.042 c 1.608,0.439 2.799,1.65 2.799,3.468 0,1.274 -0.585,2.277 -1.462,2.987 -1.023,0.814 -2.736,1.274 -5.536,1.274 -1.566,0 -2.736,-0.104 -3.446,-0.208 V 37.798 z m 3.155,5.39 h 1.044 c 1.672,0 2.569,-0.689 2.569,-1.734 0,-1.065 -0.814,-1.629 -2.256,-1.629 -0.689,0 -1.086,0.042 -1.357,0.083 v 3.28 z m 0,6.246 c 0.313,0.042 0.689,0.042 1.232,0.042 1.441,0 2.716,-0.543 2.716,-2.026 0,-1.42 -1.274,-1.984 -2.862,-1.984 h -1.086 v 3.968 z"
         id="path3405"
         inkscape:connector-curvature="0"
         style="fill:#ffffff;display:none" /><path
         display="none"
         d="m 27.889,48.076 -1.003,3.614 h -3.3 l 4.303,-14.08 h 4.178 l 4.366,14.08 H 33.007 L 31.92,48.076 h -4.031 z m 3.572,-2.382 -0.877,-2.987 c -0.251,-0.835 -0.502,-1.88 -0.711,-2.716 h -0.042 c -0.208,0.836 -0.417,1.901 -0.647,2.716 l -0.835,2.987 h 3.112 z"
         id="path3407"
         inkscape:connector-curvature="0"
         style="fill:#ffffff;display:none" /><path
         display="none"
         d="m 38.419,48.41 c 0.856,0.439 2.172,0.877 3.53,0.877 1.462,0 2.235,-0.605 2.235,-1.525 0,-0.877 -0.669,-1.378 -2.361,-1.984 -2.339,-0.815 -3.864,-2.11 -3.864,-4.157 0,-2.402 2.006,-4.24 5.327,-4.24 1.587,0 2.757,0.334 3.593,0.71 l -0.71,2.57 c -0.564,-0.272 -1.567,-0.669 -2.945,-0.669 -1.379,0 -2.048,0.627 -2.048,1.358 0,0.898 0.794,1.295 2.611,1.985 2.486,0.919 3.655,2.214 3.655,4.199 0,2.36 -1.817,4.366 -5.682,4.366 -1.608,0 -3.196,-0.418 -3.989,-0.856 l 0.648,-2.634 z"
         id="path3409"
         inkscape:connector-curvature="0"
         style="fill:#ffffff;display:none" /><path
         display="none"
         d="m 49.701,48.41 c 0.856,0.439 2.172,0.877 3.53,0.877 1.462,0 2.235,-0.605 2.235,-1.525 0,-0.877 -0.669,-1.378 -2.361,-1.984 -2.339,-0.815 -3.864,-2.11 -3.864,-4.157 0,-2.402 2.006,-4.24 5.327,-4.24 1.587,0 2.757,0.334 3.593,0.71 l -0.71,2.57 c -0.564,-0.272 -1.567,-0.669 -2.945,-0.669 -1.379,0 -2.048,0.627 -2.048,1.358 0,0.898 0.794,1.295 2.611,1.985 2.486,0.919 3.655,2.214 3.655,4.199 0,2.36 -1.816,4.366 -5.682,4.366 -1.608,0 -3.196,-0.418 -3.989,-0.856 l 0.648,-2.634 z"
         id="path3411"
         inkscape:connector-curvature="0"
         style="fill:#ffffff;display:none" /></g></g><rect
     x="9.8839998"
     y="133.34601"
     display="none"
     stroke-miterlimit="10"
     width="53.675999"
     height="56.473999"
     id="rect3413"
     style="fill:#31abff;fill-opacity:0.28999999;stroke:#31abff;stroke-width:0.68660003;stroke-miterlimit:10;stroke-opacity:0.63999999;display:none" /><g
     display="none"
     id="g3415"
     style="display:none"
     transform="translate(0,25)"><g
       display="inline"
       id="g3417"
       style="display:inline"><path
         display="none"
         d="m 38.671,129.814 v 6.194 h 5.938 v 2.671 h -5.938 v 6.25 h -2.784 v -6.25 h -5.938 v -2.671 h 5.938 v -6.194 h 2.784 z"
         id="path3419"
         inkscape:connector-curvature="0"
         style="fill:#31abff;display:none" /></g></g><g
     display="none"
     id="g3421"
     style="display:none"
     transform="translate(0,25)"><g
       display="inline"
       id="g3423"
       style="display:inline"><path
         display="none"
         d="m 128.79,40.284 h -3.781 V 37.61 h 10.82 v 2.674 h -3.844 V 51.69 H 128.79 V 40.284 z"
         id="path3425"
         inkscape:connector-curvature="0"
         style="fill:#ffffff;display:none" /><path
         display="none"
         d="m 137.523,37.798 c 1.023,-0.167 2.548,-0.292 4.24,-0.292 2.089,0 3.551,0.313 4.554,1.107 0.836,0.668 1.295,1.65 1.295,2.945 0,1.796 -1.273,3.029 -2.485,3.468 v 0.062 c 0.981,0.397 1.524,1.337 1.88,2.632 0.438,1.587 0.878,3.426 1.149,3.969 h -3.259 c -0.23,-0.397 -0.564,-1.546 -0.982,-3.28 -0.376,-1.754 -0.981,-2.235 -2.276,-2.256 h -0.961 v 5.536 h -3.154 V 37.798 z m 3.155,6.058 h 1.253 c 1.588,0 2.527,-0.794 2.527,-2.026 0,-1.295 -0.877,-1.942 -2.339,-1.963 -0.773,0 -1.212,0.062 -1.441,0.104 v 3.885 z"
         id="path3427"
         inkscape:connector-curvature="0"
         style="fill:#ffffff;display:none" /><path
         display="none"
         d="m 158.288,45.736 h -5.18 v 3.342 h 5.786 v 2.611 h -8.982 V 37.61 h 8.689 v 2.611 h -5.493 v 2.924 h 5.18 v 2.591 z"
         id="path3429"
         inkscape:connector-curvature="0"
         style="fill:#ffffff;display:none" /><path
         display="none"
         d="m 161.068,37.798 c 0.835,-0.167 2.527,-0.292 4.115,-0.292 1.942,0 3.133,0.188 4.156,0.793 0.982,0.522 1.692,1.483 1.692,2.757 0,1.253 -0.731,2.423 -2.318,3.008 v 0.042 c 1.608,0.439 2.799,1.65 2.799,3.468 0,1.274 -0.585,2.277 -1.462,2.987 -1.023,0.814 -2.736,1.274 -5.536,1.274 -1.566,0 -2.736,-0.104 -3.446,-0.208 V 37.798 z m 3.155,5.39 h 1.044 c 1.672,0 2.569,-0.689 2.569,-1.734 0,-1.065 -0.814,-1.629 -2.256,-1.629 -0.689,0 -1.086,0.042 -1.357,0.083 v 3.28 z m 0,6.246 c 0.313,0.042 0.689,0.042 1.232,0.042 1.441,0 2.716,-0.543 2.716,-2.026 0,-1.42 -1.274,-1.984 -2.862,-1.984 h -1.086 v 3.968 z"
         id="path3431"
         inkscape:connector-curvature="0"
         style="fill:#ffffff;display:none" /><path
         display="none"
         d="m 173.688,37.61 h 3.196 v 11.406 h 5.598 v 2.674 h -8.794 V 37.61 z"
         id="path3433"
         inkscape:connector-curvature="0"
         style="fill:#ffffff;display:none" /><path
         display="none"
         d="m 192.739,45.736 h -5.18 v 3.342 h 5.786 v 2.611 h -8.982 V 37.61 h 8.689 v 2.611 h -5.493 v 2.924 h 5.18 v 2.591 z"
         id="path3435"
         inkscape:connector-curvature="0"
         style="fill:#ffffff;display:none" /></g></g><rect
     x="123.884"
     y="133.34601"
     display="none"
     stroke-miterlimit="10"
     width="53.675999"
     height="56.473999"
     id="rect3437"
     style="fill:#31abff;fill-opacity:0.28999999;stroke:#31abff;stroke-width:0.68660003;stroke-miterlimit:10;stroke-opacity:0.63999999;display:none" /><g
     display="none"
     id="g3439"
     style="display:none"
     transform="translate(0,25)"><g
       display="inline"
       id="g3441"
       style="display:inline"><path
         display="none"
         d="m 152.671,129.814 v 6.194 h 5.938 v 2.671 h -5.938 v 6.25 h -2.784 v -6.25 h -5.938 v -2.671 h 5.938 v -6.194 h 2.784 z"
         id="path3443"
         inkscape:connector-curvature="0"
         style="fill:#31abff;display:none" /></g></g><g
     display="none"
     id="g3445"
     style="display:none"
     transform="translate(0,25)"><g
       display="inline"
       id="g3447"
       style="display:inline"><path
         display="none"
         d="m 239.179,48.41 c 0.856,0.439 2.172,0.877 3.53,0.877 1.462,0 2.235,-0.605 2.235,-1.525 0,-0.877 -0.669,-1.378 -2.361,-1.984 -2.339,-0.815 -3.864,-2.11 -3.864,-4.157 0,-2.402 2.006,-4.24 5.327,-4.24 1.587,0 2.757,0.334 3.593,0.71 l -0.71,2.57 c -0.564,-0.272 -1.567,-0.669 -2.945,-0.669 -1.379,0 -2.048,0.627 -2.048,1.358 0,0.898 0.794,1.295 2.611,1.985 2.486,0.919 3.655,2.214 3.655,4.199 0,2.36 -1.817,4.366 -5.682,4.366 -1.608,0 -3.196,-0.418 -3.989,-0.856 l 0.648,-2.634 z"
         id="path3449"
         inkscape:connector-curvature="0"
         style="fill:#ffffff;display:none" /><path
         display="none"
         d="m 253.53,37.61 v 8.105 c 0,2.423 0.919,3.655 2.549,3.655 1.671,0 2.59,-1.169 2.59,-3.655 V 37.61 h 3.176 v 7.896 c 0,4.345 -2.193,6.413 -5.87,6.413 -3.552,0 -5.641,-1.964 -5.641,-6.455 V 37.61 h 3.196 z"
         id="path3451"
         inkscape:connector-curvature="0"
         style="fill:#ffffff;display:none" /><path
         display="none"
         d="m 264.604,37.798 c 0.835,-0.167 2.527,-0.292 4.115,-0.292 1.942,0 3.133,0.188 4.156,0.793 0.982,0.522 1.692,1.483 1.692,2.757 0,1.253 -0.731,2.423 -2.318,3.008 v 0.042 c 1.608,0.439 2.799,1.65 2.799,3.468 0,1.274 -0.585,2.277 -1.462,2.987 -1.023,0.814 -2.736,1.274 -5.536,1.274 -1.566,0 -2.736,-0.104 -3.446,-0.208 V 37.798 z m 3.155,5.39 h 1.044 c 1.672,0 2.569,-0.689 2.569,-1.734 0,-1.065 -0.814,-1.629 -2.256,-1.629 -0.689,0 -1.086,0.042 -1.357,0.083 v 3.28 z m 0,6.246 c 0.313,0.042 0.689,0.042 1.232,0.042 1.441,0 2.716,-0.543 2.716,-2.026 0,-1.42 -1.274,-1.984 -2.862,-1.984 h -1.086 v 3.968 z"
         id="path3453"
         inkscape:connector-curvature="0"
         style="fill:#ffffff;display:none" /></g></g><use
     xlink:href="#arrow_4_"
     width="193.52499"
     height="57.159"
     x="-96.750999"
     y="-28.408001"
     transform="matrix(1,0,0,-1,504,86.9922)"
     display="none"
     overflow="visible"
     id="use3455"
     style="display:none;overflow:visible" /><use
     xlink:href="#arrow_4_"
     width="193.52499"
     height="57.159"
     id="XMLID_2_"
     x="-96.750999"
     y="-28.408001"
     transform="matrix(0,-1,-1,0,366.7529,388.6768)"
     display="none"
     overflow="visible"
     style="display:none;overflow:visible" /><use
     xlink:href="#arrow_4_"
     width="193.52499"
     height="57.159"
     x="-96.750999"
     y="-28.408001"
     transform="matrix(0,1,1,0,638.5176,388.6768)"
     display="none"
     overflow="visible"
     id="use3458"
     style="display:none;overflow:visible" /><rect
     x="236.884"
     y="133.34601"
     display="none"
     stroke-miterlimit="10"
     width="53.675999"
     height="56.473999"
     id="rect3460"
     style="fill:#31abff;fill-opacity:0.28999999;stroke:#31abff;stroke-width:0.68660003;stroke-miterlimit:10;stroke-opacity:0.63999999;display:none" /><g
     display="none"
     id="g3462"
     style="display:none"
     transform="translate(0,25)"><g
       display="inline"
       id="g3464"
       style="display:inline"><path
         display="none"
         d="m 265.671,129.814 v 6.194 h 5.938 v 2.671 h -5.938 v 6.25 h -2.784 v -6.25 h -5.938 v -2.671 h 5.938 v -6.194 h 2.784 z"
         id="path3466"
         inkscape:connector-curvature="0"
         style="fill:#31abff;display:none" /></g></g><polyline
     stroke-miterlimit="10"
     points="  289.662,579.973 289.662,585.313 257.789,585.313 257.789,571.426 289.662,571.426 289.662,579.973 "
     id="polyline3468"
     style="opacity:0.5;fill:#53b5ce;fill-opacity:1;stroke:#31abff;stroke-width:0.23190001;stroke-miterlimit:10;stroke-opacity:0.63999999"
     transform="translate(0,25)" /><polyline
     stroke-miterlimit="10"
     points="  289.662,562.91 289.662,568.251 257.789,568.251 257.789,554.363 289.662,554.363 289.662,562.91 "
     id="polyline3470"
     style="opacity:0.5;fill:#53b5ce;fill-opacity:1;stroke:#31abff;stroke-width:0.23190001;stroke-miterlimit:10;stroke-opacity:0.63999999"
     transform="translate(0,25)" /><polyline
     stroke-miterlimit="10"
     points="  289.662,545.848 289.662,551.188 257.789,551.188 257.789,537.301 289.662,537.301 289.662,545.848 "
     id="polyline3472"
     style="opacity:0.5;fill:#53b5ce;fill-opacity:1;stroke:#31abff;stroke-width:0.23190001;stroke-miterlimit:10;stroke-opacity:0.63999999"
     transform="translate(0,25)" /><polyline
     stroke-miterlimit="10"
     points="  289.662,528.785 289.662,534.126 257.789,534.126 257.789,520.238 289.662,520.238 289.662,528.785 "
     id="polyline3474"
     style="opacity:0.5;fill:#53b5ce;fill-opacity:1;stroke:#31abff;stroke-width:0.23190001;stroke-miterlimit:10;stroke-opacity:0.63999999"
     transform="translate(0,25)" /><polyline
     stroke-miterlimit="10"
     points="  289.662,511.722 289.662,517.064 257.789,517.064 257.789,503.176 289.662,503.176 289.662,511.722 "
     id="polyline3476"
     style="opacity:0.5;fill:#53b5ce;fill-opacity:1;stroke:#31abff;stroke-width:0.23190001;stroke-miterlimit:10;stroke-opacity:0.63999999"
     transform="translate(0,25)" /><polyline
     stroke-miterlimit="10"
     points="  289.662,494.66 289.662,500.003 257.789,500.003 257.789,486.114 289.662,486.114 289.662,494.66 "
     id="polyline3478"
     style="opacity:0.5;fill:#53b5ce;fill-opacity:1;stroke:#31abff;stroke-width:0.23190001;stroke-miterlimit:10;stroke-opacity:0.63999999"
     transform="translate(0,25)" /><polyline
     stroke-miterlimit="10"
     points="  289.662,477.598 289.662,482.939 257.789,482.939 257.789,469.051 289.662,469.051 289.662,477.598 "
     id="polyline3480"
     style="opacity:0.5;fill:#53b5ce;fill-opacity:1;stroke:#31abff;stroke-width:0.23190001;stroke-miterlimit:10;stroke-opacity:0.63999999"
     transform="translate(0,25)" /><polyline
     stroke-miterlimit="10"
     points="  289.662,460.536 289.662,465.878 257.789,465.878 257.789,451.989 289.662,451.989 289.662,460.536 "
     id="polyline3482"
     style="opacity:0.5;fill:#53b5ce;fill-opacity:1;stroke:#31abff;stroke-width:0.23190001;stroke-miterlimit:10;stroke-opacity:0.63999999"
     transform="translate(0,25)" /><polyline
     stroke-miterlimit="10"
     points="  289.662,443.474 289.662,448.814 257.789,448.814 257.789,434.927 289.662,434.927 289.662,443.474 "
     id="polyline3484"
     style="opacity:0.5;fill:#53b5ce;fill-opacity:1;stroke:#31abff;stroke-width:0.23190001;stroke-miterlimit:10;stroke-opacity:0.63999999"
     transform="translate(0,25)" /><polyline
     stroke-miterlimit="10"
     points="  289.662,426.411 289.662,431.752 257.789,431.752 257.789,417.864 289.662,417.864 289.662,426.411 "
     id="polyline3486"
     style="opacity:0.5;fill:#53b5ce;fill-opacity:1;stroke:#31abff;stroke-width:0.23190001;stroke-miterlimit:10;stroke-opacity:0.63999999"
     transform="translate(0,25)" /><polyline
     stroke-miterlimit="10"
     points="  289.662,409.349 289.662,414.69 257.789,414.69 257.789,400.802 289.662,400.802 289.662,409.349 "
     id="polyline3488"
     style="opacity:0.5;fill:#53b5ce;fill-opacity:1;stroke:#31abff;stroke-width:0.23190001;stroke-miterlimit:10;stroke-opacity:0.63999999"
     transform="translate(0,25)" /><polyline
     stroke-miterlimit="10"
     points="  289.662,392.287 289.662,397.629 257.789,397.629 257.789,383.741 289.662,383.741 289.662,392.287 "
     id="polyline3490"
     style="opacity:0.5;fill:#53b5ce;fill-opacity:1;stroke:#31abff;stroke-width:0.23190001;stroke-miterlimit:10;stroke-opacity:0.63999999"
     transform="translate(0,25)" /><polyline
     stroke-miterlimit="10"
     points="  289.662,375.223 289.662,380.566 257.789,380.566 257.789,366.677 289.662,366.677 289.662,375.223 "
     id="polyline3492"
     style="opacity:0.5;fill:#53b5ce;fill-opacity:1;stroke:#31abff;stroke-width:0.23190001;stroke-miterlimit:10;stroke-opacity:0.63999999"
     transform="translate(0,25)" /><polyline
     stroke-miterlimit="10"
     points="  289.662,358.161 289.662,363.503 257.789,363.503 257.789,349.615 289.662,349.615 289.662,358.161 "
     id="polyline3494"
     style="opacity:0.5;fill:#53b5ce;fill-opacity:1;stroke:#31abff;stroke-width:0.23190001;stroke-miterlimit:10;stroke-opacity:0.63999999"
     transform="translate(0,25)" /><polyline
     stroke-miterlimit="10"
     points="  289.662,341.101 289.662,346.441 257.789,346.441 257.789,332.554 289.662,332.554 289.662,341.101 "
     id="polyline3496"
     style="opacity:0.5;fill:#53b5ce;fill-opacity:1;stroke:#31abff;stroke-width:0.23190001;stroke-miterlimit:10;stroke-opacity:0.63999999"
     transform="translate(0,25)" /><polyline
     stroke-miterlimit="10"
     points="  289.662,324.037 289.662,329.379 257.789,329.379 257.789,315.49 289.662,315.49 289.662,324.037 "
     id="polyline3498"
     style="opacity:0.5;fill:#53b5ce;fill-opacity:1;stroke:#31abff;stroke-width:0.23190001;stroke-miterlimit:10;stroke-opacity:0.63999999"
     transform="translate(0,25)" /><polyline
     stroke-miterlimit="10"
     points="  289.662,306.977 289.662,312.316 257.789,312.316 257.789,298.429 289.662,298.429 289.662,306.977 "
     id="polyline3500"
     style="opacity:0.5;fill:#53b5ce;fill-opacity:1;stroke:#31abff;stroke-width:0.23190001;stroke-miterlimit:10;stroke-opacity:0.63999999"
     transform="translate(0,25)" /><polyline
     stroke-miterlimit="10"
     points="  289.662,289.912 289.662,295.254 257.789,295.254 257.789,281.366 289.662,281.366 289.662,289.912 "
     id="polyline3502"
     style="opacity:0.5;fill:#53b5ce;fill-opacity:1;stroke:#31abff;stroke-width:0.23190001;stroke-miterlimit:10;stroke-opacity:0.63999999"
     transform="translate(0,25)" /><polyline
     stroke-miterlimit="10"
     points="  289.662,272.851 289.662,278.193 257.789,278.193 257.789,264.303 289.662,264.303 289.662,272.851 "
     id="polyline3504"
     style="opacity:0.5;fill:#53b5ce;fill-opacity:1;stroke:#31abff;stroke-width:0.23190001;stroke-miterlimit:10;stroke-opacity:0.63999999"
     transform="translate(0,25)" /><polyline
     stroke-miterlimit="10"
     points="  289.662,255.787 289.662,261.131 257.789,261.131 257.789,247.242 289.662,247.242 289.662,255.787 "
     id="polyline3506"
     style="opacity:0.5;fill:#53b5ce;fill-opacity:1;stroke:#31abff;stroke-width:0.23190001;stroke-miterlimit:10;stroke-opacity:0.63999999"
     transform="translate(0,25)" /><polyline
     stroke-miterlimit="10"
     points="  289.662,238.728 289.662,244.067 257.789,244.067 257.789,230.18 289.662,230.18 289.662,238.728 "
     id="polyline3508"
     style="opacity:0.5;fill:#53b5ce;fill-opacity:1;stroke:#31abff;stroke-width:0.23190001;stroke-miterlimit:10;stroke-opacity:0.63999999"
     transform="translate(0,25)" /><polyline
     stroke-miterlimit="10"
     points="  289.662,221.665 289.662,227.005 257.789,227.005 257.789,213.117 289.662,213.117 289.662,221.665 "
     id="polyline3510"
     style="opacity:0.5;fill:#53b5ce;fill-opacity:1;stroke:#31abff;stroke-width:0.23190001;stroke-miterlimit:10;stroke-opacity:0.63999999"
     transform="translate(0,25)" /><polyline
     stroke-miterlimit="10"
     points="  289.662,204.603 289.662,209.942 257.789,209.942 257.789,196.053 289.662,196.053 289.662,204.603 "
     id="polyline3512"
     style="opacity:0.5;fill:#53b5ce;fill-opacity:1;stroke:#31abff;stroke-width:0.23190001;stroke-miterlimit:10;stroke-opacity:0.63999999"
     transform="translate(0,25)" /><polyline
     stroke-miterlimit="10"
     points="  289.662,187.539 289.662,192.88 257.789,192.88 257.789,178.992 289.662,178.992 289.662,187.539 "
     id="polyline3514"
     style="opacity:0.5;fill:#53b5ce;fill-opacity:1;stroke:#31abff;stroke-width:0.23190001;stroke-miterlimit:10;stroke-opacity:0.63999999"
     transform="translate(0,25)" /><polyline
     stroke-miterlimit="10"
     points="  178.662,579.973 178.662,585.313 146.789,585.313 146.789,571.426 178.662,571.426 178.662,579.973 "
     id="polyline3518"
     style="opacity:0.5;fill:#53b5ce;fill-opacity:1;stroke:#31abff;stroke-width:0.23190001;stroke-miterlimit:10;stroke-opacity:0.63999999"
     transform="translate(0,25)" /><polyline
     stroke-miterlimit="10"
     points="  178.662,562.91 178.662,568.251 146.789,568.251 146.789,554.363 178.662,554.363 178.662,562.91 "
     id="polyline3520"
     style="opacity:0.5;fill:#53b5ce;fill-opacity:1;stroke:#31abff;stroke-width:0.23190001;stroke-miterlimit:10;stroke-opacity:0.63999999"
     transform="translate(0,25)" /><polyline
     stroke-miterlimit="10"
     points="  178.662,545.848 178.662,551.188 146.789,551.188 146.789,537.301 178.662,537.301 178.662,545.848 "
     id="polyline3522"
     style="opacity:0.5;fill:#53b5ce;fill-opacity:1;stroke:#31abff;stroke-width:0.23190001;stroke-miterlimit:10;stroke-opacity:0.63999999"
     transform="translate(0,25)" /><polyline
     stroke-miterlimit="10"
     points="  178.662,528.785 178.662,534.126 146.789,534.126 146.789,520.238 178.662,520.238 178.662,528.785 "
     id="polyline3524"
     style="opacity:0.5;fill:#53b5ce;fill-opacity:1;stroke:#31abff;stroke-width:0.23190001;stroke-miterlimit:10;stroke-opacity:0.63999999"
     transform="translate(0,25)" /><polyline
     stroke-miterlimit="10"
     points="  178.662,511.722 178.662,517.064 146.789,517.064 146.789,503.176 178.662,503.176 178.662,511.722 "
     id="polyline3526"
     style="opacity:0.5;fill:#53b5ce;fill-opacity:1;stroke:#31abff;stroke-width:0.23190001;stroke-miterlimit:10;stroke-opacity:0.63999999"
     transform="translate(0,25)" /><polyline
     stroke-miterlimit="10"
     points="  178.662,494.66 178.662,500.003 146.789,500.003 146.789,486.114 178.662,486.114 178.662,494.66 "
     id="polyline3528"
     style="opacity:0.5;fill:#53b5ce;fill-opacity:1;stroke:#31abff;stroke-width:0.23190001;stroke-miterlimit:10;stroke-opacity:0.63999999"
     transform="translate(0,25)" /><polyline
     stroke-miterlimit="10"
     points="  178.662,477.598 178.662,482.939 146.789,482.939 146.789,469.051 178.662,469.051 178.662,477.598 "
     id="polyline3530"
     style="opacity:0.5;fill:#53b5ce;fill-opacity:1;stroke:#31abff;stroke-width:0.23190001;stroke-miterlimit:10;stroke-opacity:0.63999999"
     transform="translate(0,25)" /><polyline
     stroke-miterlimit="10"
     points="  178.662,460.536 178.662,465.878 146.789,465.878 146.789,451.989 178.662,451.989 178.662,460.536 "
     id="polyline3532"
     style="opacity:0.5;fill:#53b5ce;fill-opacity:1;stroke:#31abff;stroke-width:0.23190001;stroke-miterlimit:10;stroke-opacity:0.63999999"
     transform="translate(0,25)" /><polyline
     stroke-miterlimit="10"
     points="  178.662,443.474 178.662,448.814 146.789,448.814 146.789,434.927 178.662,434.927 178.662,443.474 "
     id="polyline3534"
     style="opacity:0.5;fill:#53b5ce;fill-opacity:1;stroke:#31abff;stroke-width:0.23190001;stroke-miterlimit:10;stroke-opacity:0.63999999"
     transform="translate(0,25)" /><polyline
     stroke-miterlimit="10"
     points="  178.662,426.411 178.662,431.752 146.789,431.752 146.789,417.864 178.662,417.864 178.662,426.411 "
     id="polyline3536"
     style="opacity:0.5;fill:#53b5ce;fill-opacity:1;stroke:#31abff;stroke-width:0.23190001;stroke-miterlimit:10;stroke-opacity:0.63999999"
     transform="translate(0,25)" /><polyline
     stroke-miterlimit="10"
     points="  178.662,409.349 178.662,414.69 146.789,414.69 146.789,400.802 178.662,400.802 178.662,409.349 "
     id="polyline3538"
     style="opacity:0.5;fill:#53b5ce;fill-opacity:1;stroke:#31abff;stroke-width:0.23190001;stroke-miterlimit:10;stroke-opacity:0.63999999"
     transform="translate(0,25)" /><polyline
     stroke-miterlimit="10"
     points="  178.662,392.287 178.662,397.629 146.789,397.629 146.789,383.741 178.662,383.741 178.662,392.287 "
     id="polyline3540"
     style="opacity:0.5;fill:#53b5ce;fill-opacity:1;stroke:#31abff;stroke-width:0.23190001;stroke-miterlimit:10;stroke-opacity:0.63999999"
     transform="translate(0,25)" /><polyline
     stroke-miterlimit="10"
     points="  178.662,375.223 178.662,380.566 146.789,380.566 146.789,366.677 178.662,366.677 178.662,375.223 "
     id="polyline3542"
     style="opacity:0.5;fill:#53b5ce;fill-opacity:1;stroke:#31abff;stroke-width:0.23190001;stroke-miterlimit:10;stroke-opacity:0.63999999"
     transform="translate(0,25)" /><polyline
     stroke-miterlimit="10"
     points="  178.662,358.161 178.662,363.503 146.789,363.503 146.789,349.615 178.662,349.615 178.662,358.161 "
     id="polyline3544"
     style="opacity:0.5;fill:#53b5ce;fill-opacity:1;stroke:#31abff;stroke-width:0.23190001;stroke-miterlimit:10;stroke-opacity:0.63999999"
     transform="translate(0,25)" /><polyline
     stroke-miterlimit="10"
     points="  178.662,341.101 178.662,346.441 146.789,346.441 146.789,332.554 178.662,332.554 178.662,341.101 "
     id="polyline3546"
     style="opacity:0.5;fill:#53b5ce;fill-opacity:1;stroke:#31abff;stroke-width:0.23190001;stroke-miterlimit:10;stroke-opacity:0.63999999"
     transform="translate(0,25)" /><polyline
     stroke-miterlimit="10"
     points="  178.662,324.037 178.662,329.379 146.789,329.379 146.789,315.49 178.662,315.49 178.662,324.037 "
     id="polyline3548"
     style="opacity:0.5;fill:#53b5ce;fill-opacity:1;stroke:#31abff;stroke-width:0.23190001;stroke-miterlimit:10;stroke-opacity:0.63999999"
     transform="translate(0,25)" /><polyline
     stroke-miterlimit="10"
     points="  178.662,306.977 178.662,312.316 146.789,312.316 146.789,298.429 178.662,298.429 178.662,306.977 "
     id="polyline3550"
     style="opacity:0.5;fill:#53b5ce;fill-opacity:1;stroke:#31abff;stroke-width:0.23190001;stroke-miterlimit:10;stroke-opacity:0.63999999"
     transform="translate(0,25)" /><polyline
     stroke-miterlimit="10"
     points="  178.662,289.912 178.662,295.254 146.789,295.254 146.789,281.366 178.662,281.366 178.662,289.912 "
     id="polyline3552"
     style="opacity:0.5;fill:#53b5ce;fill-opacity:1;stroke:#31abff;stroke-width:0.23190001;stroke-miterlimit:10;stroke-opacity:0.63999999"
     transform="translate(0,25)" /><polyline
     stroke-miterlimit="10"
     points="  178.662,272.851 178.662,278.193 146.789,278.193 146.789,264.303 178.662,264.303 178.662,272.851 "
     id="polyline3554"
     style="opacity:0.5;fill:#53b5ce;fill-opacity:1;stroke:#31abff;stroke-width:0.23190001;stroke-miterlimit:10;stroke-opacity:0.63999999"
     transform="translate(0,25)" /><polyline
     stroke-miterlimit="10"
     points="  178.662,255.787 178.662,261.131 146.789,261.131 146.789,247.242 178.662,247.242 178.662,255.787 "
     id="polyline3556"
     style="opacity:0.5;fill:#53b5ce;fill-opacity:1;stroke:#31abff;stroke-width:0.23190001;stroke-miterlimit:10;stroke-opacity:0.63999999"
     transform="translate(0,25)" /><polyline
     stroke-miterlimit="10"
     points="  178.662,238.728 178.662,244.067 146.789,244.067 146.789,230.18 178.662,230.18 178.662,238.728 "
     id="polyline3558"
     style="opacity:0.5;fill:#53b5ce;fill-opacity:1;stroke:#31abff;stroke-width:0.23190001;stroke-miterlimit:10;stroke-opacity:0.63999999"
     transform="translate(0,25)" /><polyline
     stroke-miterlimit="10"
     points="  178.662,221.665 178.662,227.005 146.789,227.005 146.789,213.117 178.662,213.117 178.662,221.665 "
     id="polyline3560"
     style="opacity:0.5;fill:#53b5ce;fill-opacity:1;stroke:#31abff;stroke-width:0.23190001;stroke-miterlimit:10;stroke-opacity:0.63999999"
     transform="translate(0,25)" /><polyline
     stroke-miterlimit="10"
     points="  178.662,204.603 178.662,209.942 146.789,209.942 146.789,196.053 178.662,196.053 178.662,204.603 "
     id="polyline3562"
     style="opacity:0.5;fill:#53b5ce;fill-opacity:1;stroke:#31abff;stroke-width:0.23190001;stroke-miterlimit:10;stroke-opacity:0.63999999"
     transform="translate(0,25)" /><polyline
     stroke-miterlimit="10"
     points="  178.662,187.539 178.662,192.88 146.789,192.88 146.789,178.992 178.662,178.992 178.662,187.539 "
     id="polyline3564"
     style="opacity:0.5;fill:#53b5ce;fill-opacity:1;stroke:#31abff;stroke-width:0.23190001;stroke-miterlimit:10;stroke-opacity:0.63999999"
     transform="translate(0,25)" /><polyline
     stroke-miterlimit="10"
     points="  64.662,579.973 64.662,585.313 32.789,585.313 32.789,571.426 64.662,571.426 64.662,579.973 "
     id="polyline3568"
     style="opacity:0.5;fill:#53b5ce;fill-opacity:1;stroke:#31abff;stroke-width:0.23190001;stroke-miterlimit:10;stroke-opacity:0.63999999"
     transform="translate(0,25)" /><polyline
     stroke-miterlimit="10"
     points="  64.662,562.91 64.662,568.251 32.789,568.251 32.789,554.363 64.662,554.363 64.662,562.91 "
     id="polyline3570"
     style="opacity:0.5;fill:#53b5ce;fill-opacity:1;stroke:#31abff;stroke-width:0.23190001;stroke-miterlimit:10;stroke-opacity:0.63999999"
     transform="translate(0,25)" /><polyline
     stroke-miterlimit="10"
     points="  64.662,545.848 64.662,551.188 32.789,551.188 32.789,537.301 64.662,537.301 64.662,545.848 "
     id="polyline3572"
     style="opacity:0.5;fill:#53b5ce;fill-opacity:1;stroke:#31abff;stroke-width:0.23190001;stroke-miterlimit:10;stroke-opacity:0.63999999"
     transform="translate(0,25)" /><polyline
     stroke-miterlimit="10"
     points="  64.662,528.785 64.662,534.126 32.789,534.126 32.789,520.238 64.662,520.238 64.662,528.785 "
     id="polyline3574"
     style="opacity:0.5;fill:#53b5ce;fill-opacity:1;stroke:#31abff;stroke-width:0.23190001;stroke-miterlimit:10;stroke-opacity:0.63999999"
     transform="translate(0,25)" /><polyline
     stroke-miterlimit="10"
     points="  64.662,511.722 64.662,517.064 32.789,517.064 32.789,503.176 64.662,503.176 64.662,511.722 "
     id="polyline3576"
     style="opacity:0.5;fill:#53b5ce;fill-opacity:1;stroke:#31abff;stroke-width:0.23190001;stroke-miterlimit:10;stroke-opacity:0.63999999"
     transform="translate(0,25)" /><polyline
     stroke-miterlimit="10"
     points="  64.662,494.66 64.662,500.003 32.789,500.003 32.789,486.114 64.662,486.114 64.662,494.66 "
     id="polyline3578"
     style="opacity:0.5;fill:#53b5ce;fill-opacity:1;stroke:#31abff;stroke-width:0.23190001;stroke-miterlimit:10;stroke-opacity:0.63999999"
     transform="translate(0,25)" /><polyline
     stroke-miterlimit="10"
     points="  64.662,477.598 64.662,482.939 32.789,482.939 32.789,469.051 64.662,469.051 64.662,477.598 "
     id="polyline3580"
     style="opacity:0.5;fill:#53b5ce;fill-opacity:1;stroke:#31abff;stroke-width:0.23190001;stroke-miterlimit:10;stroke-opacity:0.63999999"
     transform="translate(0,25)" /><polyline
     stroke-miterlimit="10"
     points="  64.662,460.536 64.662,465.878 32.789,465.878 32.789,451.989 64.662,451.989 64.662,460.536 "
     id="polyline3582"
     style="opacity:0.5;fill:#53b5ce;fill-opacity:1;stroke:#31abff;stroke-width:0.23190001;stroke-miterlimit:10;stroke-opacity:0.63999999"
     transform="translate(0,25)" /><polyline
     stroke-miterlimit="10"
     points="  64.662,443.474 64.662,448.814 32.789,448.814 32.789,434.927 64.662,434.927 64.662,443.474 "
     id="polyline3584"
     style="opacity:0.5;fill:#53b5ce;fill-opacity:1;stroke:#31abff;stroke-width:0.23190001;stroke-miterlimit:10;stroke-opacity:0.63999999"
     transform="translate(0,25)" /><polyline
     stroke-miterlimit="10"
     points="  64.662,426.411 64.662,431.752 32.789,431.752 32.789,417.864 64.662,417.864 64.662,426.411 "
     id="polyline3586"
     style="opacity:0.5;fill:#53b5ce;fill-opacity:1;stroke:#31abff;stroke-width:0.23190001;stroke-miterlimit:10;stroke-opacity:0.63999999"
     transform="translate(0,25)" /><polyline
     stroke-miterlimit="10"
     points="  64.662,409.349 64.662,414.69 32.789,414.69 32.789,400.802 64.662,400.802 64.662,409.349 "
     id="polyline3588"
     style="opacity:0.5;fill:#53b5ce;fill-opacity:1;stroke:#31abff;stroke-width:0.23190001;stroke-miterlimit:10;stroke-opacity:0.63999999"
     transform="translate(0,25)" /><polyline
     stroke-miterlimit="10"
     points="  64.662,392.287 64.662,397.629 32.789,397.629 32.789,383.741 64.662,383.741 64.662,392.287 "
     id="polyline3590"
     style="opacity:0.5;fill:#53b5ce;fill-opacity:1;stroke:#31abff;stroke-width:0.23190001;stroke-miterlimit:10;stroke-opacity:0.63999999"
     transform="translate(0,25)" /><polyline
     stroke-miterlimit="10"
     points="  64.662,375.223 64.662,380.566 32.789,380.566 32.789,366.677 64.662,366.677 64.662,375.223 "
     id="polyline3592"
     style="opacity:0.5;fill:#53b5ce;fill-opacity:1;stroke:#31abff;stroke-width:0.23190001;stroke-miterlimit:10;stroke-opacity:0.63999999"
     transform="translate(0,25)" /><polyline
     stroke-miterlimit="10"
     points="  64.662,358.161 64.662,363.503 32.789,363.503 32.789,349.615 64.662,349.615 64.662,358.161 "
     id="polyline3594"
     style="opacity:0.5;fill:#53b5ce;fill-opacity:1;stroke:#31abff;stroke-width:0.23190001;stroke-miterlimit:10;stroke-opacity:0.63999999"
     transform="translate(0,25)" /><polyline
     stroke-miterlimit="10"
     points="  64.662,341.101 64.662,346.441 32.789,346.441 32.789,332.554 64.662,332.554 64.662,341.101 "
     id="polyline3596"
     style="opacity:0.5;fill:#53b5ce;fill-opacity:1;stroke:#31abff;stroke-width:0.23190001;stroke-miterlimit:10;stroke-opacity:0.63999999"
     transform="translate(0,25)" /><polyline
     stroke-miterlimit="10"
     points="  64.662,324.037 64.662,329.379 32.789,329.379 32.789,315.49 64.662,315.49 64.662,324.037 "
     id="polyline3598"
     style="opacity:0.5;fill:#53b5ce;fill-opacity:1;stroke:#31abff;stroke-width:0.23190001;stroke-miterlimit:10;stroke-opacity:0.63999999"
     transform="translate(0,25)" /><polyline
     stroke-miterlimit="10"
     points="  64.662,306.977 64.662,312.316 32.789,312.316 32.789,298.429 64.662,298.429 64.662,306.977 "
     id="polyline3600"
     style="opacity:0.5;fill:#53b5ce;fill-opacity:1;stroke:#31abff;stroke-width:0.23190001;stroke-miterlimit:10;stroke-opacity:0.63999999"
     transform="translate(0,25)" /><polyline
     stroke-miterlimit="10"
     points="  64.662,289.912 64.662,295.254 32.789,295.254 32.789,281.366 64.662,281.366 64.662,289.912 "
     id="polyline3602"
     style="opacity:0.5;fill:#53b5ce;fill-opacity:1;stroke:#31abff;stroke-width:0.23190001;stroke-miterlimit:10;stroke-opacity:0.63999999"
     transform="translate(0,25)" /><polyline
     stroke-miterlimit="10"
     points="  64.662,272.851 64.662,278.193 32.789,278.193 32.789,264.303 64.662,264.303 64.662,272.851 "
     id="polyline3604"
     style="opacity:0.5;fill:#53b5ce;fill-opacity:1;stroke:#31abff;stroke-width:0.23190001;stroke-miterlimit:10;stroke-opacity:0.63999999"
     transform="translate(0,25)" /><polyline
     stroke-miterlimit="10"
     points="  64.662,255.787 64.662,261.131 32.789,261.131 32.789,247.242 64.662,247.242 64.662,255.787 "
     id="polyline3606"
     style="opacity:0.5;fill:#53b5ce;fill-opacity:1;stroke:#31abff;stroke-width:0.23190001;stroke-miterlimit:10;stroke-opacity:0.63999999"
     transform="translate(0,25)" /><polyline
     stroke-miterlimit="10"
     points="  64.662,238.728 64.662,244.067 32.789,244.067 32.789,230.18 64.662,230.18 64.662,238.728 "
     id="polyline3608"
     style="opacity:0.5;fill:#53b5ce;fill-opacity:1;stroke:#31abff;stroke-width:0.23190001;stroke-miterlimit:10;stroke-opacity:0.63999999"
     transform="translate(0,25)" /><polyline
     stroke-miterlimit="10"
     points="  64.662,221.665 64.662,227.005 32.789,227.005 32.789,213.117 64.662,213.117 64.662,221.665 "
     id="polyline3610"
     style="opacity:0.5;fill:#53b5ce;fill-opacity:1;stroke:#31abff;stroke-width:0.23190001;stroke-miterlimit:10;stroke-opacity:0.63999999"
     transform="translate(0,25)" /><polyline
     stroke-miterlimit="10"
     points="  64.662,204.603 64.662,209.942 32.789,209.942 32.789,196.053 64.662,196.053 64.662,204.603 "
     id="polyline3612"
     style="opacity:0.5;fill:#53b5ce;fill-opacity:1;stroke:#31abff;stroke-width:0.23190001;stroke-miterlimit:10;stroke-opacity:0.63999999"
     transform="translate(0,25)" /><polyline
     stroke-miterlimit="10"
     points="  64.662,187.539 64.662,192.88 32.789,192.88 32.789,178.992 64.662,178.992 64.662,187.539 "
     id="polyline3614"
     style="opacity:0.5;fill:#53b5ce;fill-opacity:1;stroke:#31abff;stroke-width:0.23190001;stroke-miterlimit:10;stroke-opacity:0.63999999"
     transform="translate(0,25)" /><rect
     y="3.9920006"
     width="223"
     height="15"
     id="rect3618"
     style="fill:#fe9c00;fill-opacity:1"
     x="0" /><g
     id="g3620"
     style="fill:#fe9c00;fill-opacity:1"
     transform="translate(0,3)"><g
       id="g3622"
       style="fill:#fe9c00;fill-opacity:1"><path
         d="m 238.749,3.245 h -4.226 V 0.257 h 12.093 v 2.988 h -4.295 v 12.747 h -3.572 V 3.245 z"
         id="path3624"
         style="fill:#fe9c00;fill-opacity:1"
         inkscape:connector-curvature="0" /><path
         d="m 262.232,7.961 c 0,5.16 -3.128,8.288 -7.728,8.288 -4.669,0 -7.401,-3.525 -7.401,-8.008 0,-4.716 3.012,-8.241 7.658,-8.241 4.833,0 7.471,3.619 7.471,7.961 z m -11.369,0.21 c 0,3.082 1.448,5.253 3.829,5.253 2.405,0 3.782,-2.288 3.782,-5.346 0,-2.825 -1.354,-5.253 -3.805,-5.253 -2.405,0 -3.806,2.288 -3.806,5.346 z"
         id="path3626"
         style="fill:#fe9c00;fill-opacity:1"
         inkscape:connector-curvature="0" /><path
         d="M 264.564,15.992 V 0.257 h 4.155 l 3.269,5.767 c 0.934,1.658 1.868,3.619 2.568,5.393 h 0.07 C 274.393,9.339 274.322,7.214 274.322,4.856 V 0.257 h 3.269 v 15.735 h -3.735 l -3.362,-6.07 C 269.56,8.241 268.533,6.21 267.763,4.365 l -0.07,0.023 c 0.094,2.078 0.14,4.296 0.14,6.864 v 4.739 h -3.269 z"
         id="path3628"
         style="fill:#fe9c00;fill-opacity:1"
         inkscape:connector-curvature="0" /><path
         d="m 290.032,9.338 h -5.79 v 3.735 h 6.467 v 2.918 H 280.67 V 0.257 h 9.712 v 2.918 h -6.14 v 3.269 h 5.79 v 2.894 z"
         id="path3630"
         style="fill:#fe9c00;fill-opacity:1"
         inkscape:connector-curvature="0" /></g></g><rect
     x="338"
     y="3.9920006"
     width="145"
     height="15"
     id="rect3632"
     style="fill:#fe9c00;fill-opacity:1" /><g
     id="g3634"
     style="fill:#fe9c00;fill-opacity:1"
     transform="translate(0,3)"><g
       id="g3636"
       style="fill:#fe9c00;fill-opacity:1"><path
         d="m 497.74,0.467 c 0.934,-0.187 2.824,-0.327 4.6,-0.327 2.17,0 3.502,0.21 4.645,0.887 1.098,0.584 1.892,1.658 1.892,3.082 0,1.401 -0.817,2.708 -2.591,3.362 v 0.047 c 1.797,0.49 3.128,1.844 3.128,3.875 0,1.424 -0.653,2.544 -1.634,3.338 -1.145,0.911 -3.059,1.424 -6.188,1.424 -1.75,0 -3.059,-0.117 -3.852,-0.233 V 0.467 z m 3.526,6.023 h 1.167 c 1.868,0 2.872,-0.771 2.872,-1.938 0,-1.191 -0.911,-1.821 -2.521,-1.821 -0.771,0 -1.215,0.047 -1.518,0.094 V 6.49 z m 0,6.981 c 0.35,0.047 0.77,0.047 1.377,0.047 1.611,0 3.035,-0.607 3.035,-2.265 0,-1.587 -1.424,-2.218 -3.198,-2.218 h -1.214 v 4.436 z"
         id="path3638"
         style="fill:#fe9c00;fill-opacity:1"
         inkscape:connector-curvature="0" /><path
         d="m 515.41,11.953 -1.121,4.039 h -3.688 L 515.41,0.257 h 4.67 l 4.879,15.735 h -3.829 l -1.214,-4.039 h -4.506 z m 3.992,-2.661 -0.98,-3.338 c -0.28,-0.934 -0.561,-2.101 -0.794,-3.035 h -0.046 c -0.234,0.934 -0.468,2.125 -0.725,3.035 l -0.934,3.338 h 3.479 z"
         id="path3640"
         style="fill:#fe9c00;fill-opacity:1"
         inkscape:connector-curvature="0" /><path
         d="m 527.058,0.257 h 3.571 v 12.747 h 6.258 v 2.988 h -9.829 V 0.257 z"
         id="path3642"
         style="fill:#fe9c00;fill-opacity:1"
         inkscape:connector-curvature="0" /><path
         d="m 542.79,11.953 -1.12,4.039 h -3.689 l 4.81,-15.735 h 4.669 l 4.88,15.735 h -3.829 l -1.214,-4.039 h -4.507 z m 3.992,-2.661 -0.98,-3.338 c -0.28,-0.934 -0.561,-2.101 -0.794,-3.035 h -0.047 c -0.232,0.934 -0.467,2.125 -0.723,3.035 l -0.935,3.338 h 3.479 z"
         id="path3644"
         style="fill:#fe9c00;fill-opacity:1"
         inkscape:connector-curvature="0" /><path
         d="M 554.438,15.992 V 0.257 h 4.154 l 3.27,5.767 c 0.934,1.658 1.867,3.619 2.567,5.393 h 0.07 C 564.266,9.339 564.195,7.214 564.195,4.856 V 0.257 h 3.269 v 15.735 h -3.735 l -3.361,-6.07 C 559.433,8.241 558.407,6.21 557.636,4.365 l -0.069,0.023 c 0.093,2.078 0.14,4.296 0.14,6.864 v 4.739 h -3.269 z"
         id="path3646"
         style="fill:#fe9c00;fill-opacity:1"
         inkscape:connector-curvature="0" /><path
         d="m 582.099,15.549 c -0.653,0.327 -2.124,0.677 -4.038,0.677 -5.439,0 -8.242,-3.385 -8.242,-7.868 0,-5.37 3.829,-8.358 8.592,-8.358 1.845,0 3.245,0.374 3.876,0.701 l -0.724,2.825 c -0.725,-0.303 -1.729,-0.583 -2.988,-0.583 -2.825,0 -5.02,1.704 -5.02,5.206 0,3.152 1.867,5.136 5.042,5.136 1.074,0 2.265,-0.233 2.966,-0.514 l 0.536,2.778 z"
         id="path3648"
         style="fill:#fe9c00;fill-opacity:1"
         inkscape:connector-curvature="0" /><path
         d="m 593.792,9.338 h -5.79 v 3.735 h 6.467 v 2.918 H 584.431 V 0.257 h 9.712 v 2.918 h -6.141 v 3.269 h 5.79 v 2.894 z"
         id="path3650"
         style="fill:#fe9c00;fill-opacity:1"
         inkscape:connector-curvature="0" /><path
         d="M 600.443,16.926 605.438,0 h 2.358 L 602.8,16.926 h -2.357 z"
         id="path3652"
         style="fill:#fe9c00;fill-opacity:1"
         inkscape:connector-curvature="0" /><path
         d="m 614.052,0.257 h 9.618 v 2.918 h -6.047 V 6.77 h 5.65 v 2.895 h -5.65 v 6.327 h -3.571 V 0.257 z"
         id="path3654"
         style="fill:#fe9c00;fill-opacity:1"
         inkscape:connector-curvature="0" /><path
         d="m 628.454,11.953 -1.12,4.039 h -3.689 l 4.81,-15.735 h 4.669 l 4.88,15.735 h -3.829 l -1.214,-4.039 h -4.507 z m 3.992,-2.661 -0.98,-3.338 c -0.28,-0.934 -0.561,-2.101 -0.794,-3.035 h -0.047 c -0.233,0.934 -0.467,2.125 -0.724,3.035 l -0.934,3.338 h 3.479 z"
         id="path3656"
         style="fill:#fe9c00;fill-opacity:1"
         inkscape:connector-curvature="0" /><path
         d="m 640.102,0.467 c 1.308,-0.21 3.012,-0.327 4.809,-0.327 2.988,0 4.927,0.537 6.444,1.681 1.634,1.214 2.661,3.151 2.661,5.93 0,3.012 -1.098,5.089 -2.615,6.374 -1.657,1.377 -4.179,2.031 -7.26,2.031 -1.845,0 -3.152,-0.117 -4.039,-0.233 V 0.467 z m 3.571,12.841 c 0.304,0.07 0.794,0.07 1.237,0.07 3.223,0.023 5.323,-1.751 5.323,-5.51 0.023,-3.268 -1.891,-4.996 -4.949,-4.996 -0.794,0 -1.308,0.07 -1.611,0.14 v 10.296 z"
         id="path3658"
         style="fill:#fe9c00;fill-opacity:1"
         inkscape:connector-curvature="0" /><path
         d="m 665.709,9.338 h -5.79 v 3.735 h 6.468 v 2.918 H 656.348 V 0.257 h 9.712 v 2.918 h -6.141 v 3.269 h 5.79 v 2.894 z"
         id="path3660"
         style="fill:#fe9c00;fill-opacity:1"
         inkscape:connector-curvature="0" /></g></g><g
     id="g3662"
     transform="translate(12,-1)"><g
       id="g3664"><path
         d="m 12.074,37.798 c 0.835,-0.167 2.527,-0.292 4.115,-0.292 1.942,0 3.133,0.188 4.156,0.793 0.982,0.522 1.692,1.483 1.692,2.757 0,1.253 -0.731,2.423 -2.318,3.008 v 0.042 c 1.608,0.439 2.799,1.65 2.799,3.468 0,1.274 -0.585,2.277 -1.462,2.987 -1.023,0.814 -2.736,1.274 -5.536,1.274 -1.566,0 -2.736,-0.104 -3.446,-0.208 V 37.798 z m 3.155,5.39 h 1.044 c 1.672,0 2.569,-0.689 2.569,-1.734 0,-1.065 -0.814,-1.629 -2.256,-1.629 -0.689,0 -1.086,0.042 -1.357,0.083 v 3.28 z m 0,6.246 c 0.313,0.042 0.689,0.042 1.232,0.042 1.441,0 2.716,-0.543 2.716,-2.026 0,-1.42 -1.274,-1.984 -2.862,-1.984 h -1.086 v 3.968 z"
         id="path3666"
         inkscape:connector-curvature="0"
         style="fill:#ffffff" /><path
         d="m 27.889,48.076 -1.003,3.614 h -3.3 l 4.303,-14.08 h 4.178 l 4.366,14.08 H 33.007 L 31.92,48.076 h -4.031 z m 3.572,-2.382 -0.877,-2.987 c -0.251,-0.835 -0.502,-1.88 -0.711,-2.716 h -0.042 c -0.208,0.836 -0.417,1.901 -0.647,2.716 l -0.835,2.987 h 3.112 z"
         id="path3668"
         inkscape:connector-curvature="0"
         style="fill:#ffffff" /><path
         d="m 38.419,48.41 c 0.856,0.439 2.172,0.877 3.53,0.877 1.462,0 2.235,-0.605 2.235,-1.525 0,-0.877 -0.669,-1.378 -2.361,-1.984 -2.339,-0.815 -3.864,-2.11 -3.864,-4.157 0,-2.402 2.006,-4.24 5.327,-4.24 1.587,0 2.757,0.334 3.593,0.71 l -0.71,2.57 c -0.564,-0.272 -1.567,-0.669 -2.945,-0.669 -1.379,0 -2.048,0.627 -2.048,1.358 0,0.898 0.794,1.295 2.611,1.985 2.486,0.919 3.655,2.214 3.655,4.199 0,2.36 -1.817,4.366 -5.682,4.366 -1.608,0 -3.196,-0.418 -3.989,-0.856 l 0.648,-2.634 z"
         id="path3670"
         inkscape:connector-curvature="0"
         style="fill:#ffffff" /><path
         d="m 49.701,48.41 c 0.856,0.439 2.172,0.877 3.53,0.877 1.462,0 2.235,-0.605 2.235,-1.525 0,-0.877 -0.669,-1.378 -2.361,-1.984 -2.339,-0.815 -3.864,-2.11 -3.864,-4.157 0,-2.402 2.006,-4.24 5.327,-4.24 1.587,0 2.757,0.334 3.593,0.71 l -0.71,2.57 c -0.564,-0.272 -1.567,-0.669 -2.945,-0.669 -1.379,0 -2.048,0.627 -2.048,1.358 0,0.898 0.794,1.295 2.611,1.985 2.486,0.919 3.655,2.214 3.655,4.199 0,2.36 -1.816,4.366 -5.682,4.366 -1.608,0 -3.196,-0.418 -3.989,-0.856 l 0.648,-2.634 z"
         id="path3672"
         inkscape:connector-curvature="0"
         style="fill:#ffffff" /></g></g><g
     id="g3674"
     transform="translate(4,-1)"><g
       id="g3676"><path
         d="m 128.79,40.284 h -3.781 V 37.61 h 10.82 v 2.674 h -3.844 V 51.69 H 128.79 V 40.284 z"
         id="path3678"
         inkscape:connector-curvature="0"
         style="fill:#ffffff" /><path
         d="m 137.523,37.798 c 1.023,-0.167 2.548,-0.292 4.24,-0.292 2.089,0 3.551,0.313 4.554,1.107 0.836,0.668 1.295,1.65 1.295,2.945 0,1.796 -1.273,3.029 -2.485,3.468 v 0.062 c 0.981,0.397 1.524,1.337 1.88,2.632 0.438,1.587 0.878,3.426 1.149,3.969 h -3.259 c -0.23,-0.397 -0.564,-1.546 -0.982,-3.28 -0.376,-1.754 -0.981,-2.235 -2.276,-2.256 h -0.961 v 5.536 h -3.154 V 37.798 z m 3.155,6.058 h 1.253 c 1.588,0 2.527,-0.794 2.527,-2.026 0,-1.295 -0.877,-1.942 -2.339,-1.963 -0.773,0 -1.212,0.062 -1.441,0.104 v 3.885 z"
         id="path3680"
         inkscape:connector-curvature="0"
         style="fill:#ffffff" /><path
         d="m 158.288,45.736 h -5.18 v 3.342 h 5.786 v 2.611 h -8.982 V 37.61 h 8.689 v 2.611 h -5.493 v 2.924 h 5.18 v 2.591 z"
         id="path3682"
         inkscape:connector-curvature="0"
         style="fill:#ffffff" /><path
         d="m 161.068,37.798 c 0.835,-0.167 2.527,-0.292 4.115,-0.292 1.942,0 3.133,0.188 4.156,0.793 0.982,0.522 1.692,1.483 1.692,2.757 0,1.253 -0.731,2.423 -2.318,3.008 v 0.042 c 1.608,0.439 2.799,1.65 2.799,3.468 0,1.274 -0.585,2.277 -1.462,2.987 -1.023,0.814 -2.736,1.274 -5.536,1.274 -1.566,0 -2.736,-0.104 -3.446,-0.208 V 37.798 z m 3.155,5.39 h 1.044 c 1.672,0 2.569,-0.689 2.569,-1.734 0,-1.065 -0.814,-1.629 -2.256,-1.629 -0.689,0 -1.086,0.042 -1.357,0.083 v 3.28 z m 0,6.246 c 0.313,0.042 0.689,0.042 1.232,0.042 1.441,0 2.716,-0.543 2.716,-2.026 0,-1.42 -1.274,-1.984 -2.862,-1.984 h -1.086 v 3.968 z"
         id="path3684"
         inkscape:connector-curvature="0"
         style="fill:#ffffff" /><path
         d="m 173.688,37.61 h 3.196 v 11.406 h 5.598 v 2.674 h -8.794 V 37.61 z"
         id="path3686"
         inkscape:connector-curvature="0"
         style="fill:#ffffff" /><path
         d="m 192.739,45.736 h -5.18 v 3.342 h 5.786 v 2.611 h -8.982 V 37.61 h 8.689 v 2.611 h -5.493 v 2.924 h 5.18 v 2.591 z"
         id="path3688"
         inkscape:connector-curvature="0"
         style="fill:#ffffff" /></g></g><g
     id="g3690"
     transform="translate(18,-1)"><g
       id="g3692"><path
         d="m 239.179,48.41 c 0.856,0.439 2.172,0.877 3.53,0.877 1.462,0 2.235,-0.605 2.235,-1.525 0,-0.877 -0.669,-1.378 -2.361,-1.984 -2.339,-0.815 -3.864,-2.11 -3.864,-4.157 0,-2.402 2.006,-4.24 5.327,-4.24 1.587,0 2.757,0.334 3.593,0.71 l -0.71,2.57 c -0.564,-0.272 -1.567,-0.669 -2.945,-0.669 -1.379,0 -2.048,0.627 -2.048,1.358 0,0.898 0.794,1.295 2.611,1.985 2.486,0.919 3.655,2.214 3.655,4.199 0,2.36 -1.817,4.366 -5.682,4.366 -1.608,0 -3.196,-0.418 -3.989,-0.856 l 0.648,-2.634 z"
         id="path3694"
         inkscape:connector-curvature="0"
         style="fill:#ffffff" /><path
         d="m 253.53,37.61 v 8.105 c 0,2.423 0.919,3.655 2.549,3.655 1.671,0 2.59,-1.169 2.59,-3.655 V 37.61 h 3.176 v 7.896 c 0,4.345 -2.193,6.413 -5.87,6.413 -3.552,0 -5.641,-1.964 -5.641,-6.455 V 37.61 h 3.196 z"
         id="path3696"
         inkscape:connector-curvature="0"
         style="fill:#ffffff" /><path
         d="m 264.604,37.798 c 0.835,-0.167 2.527,-0.292 4.115,-0.292 1.942,0 3.133,0.188 4.156,0.793 0.982,0.522 1.692,1.483 1.692,2.757 0,1.253 -0.731,2.423 -2.318,3.008 v 0.042 c 1.608,0.439 2.799,1.65 2.799,3.468 0,1.274 -0.585,2.277 -1.462,2.987 -1.023,0.814 -2.736,1.274 -5.536,1.274 -1.566,0 -2.736,-0.104 -3.446,-0.208 V 37.798 z m 3.155,5.39 h 1.044 c 1.672,0 2.569,-0.689 2.569,-1.734 0,-1.065 -0.814,-1.629 -2.256,-1.629 -0.689,0 -1.086,0.042 -1.357,0.083 v 3.28 z m 0,6.246 c 0.313,0.042 0.689,0.042 1.232,0.042 1.441,0 2.716,-0.543 2.716,-2.026 0,-1.42 -1.274,-1.984 -2.862,-1.984 h -1.086 v 3.968 z"
         id="path3698"
         inkscape:connector-curvature="0"
         style="fill:#ffffff" /></g></g><polyline
     style="opacity:0.5;fill:#53b5ce;fill-opacity:1;stroke:#31abff;stroke-width:0.23190001;stroke-miterlimit:10;stroke-opacity:0.63999999"
     id="polyline3387"
     points="  289.662,204.603 289.662,209.942 257.789,209.942 257.789,196.053 289.662,196.053 289.662,204.603 "
     stroke-miterlimit="10"
     transform="translate(0,-9)" /><polyline
     style="opacity:0.5;fill:#53b5ce;fill-opacity:1;stroke:#31abff;stroke-width:0.23190001;stroke-miterlimit:10;stroke-opacity:0.63999999"
     id="polyline3389"
     points="  289.662,187.539 289.662,192.88 257.789,192.88 257.789,178.992 289.662,178.992 289.662,187.539 "
     stroke-miterlimit="10"
     transform="translate(0,-9)" /><polyline
     style="opacity:0.5;fill:#53b5ce;fill-opacity:1;stroke:#31abff;stroke-width:0.23190001;stroke-miterlimit:10;stroke-opacity:0.63999999"
     id="polyline3391"
     points="  178.662,204.603 178.662,209.942 146.789,209.942 146.789,196.053 178.662,196.053 178.662,204.603 "
     stroke-miterlimit="10"
     transform="translate(0,-9)" /><polyline
     style="opacity:0.5;fill:#53b5ce;fill-opacity:1;stroke:#31abff;stroke-width:0.23190001;stroke-miterlimit:10;stroke-opacity:0.63999999"
     id="polyline3393"
     points="  178.662,187.539 178.662,192.88 146.789,192.88 146.789,178.992 178.662,178.992 178.662,187.539 "
     stroke-miterlimit="10"
     transform="translate(0,-9)" /><polyline
     style="opacity:0.5;fill:#53b5ce;fill-opacity:1;stroke:#31abff;stroke-width:0.23190001;stroke-miterlimit:10;stroke-opacity:0.63999999"
     id="polyline3395"
     points="  64.662,204.603 64.662,209.942 32.789,209.942 32.789,196.053 64.662,196.053 64.662,204.603 "
     stroke-miterlimit="10"
     transform="translate(0,-9)" /><polyline
     style="opacity:0.5;fill:#53b5ce;fill-opacity:1;stroke:#31abff;stroke-width:0.23190001;stroke-miterlimit:10;stroke-opacity:0.63999999"
     id="polyline3397"
     points="  64.662,187.539 64.662,192.88 32.789,192.88 32.789,178.992 64.662,178.992 64.662,187.539 "
     stroke-miterlimit="10"
     transform="translate(0,-9)" /></svg>