<?xml version="1.0" encoding="utf-8"?>
<!-- Generator: Adobe Illustrator 15.1.0, SVG Export Plug-In  -->
<!DOCTYPE svg PUBLIC "-//W3C//DTD SVG 1.1//EN" "http://www.w3.org/Graphics/SVG/1.1/DTD/svg11.dtd" [
	<!ENTITY ns_flows "http://ns.adobe.com/Flows/1.0/">
]>
<svg version="1.1"
	 xmlns="http://www.w3.org/2000/svg" xmlns:xlink="http://www.w3.org/1999/xlink" xmlns:a="http://ns.adobe.com/AdobeSVGViewerExtensions/3.0/"
	 x="0px" y="0px" width="147px" height="80px" viewBox="0 0 147 80" overflow="visible" enable-background="new 0 0 147 80"
	 xml:space="preserve">
<defs>
</defs>
<g>
	<rect opacity="0.29" fill="#31ABFF" width="147" height="80"/>
	<g opacity="0.64">
		<path fill="#31ABFF" d="M146,1v78H1V1H146 M147,0H0v80h147V0L147,0z"/>
	</g>
</g>
<path fill="#31ABFF" d="M34.506,43.888c0.957,0.49,2.428,0.98,3.945,0.98c1.635,0,2.498-0.677,2.498-1.704
	c0-0.98-0.748-1.54-2.639-2.218c-2.615-0.91-4.318-2.357-4.318-4.646c0-2.684,2.24-4.739,5.953-4.739
	c1.773,0,3.082,0.374,4.016,0.795l-0.795,2.871c-0.629-0.304-1.75-0.747-3.291-0.747s-2.287,0.7-2.287,1.518
	c0,1.004,0.887,1.447,2.918,2.218c2.777,1.027,4.086,2.475,4.086,4.692c0,2.639-2.031,4.879-6.352,4.879
	c-1.797,0-3.572-0.467-4.459-0.957L34.506,43.888z"/>
<path fill="#31ABFF" d="M50,35h-4v-3h12v3h-4v13h-4V35z"/>
<path fill="#31ABFF" d="M69,41h-6v4h7v3H60V32h9v3h-6v3h6V41z"/>
<path fill="#31ABFF" d="M72,32.028c1-0.187,2.973-0.327,4.863-0.327c2.334,0,4.031,0.35,5.152,1.237
	c0.934,0.747,1.605,1.845,1.605,3.292c0,2.008-1.621,3.386-2.621,3.876v0.069c1,0.444,1.578,1.717,1.975,3.166
	C83.465,45.115,83.828,47,84.133,48H80.49c-0.256-1-0.631-2.135-1.098-4.072C78.973,41.967,78.295,41,76.848,41H76v7h-4V32.028z
	 M76,39h1.176C78.949,39,80,38.012,80,36.635c0-1.447-0.867-2.222-2.502-2.246c-0.863,0-1.498,0.02-1.498,0.066V39z"/>
<path fill="#31ABFF" d="M95,41h-5v4h6v3H86V32h10v3h-6v3h5V41z"/>
<path fill="#31ABFF" d="M112.959,39.522c0,5.159-3.127,8.287-7.727,8.287c-4.67,0-7.4-3.525-7.4-8.008
	c0-4.715,3.012-8.241,7.656-8.241C110.322,31.561,112.959,35.18,112.959,39.522z M101.59,39.732c0,3.081,1.447,5.253,3.83,5.253
	c2.404,0,3.781-2.288,3.781-5.346c0-2.826-1.354-5.254-3.805-5.254C102.99,34.386,101.59,36.674,101.59,39.732z"/>
</svg>
