<?xml version="1.0" encoding="utf-8"?>
<!-- Generator: Adobe Illustrator 15.1.0, SVG Export Plug-In  -->
<!DOCTYPE svg PUBLIC "-//W3C//DTD SVG 1.1//EN" "http://www.w3.org/Graphics/SVG/1.1/DTD/svg11.dtd" [
	<!ENTITY ns_flows "http://ns.adobe.com/Flows/1.0/">
]>
<svg version="1.1"
	 xmlns="http://www.w3.org/2000/svg" xmlns:xlink="http://www.w3.org/1999/xlink" xmlns:a="http://ns.adobe.com/AdobeSVGViewerExtensions/3.0/"
	 x="0px" y="0px" width="147px" height="80px" viewBox="0 0 147 80" overflow="visible" enable-background="new 0 0 147 80"
	 xml:space="preserve">
<defs>
</defs>
<g>
	<rect opacity="0.29" fill="#31ABFF" width="147" height="80"/>
	<g opacity="0.64">
		<path fill="#31ABFF" d="M146,1v78H1V1H146 M147,0H0v80h147V0L147,0z"/>
	</g>
</g>
<g>
	<linearGradient id="SVGID_2_" gradientUnits="userSpaceOnUse" x1="73" y1="3.835" x2="73" y2="77.958">
		<stop  offset="0.5092" style="stop-color:#31ABFF;stop-opacity:0"/>
		<stop  offset="0.9018" style="stop-color:#31ABFF"/>
		<stop  offset="1" style="stop-color:#63E6FF"/>
	</linearGradient>
	<rect y="1" fill="url(#SVGID_2_)" width="146" height="78"/>
	<path fill="#31ABFF" d="M146,1v78H1V1H146 M147,0H0v80h147V0L147,0z"/>
</g>
<path fill="#FFFFFF" d="M17,42h32V20H17V42z M24,39h-3V23h3.41c3.717,0,6.828,3.616,6.828,7.97c0,4.482-3.111,8.03-6.828,8.03
	 M45,39h-3.744c-3.723,0-6.826-3.546-6.826-8.03c0-4.355,3.104-7.97,6.826-7.97H45V39z"/>
<path fill="#FFFFFF" d="M34.105,56.524c-0.094,0.314-0.118,0.574-0.317,0.773c-0.197,0.199-0.399,0.403-0.722,0.499
	C32.742,57.894,32.41,58,31.943,58H29v3h-3V51h5.746c0.947,0,1.402,0.227,1.84,0.618C34.021,52.012,34,52.7,34,53.624v1.768
	C34,55.831,34.193,56.21,34.105,56.524 M32,53.597c0-0.311,0.072-0.394-0.09-0.531C31.746,52.921,31.664,53,31.357,53H29v3h2.391
	c0.301,0,0.379,0.044,0.533-0.1C32.074,55.761,32,55.644,32,55.335V53.597L32,53.597z"/>
<path fill="#FFFFFF" d="M41.795,61l-2.072-3H39v3h-2V51h4.611c0.475,0,0.859,0.098,1.16,0.241c0.309,0.143,0.549,0.346,0.727,0.59
	c0.18,0.238,0.313,0.524,0.384,0.837C43.954,52.99,44,53.321,44,53.667v1.373c0,0.275-0.036,0.562-0.085,0.857
	c-0.047,0.297-0.149,0.568-0.292,0.814c-0.146,0.244-0.345,0.665-0.599,0.827S42.438,58,42.031,58h-0.258l2.344,3h-2.32H41.795
	L41.795,61z M41.979,53.624c0-0.312-0.076-0.409-0.221-0.547C41.607,52.932,41.393,53,41.119,53H39v3h2.143
	c0.557,0,0.838-0.304,0.838-0.917L41.979,53.624L41.979,53.624z"/>
<path fill="#FFFFFF" d="M54.784,59.981c-0.113,0.357-0.31,0.643-0.55,0.867c-0.238,0.221-0.551,0.149-0.918,0.241
	C52.951,61.181,52.5,61,51.994,61h-2.799c-0.506,0-0.943,0.183-1.309,0.089c-0.367-0.092-0.67-0.134-0.902-0.355
	c-0.234-0.225-0.555-0.453-0.668-0.81C46.203,59.563,46,59.179,46,58.647v-5.219c0-0.471,0.211-0.863,0.338-1.193
	c0.125-0.318,0.383-0.58,0.623-0.781c0.242-0.203,0.57-0.283,0.914-0.378C48.227,50.982,48.66,51,49.105,51h2.99
	c0.896,0,1.634,0.132,2.124,0.521c0.488,0.387,0.78,0.978,0.78,1.908v5.219C55,59.179,54.897,59.622,54.784,59.981 M53,53.458
	c0-0.279-0.232-0.307-0.35-0.436C52.537,52.887,52.154,53,51.863,53h-2.521c-0.291,0-0.274-0.105-0.388,0.051
	C48.833,53.202,49,53.214,49,53.458v5.412c0,0.285-0.161,0.642-0.034,0.777S49.076,60,49.359,60h2.488
	c0.283,0,0.658-0.218,0.789-0.353C52.764,59.512,53,59.155,53,58.87V53.458L53,53.458z"/>
<polygon fill="#FFFFFF" points="61,61 61,51 63,51 63,60 68,60 68,61 "/>
<path fill="#FFFFFF" d="M78.58,59.999c-0.111,0.359-0.417,0.645-0.659,0.869c-0.244,0.219-0.61,0.138-0.981,0.232
	c-0.373,0.092-0.883-0.1-1.395-0.1h-2.846c-0.514,0-0.955,0.194-1.328,0.1s-0.682-0.132-0.92-0.351
	c-0.236-0.225-0.289-0.45-0.404-0.81C69.936,59.578,70,59.194,70,58.663v-5.23c0-0.469-0.059-0.863,0.068-1.195
	c0.127-0.318,0.254-0.582,0.5-0.781c0.242-0.203,0.511-0.283,0.86-0.378C71.784,50.982,72.154,51,72.615,51h3.031
	c0.914,0,1.863,0.132,2.363,0.521C78.504,51.91,79,52.503,79,53.433v5.23C79,59.194,78.695,59.64,78.58,59.999 M76,53.462
	c0-0.277,0.044-0.312-0.073-0.441C75.808,52.89,75.705,53,75.408,53h-2.557c-0.299,0-0.529-0.104-0.65,0.052
	C72.08,53.203,72,53.22,72,53.462v5.424c0,0.285,0.09,0.636,0.217,0.769C72.344,59.79,72.576,60,72.865,60h2.529
	c0.287,0,0.388-0.21,0.517-0.345C76.04,59.522,76,59.171,76,58.886V53.462L76,53.462z"/>
<path fill="#FFFFFF" d="M86.967,61l-0.236-0.558c-0.086,0.109-0.195,0.284-0.326,0.387c-0.131,0.102-0.295,0.228-0.498,0.313
	c-0.205,0.086-0.451-0.057-0.732-0.01C84.893,61.186,84.555,61,84.158,61h-1.131c-0.486,0-0.92,0.185-1.305,0.101
	c-0.381-0.086-0.697-0.121-0.951-0.337c-0.252-0.215-0.446-0.448-0.579-0.805S80,59.204,80,58.665v-5.111
	c0-0.664,0.106-1.18,0.325-1.539c0.229-0.355,0.507-0.621,0.839-0.797c0.342-0.17,0.71-0.206,1.11-0.239
	C82.677,50.95,83.051,51,83.398,51h2.695c0.512,0,0.751-0.027,1.167,0.061C87.677,51.145,88,51.187,88,51.315V53h-4.736
	c-0.309,0-0.692-0.127-0.862-0.012C82.229,53.107,82,53.185,82,53.595v5.318c0,0.334,0.229,0.689,0.411,0.792
	C82.603,59.817,82.971,60,83.248,60h1.594c0.107,0,0.234-0.14,0.387-0.16c0.15-0.02,0.299-0.114,0.441-0.145
	c0.15-0.035,0.07-0.107,0.213-0.152C86.025,59.5,86,59.417,86,59.372V57h-2v-2h5v6H86.967L86.967,61L86.967,61z"/>
<rect x="91" y="51" fill="#FFFFFF" width="2" height="10"/>
<path fill="#FFFFFF" d="M102.512,61.169c-0.182,0.07-0.369,0.127-0.562,0.17c-0.201,0.039-0.396-0.158-0.597-0.138
	c-0.199,0.025-0.384-0.201-0.565-0.201h-2.361c-0.98,0-1.933,0.042-2.448-0.358C95.456,60.244,95,59.794,95,58.812v-5.27
	c0-0.494,0.267-0.908,0.396-1.248s0.425-0.615,0.683-0.828c0.258-0.207,0.623-0.292,1-0.386c0.379-0.094,0.859-0.08,1.348-0.08
	h2.438c0.35,0,0.707-0.034,1.088,0.023c0.393,0.061,1.049,0.123,1.049,0.304V53h-4.34c-0.316,0-0.405-0.123-0.563,0.01
	C97.929,53.143,98,53.181,98,53.493v5.361c0,0.314-0.071,0.677,0.097,0.81C98.259,59.792,98.344,60,98.66,60H103v0.933
	C103,61.019,102.695,61.101,102.512,61.169"/>
<rect x="108" y="51" fill="#FFFFFF" width="2" height="11"/>
<rect x="113" y="51" fill="#FFFFFF" width="2" height="11"/>
<polygon fill="#FFFFFF" points="117,62 117,60.134 120.191,55 117,55 117,54 122,54 122,55.218 118.939,60 122,60 122,62 "/>
<path fill="#FFFFFF" d="M129.018,23l-3.926,7.389L121.301,23h-3.555C118.41,24,123,33.534,123,33.534V40h3.875
	c0.004-1,0-6.301,0-6.301S131.703,24,132.385,23H129.018z"/>
<path fill="#FFFFFF" d="M83,33.847c0,2.994-0.645,3.68-3.5,3.68s-3.5-0.684-3.5-3.68v-5.059c0-2.92,0.645-3.555,3.5-3.555
	c2.854,0,3.5,0.633,3.5,3.555V33.847z M84.962,23.812c-1.131-0.811-3.015-1.234-5.491-1.234c-2.414,0-4.118,0.348-5.462,1.24
	C72.604,24.753,72,26.319,72,28.767v5.314c0,2.453,0.638,4.111,2.005,4.938c1.105,0.791,2.878,1.166,5.509,1.166
	c2.594,0,4.392-0.387,5.454-1.146C86.337,38.163,87,36.458,87,34.081v-5.314C87,26.437,86.337,24.769,84.962,23.812"/>
<path fill="#FFFFFF" d="M65,33.13c0,2.775-1.354,3.87-2.654,3.87H58V26h4.346C63.648,26,65,26.218,65,28.804V33.13z M62,23h-8v16
	h8.898C67.287,39,69,37.347,69,32.745v-3.488C69,24.894,67.064,23,62.316,23"/>
<polygon fill="#FFFFFF" points="94,23 90,23 90,39 101,39 101,37 94,37 "/>
<path fill="#FFFFFF" d="M132.475,37.919c0,0.713-0.523,1.227-1.193,1.227c-0.678,0-1.199-0.514-1.199-1.227
	c0-0.693,0.521-1.221,1.199-1.221C131.951,36.7,132.475,37.226,132.475,37.919 M129.799,37.919c0,0.848,0.68,1.465,1.482,1.465
	c0.793,0,1.473-0.617,1.473-1.465c0-0.838-0.682-1.451-1.473-1.451C130.477,36.468,129.799,37.083,129.799,37.919 M130.971,37.298
	h0.346c0.301,0,0.375,0.088,0.375,0.246c0,0.189-0.1,0.275-0.418,0.275h-0.305v-0.521H130.971z M130.971,38.034h0.289l0.447,0.732
	h0.283l-0.475-0.742c0.248-0.031,0.436-0.162,0.436-0.463c0-0.332-0.193-0.48-0.596-0.48h-0.645v1.686h0.26V38.034L130.971,38.034z"
	/>
<path fill="#FFFFFF" d="M112.459,30.774c3.062-0.264,3.727-1.662,3.727-3.676c0-1.771-0.807-2.769-1.688-3.279
	c-0.736-0.434-1.611-0.82-3.447-0.82H103v16h8.158c2.516,0,3.561-0.317,4.051-0.625c0.826-0.52,1.904-1.595,1.904-3.427
	C117.113,32.781,116.311,30.688,112.459,30.774 M110,37h-3v-0.063V25.509V26h3.707c1.293,0,2.22,0.708,2.22,2.026
	c0,2.02-0.927,1.819-3.927,1.918v1.865c2-0.01,4.698-0.136,4.698,2.444c0,1.295-0.995,2.747-3.302,2.747"/>
<polygon fill="#FFFFFF" points="132,61 130,61 130,47 17,47 17,45 132,45 "/>
</svg>
