<?xml version="1.0" encoding="utf-8"?>
<!-- Generator: Adobe Illustrator 15.1.0, SVG Export Plug-In  -->
<!DOCTYPE svg PUBLIC "-//W3C//DTD SVG 1.1//EN" "http://www.w3.org/Graphics/SVG/1.1/DTD/svg11.dtd" [
	<!ENTITY ns_flows "http://ns.adobe.com/Flows/1.0/">
]>
<svg version="1.1"
	 xmlns="http://www.w3.org/2000/svg" xmlns:xlink="http://www.w3.org/1999/xlink" xmlns:a="http://ns.adobe.com/AdobeSVGViewerExtensions/3.0/"
	 x="0px" y="0px" width="194px" height="58px" viewBox="0 0 194 58" overflow="visible" enable-background="new 0 0 194 58"
	 xml:space="preserve">
<defs>
</defs>
<rect x="0.849" y="0.85" fill="#31ABFF" fill-opacity="0.29" stroke="#31ABFF" stroke-width="0.6866" stroke-miterlimit="10" stroke-opacity="0.64" width="192.838" height="56.473"/>
<linearGradient id="SVGID_1_" gradientUnits="userSpaceOnUse" x1="97" y1="2.8936" x2="97" y2="55.9068">
	<stop  offset="0.5092" style="stop-color:#31ABFF;stop-opacity:0"/>
	<stop  offset="0.9018" style="stop-color:#31ABFF"/>
	<stop  offset="1" style="stop-color:#63E6FF"/>
</linearGradient>
<rect x="0.5" y="0.5" fill="url(#SVGID_1_)" stroke="#31ABFF" stroke-miterlimit="10" width="193" height="57"/>
<polygon opacity="0.5" fill="#FFFFFF" points="109.321,17 97.223,40.774 85.124,17 "/>
<path fill="#FFFFFF" d="M97.223,37.968L87.57,19h19.305L97.223,37.968 M97.223,43.246c0.354,0,0.71-0.265,0.979-0.794l12.586-24.63
	c0.539-1.059,0.008-1.822-1.181-1.822h-24.77c-1.188,0-1.72,0.764-1.181,1.822l12.586,24.682
	C96.513,43.033,96.868,43.246,97.223,43.246L97.223,43.246z"/>
</svg>
