<?xml version="1.0" encoding="utf-8"?>
<!-- Generator: Adobe Illustrator 15.1.0, SVG Export Plug-In  -->
<!DOCTYPE svg PUBLIC "-//W3C//DTD SVG 1.1//EN" "http://www.w3.org/Graphics/SVG/1.1/DTD/svg11.dtd" [
	<!ENTITY ns_flows "http://ns.adobe.com/Flows/1.0/">
]>
<svg version="1.1"
	 xmlns="http://www.w3.org/2000/svg" xmlns:xlink="http://www.w3.org/1999/xlink" xmlns:a="http://ns.adobe.com/AdobeSVGViewerExtensions/3.0/"
	 x="0px" y="0px" width="58px" height="194px" viewBox="0 0 58 194" overflow="visible" enable-background="new 0 0 58 194"
	 xml:space="preserve">
<defs>
</defs>
<g>
	<rect opacity="0.29" fill="#31ABFF" width="58" height="194"/>
	<g opacity="0.64">
		<path fill="#31ABFF" d="M57.313,0.687v192.627H0.687V0.687H57.313 M58,0H0v194h58V0L58,0z"/>
	</g>
</g>
<polygon opacity="0.5" fill="#31ABFF" points="17.736,84.946 41.511,97.045 17.736,109.144 "/>
<path fill="#31ABFF" d="M38.704,97.045l-18.968,9.652V87.393L38.704,97.045 M44.16,97.045c0-0.354-0.265-0.71-0.794-0.979
	L18.647,83.479c-1.059-0.539-1.911-0.008-1.911,1.181v24.77c0,1.188,0.853,1.72,1.911,1.181l24.726-12.586
	C43.902,97.755,44.16,97.399,44.16,97.045L44.16,97.045z"/>
</svg>
