<?xml version="1.0" encoding="utf-8"?>
<!-- Generator: Adobe Illustrator 15.1.0, SVG Export Plug-In  -->
<!DOCTYPE svg PUBLIC "-//W3C//DTD SVG 1.1//EN" "http://www.w3.org/Graphics/SVG/1.1/DTD/svg11.dtd" [
	<!ENTITY ns_flows "http://ns.adobe.com/Flows/1.0/">
]>
<svg version="1.1"
	 xmlns="http://www.w3.org/2000/svg" xmlns:xlink="http://www.w3.org/1999/xlink" xmlns:a="http://ns.adobe.com/AdobeSVGViewerExtensions/3.0/"
	 x="0px" y="0px" width="104px" height="56px" viewBox="0 0 104 56" overflow="visible" enable-background="new 0 0 104 56"
	 xml:space="preserve">
<defs>
</defs>
<g>
	<rect opacity="0.29" fill="#31ABFF" width="104" height="56"/>
	<g opacity="0.64">
		<path fill="#31ABFF" d="M103,1v54H1V1H103 M104,0H0v56h104V0L104,0z"/>
	</g>
</g>
<g>
	<g>
		<path fill="#31ABFF" d="M46.235,28.059c0,6.279-3.808,10.086-9.404,10.086c-5.683,0-9.007-4.29-9.007-9.745
			c0-5.739,3.666-10.029,9.319-10.029C43.025,18.371,46.235,22.774,46.235,28.059z M32.398,28.314c0,3.75,1.762,6.393,4.66,6.393
			c2.926,0,4.603-2.784,4.603-6.506c0-3.438-1.647-6.393-4.632-6.393C34.104,21.808,32.398,24.593,32.398,28.314z"/>
		<path fill="#31ABFF" d="M49,19h12v3h-8v5h7v3h-7v8h-4V19z"/>
		<path fill="#31ABFF" d="M64,19h12v3h-8v5h7v3h-7v8h-4V19z"/>
	</g>
</g>
</svg>
