<?xml version="1.0" encoding="utf-8"?>
<!-- Generator: Adobe Illustrator 15.1.0, SVG Export Plug-In  -->
<!DOCTYPE svg PUBLIC "-//W3C//DTD SVG 1.1//EN" "http://www.w3.org/Graphics/SVG/1.1/DTD/svg11.dtd" [
	<!ENTITY ns_flows "http://ns.adobe.com/Flows/1.0/">
]>
<svg version="1.1"
	 xmlns="http://www.w3.org/2000/svg" xmlns:xlink="http://www.w3.org/1999/xlink" xmlns:a="http://ns.adobe.com/AdobeSVGViewerExtensions/3.0/"
	 x="0px" y="0px" width="720px" height="585px" viewBox="-28 0 720 585" overflow="visible" enable-background="new -28 0 720 585"
	 xml:space="preserve">
<defs>
	<symbol  id="arrow_4_" viewBox="-96.751 -28.408 193.525 57.159">
		<g>
			
				<polygon fill="#31ABFF" fill-opacity="0.29" stroke="#31ABFF" stroke-width="0.6866" stroke-miterlimit="10" stroke-opacity="0.64" points="
				96.431,-28.064 -96.407,-28.064 -96.407,28.408 96.431,28.408 			"/>
		</g>
		<g>
			<polygon opacity="0.5" fill="#31ABFF" points="-12.042,-11.619 0.057,12.155 12.155,-11.619 			"/>
			<path fill="#31ABFF" d="M0.057,8.849l9.652-18.968H-9.596L0.057,8.849 M0.057,14.332c-0.354,0-0.71-0.265-0.979-0.794
				l-12.586-24.732c-0.539-1.059-0.008-1.925,1.181-1.925h24.77c1.188,0,1.72,0.866,1.181,1.925L1.036,13.538
				C0.767,14.067,0.411,14.332,0.057,14.332L0.057,14.332z"/>
		</g>
	</symbol>
</defs>
<g display="none">
	<g display="inline">
		<path display="none" fill="#8FD7FF" d="M28.635,82.202v2.6h-9.878v-2.6H28.635z"/>
		<path display="none" fill="#8FD7FF" d="M31.636,94.32v-2.16l2.759-2.68c6.639-6.319,9.639-9.678,9.679-13.598
			c0-2.64-1.28-5.079-5.159-5.079c-2.36,0-4.319,1.2-5.519,2.2l-1.12-2.479c1.8-1.52,4.359-2.64,7.359-2.64
			c5.599,0,7.958,3.839,7.958,7.559c0,4.799-3.479,8.679-8.958,13.958l-2.08,1.919v0.08h11.678v2.919H31.636z"/>
	</g>
</g>
<g display="none">
	<g display="inline">
		<path display="none" fill="#8FD7FF" d="M142.649,82.202v2.6h-9.878v-2.6H142.649z"/>
		<path display="none" fill="#8FD7FF" d="M145.651,94.32v-2.16l2.759-2.68c6.639-6.319,9.639-9.678,9.679-13.598
			c0-2.64-1.28-5.079-5.159-5.079c-2.36,0-4.319,1.2-5.519,2.2l-1.12-2.479c1.8-1.52,4.359-2.64,7.359-2.64
			c5.599,0,7.958,3.839,7.958,7.559c0,4.799-3.479,8.679-8.958,13.958l-2.08,1.919v0.08h11.678v2.919H145.651z"/>
	</g>
</g>
<g display="none">
	<g display="inline">
		<path display="none" fill="#8FD7FF" d="M252.607,82.202v2.6h-9.878v-2.6H252.607z"/>
		<path display="none" fill="#8FD7FF" d="M255.609,94.32v-2.16l2.759-2.68c6.639-6.319,9.639-9.678,9.679-13.598
			c0-2.64-1.28-5.079-5.159-5.079c-2.36,0-4.319,1.2-5.519,2.2l-1.12-2.479c1.8-1.52,4.359-2.64,7.359-2.64
			c5.599,0,7.958,3.839,7.958,7.559c0,4.799-3.479,8.679-8.958,13.958l-2.08,1.919v0.08h11.678v2.919H255.609z"/>
	</g>
</g>
<g display="none">
	<g display="inline">
		<path display="none" fill="#FFFFFF" d="M12.074,37.798c0.835-0.167,2.527-0.292,4.115-0.292c1.942,0,3.133,0.188,4.156,0.793
			c0.982,0.522,1.692,1.483,1.692,2.757c0,1.253-0.731,2.423-2.318,3.008v0.042c1.608,0.439,2.799,1.65,2.799,3.468
			c0,1.274-0.585,2.277-1.462,2.987c-1.023,0.814-2.736,1.274-5.536,1.274c-1.566,0-2.736-0.104-3.446-0.208V37.798z M15.229,43.188
			h1.044c1.672,0,2.569-0.689,2.569-1.734c0-1.065-0.814-1.629-2.256-1.629c-0.689,0-1.086,0.042-1.357,0.083V43.188z
			 M15.229,49.434c0.313,0.042,0.689,0.042,1.232,0.042c1.441,0,2.716-0.543,2.716-2.026c0-1.42-1.274-1.984-2.862-1.984h-1.086
			V49.434z"/>
		<path display="none" fill="#FFFFFF" d="M27.889,48.076l-1.003,3.614h-3.3l4.303-14.08h4.178l4.366,14.08h-3.426l-1.087-3.614
			H27.889z M31.461,45.694l-0.877-2.987c-0.251-0.835-0.502-1.88-0.711-2.716h-0.042c-0.208,0.836-0.417,1.901-0.647,2.716
			l-0.835,2.987H31.461z"/>
		<path display="none" fill="#FFFFFF" d="M38.419,48.41c0.856,0.439,2.172,0.877,3.53,0.877c1.462,0,2.235-0.605,2.235-1.525
			c0-0.877-0.669-1.378-2.361-1.984c-2.339-0.815-3.864-2.11-3.864-4.157c0-2.402,2.006-4.24,5.327-4.24
			c1.587,0,2.757,0.334,3.593,0.71l-0.71,2.57c-0.564-0.272-1.567-0.669-2.945-0.669c-1.379,0-2.048,0.627-2.048,1.358
			c0,0.898,0.794,1.295,2.611,1.985c2.486,0.919,3.655,2.214,3.655,4.199c0,2.36-1.817,4.366-5.682,4.366
			c-1.608,0-3.196-0.418-3.989-0.856L38.419,48.41z"/>
		<path display="none" fill="#FFFFFF" d="M49.701,48.41c0.856,0.439,2.172,0.877,3.53,0.877c1.462,0,2.235-0.605,2.235-1.525
			c0-0.877-0.669-1.378-2.361-1.984c-2.339-0.815-3.864-2.11-3.864-4.157c0-2.402,2.006-4.24,5.327-4.24
			c1.587,0,2.757,0.334,3.593,0.71l-0.71,2.57c-0.564-0.272-1.567-0.669-2.945-0.669c-1.379,0-2.048,0.627-2.048,1.358
			c0,0.898,0.794,1.295,2.611,1.985c2.486,0.919,3.655,2.214,3.655,4.199c0,2.36-1.816,4.366-5.682,4.366
			c-1.608,0-3.196-0.418-3.989-0.856L49.701,48.41z"/>
	</g>
</g>
<rect x="9.884" y="108.346" display="none" fill="#31ABFF" fill-opacity="0.29" stroke="#31ABFF" stroke-width="0.6866" stroke-miterlimit="10" stroke-opacity="0.64" width="53.676" height="56.474"/>
<g display="none">
	<g display="inline">
		<path display="none" fill="#31ABFF" d="M38.671,129.814v6.194h5.938v2.671h-5.938v6.25h-2.784v-6.25h-5.938v-2.671h5.938v-6.194
			H38.671z"/>
	</g>
</g>
<g display="none">
	<g display="inline">
		<path display="none" fill="#FFFFFF" d="M128.79,40.284h-3.781V37.61h10.82v2.674h-3.844v11.406h-3.195V40.284z"/>
		<path display="none" fill="#FFFFFF" d="M137.523,37.798c1.023-0.167,2.548-0.292,4.24-0.292c2.089,0,3.551,0.313,4.554,1.107
			c0.836,0.668,1.295,1.65,1.295,2.945c0,1.796-1.273,3.029-2.485,3.468v0.062c0.981,0.397,1.524,1.337,1.88,2.632
			c0.438,1.587,0.878,3.426,1.149,3.969h-3.259c-0.23-0.397-0.564-1.546-0.982-3.28c-0.376-1.754-0.981-2.235-2.276-2.256h-0.961
			v5.536h-3.154V37.798z M140.678,43.856h1.253c1.588,0,2.527-0.794,2.527-2.026c0-1.295-0.877-1.942-2.339-1.963
			c-0.773,0-1.212,0.062-1.441,0.104V43.856z"/>
		<path display="none" fill="#FFFFFF" d="M158.288,45.736h-5.18v3.342h5.786v2.611h-8.982V37.61h8.689v2.611h-5.493v2.924h5.18
			V45.736z"/>
		<path display="none" fill="#FFFFFF" d="M161.068,37.798c0.835-0.167,2.527-0.292,4.115-0.292c1.942,0,3.133,0.188,4.156,0.793
			c0.982,0.522,1.692,1.483,1.692,2.757c0,1.253-0.731,2.423-2.318,3.008v0.042c1.608,0.439,2.799,1.65,2.799,3.468
			c0,1.274-0.585,2.277-1.462,2.987c-1.023,0.814-2.736,1.274-5.536,1.274c-1.566,0-2.736-0.104-3.446-0.208V37.798z
			 M164.223,43.188h1.044c1.672,0,2.569-0.689,2.569-1.734c0-1.065-0.814-1.629-2.256-1.629c-0.689,0-1.086,0.042-1.357,0.083
			V43.188z M164.223,49.434c0.313,0.042,0.689,0.042,1.232,0.042c1.441,0,2.716-0.543,2.716-2.026c0-1.42-1.274-1.984-2.862-1.984
			h-1.086V49.434z"/>
		<path display="none" fill="#FFFFFF" d="M173.688,37.61h3.196v11.406h5.598v2.674h-8.794V37.61z"/>
		<path display="none" fill="#FFFFFF" d="M192.739,45.736h-5.18v3.342h5.786v2.611h-8.982V37.61h8.689v2.611h-5.493v2.924h5.18
			V45.736z"/>
	</g>
</g>
<rect x="123.884" y="108.346" display="none" fill="#31ABFF" fill-opacity="0.29" stroke="#31ABFF" stroke-width="0.6866" stroke-miterlimit="10" stroke-opacity="0.64" width="53.676" height="56.474"/>
<g display="none">
	<g display="inline">
		<path display="none" fill="#31ABFF" d="M152.671,129.814v6.194h5.938v2.671h-5.938v6.25h-2.784v-6.25h-5.938v-2.671h5.938v-6.194
			H152.671z"/>
	</g>
</g>
<g display="none">
	<g display="inline">
		<path display="none" fill="#FFFFFF" d="M239.179,48.41c0.856,0.439,2.172,0.877,3.53,0.877c1.462,0,2.235-0.605,2.235-1.525
			c0-0.877-0.669-1.378-2.361-1.984c-2.339-0.815-3.864-2.11-3.864-4.157c0-2.402,2.006-4.24,5.327-4.24
			c1.587,0,2.757,0.334,3.593,0.71l-0.71,2.57c-0.564-0.272-1.567-0.669-2.945-0.669c-1.379,0-2.048,0.627-2.048,1.358
			c0,0.898,0.794,1.295,2.611,1.985c2.486,0.919,3.655,2.214,3.655,4.199c0,2.36-1.817,4.366-5.682,4.366
			c-1.608,0-3.196-0.418-3.989-0.856L239.179,48.41z"/>
		<path display="none" fill="#FFFFFF" d="M253.53,37.61v8.105c0,2.423,0.919,3.655,2.549,3.655c1.671,0,2.59-1.169,2.59-3.655V37.61
			h3.176v7.896c0,4.345-2.193,6.413-5.87,6.413c-3.552,0-5.641-1.964-5.641-6.455V37.61H253.53z"/>
		<path display="none" fill="#FFFFFF" d="M264.604,37.798c0.835-0.167,2.527-0.292,4.115-0.292c1.942,0,3.133,0.188,4.156,0.793
			c0.982,0.522,1.692,1.483,1.692,2.757c0,1.253-0.731,2.423-2.318,3.008v0.042c1.608,0.439,2.799,1.65,2.799,3.468
			c0,1.274-0.585,2.277-1.462,2.987c-1.023,0.814-2.736,1.274-5.536,1.274c-1.566,0-2.736-0.104-3.446-0.208V37.798z
			 M267.759,43.188h1.044c1.672,0,2.569-0.689,2.569-1.734c0-1.065-0.814-1.629-2.256-1.629c-0.689,0-1.086,0.042-1.357,0.083
			V43.188z M267.759,49.434c0.313,0.042,0.689,0.042,1.232,0.042c1.441,0,2.716-0.543,2.716-2.026c0-1.42-1.274-1.984-2.862-1.984
			h-1.086V49.434z"/>
	</g>
</g>
<use xlink:href="#arrow_4_"  width="193.525" height="57.159" x="-96.751" y="-28.408" transform="matrix(1 0 0 -1 504 61.9922)" display="none" overflow="visible"/>
<use xlink:href="#arrow_4_"  width="193.525" height="57.159" id="XMLID_2_" x="-96.751" y="-28.408" transform="matrix(0 -1 -1 0 366.7529 363.6768)" display="none" overflow="visible"/>
<use xlink:href="#arrow_4_"  width="193.525" height="57.159" x="-96.751" y="-28.408" transform="matrix(0 1 1 0 638.5176 363.6768)" display="none" overflow="visible"/>
<rect x="236.884" y="108.346" display="none" fill="#31ABFF" fill-opacity="0.29" stroke="#31ABFF" stroke-width="0.6866" stroke-miterlimit="10" stroke-opacity="0.64" width="53.676" height="56.474"/>
<g display="none">
	<g display="inline">
		<path display="none" fill="#31ABFF" d="M265.671,129.814v6.194h5.938v2.671h-5.938v6.25h-2.784v-6.25h-5.938v-2.671h5.938v-6.194
			H265.671z"/>
	</g>
</g>
<polyline fill="#31ABFF" fill-opacity="0.29" stroke="#31ABFF" stroke-width="0.2319" stroke-miterlimit="10" stroke-opacity="0.64" points="
	289.662,579.973 289.662,585.313 257.789,585.313 257.789,571.426 289.662,571.426 289.662,579.973 "/>
<polyline fill="#31ABFF" fill-opacity="0.29" stroke="#31ABFF" stroke-width="0.2319" stroke-miterlimit="10" stroke-opacity="0.64" points="
	289.662,562.91 289.662,568.251 257.789,568.251 257.789,554.363 289.662,554.363 289.662,562.91 "/>
<polyline fill="#31ABFF" fill-opacity="0.29" stroke="#31ABFF" stroke-width="0.2319" stroke-miterlimit="10" stroke-opacity="0.64" points="
	289.662,545.848 289.662,551.188 257.789,551.188 257.789,537.301 289.662,537.301 289.662,545.848 "/>
<polyline fill="#31ABFF" fill-opacity="0.29" stroke="#31ABFF" stroke-width="0.2319" stroke-miterlimit="10" stroke-opacity="0.64" points="
	289.662,528.785 289.662,534.126 257.789,534.126 257.789,520.238 289.662,520.238 289.662,528.785 "/>
<polyline fill="#31ABFF" fill-opacity="0.29" stroke="#31ABFF" stroke-width="0.2319" stroke-miterlimit="10" stroke-opacity="0.64" points="
	289.662,511.722 289.662,517.064 257.789,517.064 257.789,503.176 289.662,503.176 289.662,511.722 "/>
<polyline fill="#31ABFF" fill-opacity="0.29" stroke="#31ABFF" stroke-width="0.2319" stroke-miterlimit="10" stroke-opacity="0.64" points="
	289.662,494.66 289.662,500.003 257.789,500.003 257.789,486.114 289.662,486.114 289.662,494.66 "/>
<polyline fill="#31ABFF" fill-opacity="0.29" stroke="#31ABFF" stroke-width="0.2319" stroke-miterlimit="10" stroke-opacity="0.64" points="
	289.662,477.598 289.662,482.939 257.789,482.939 257.789,469.051 289.662,469.051 289.662,477.598 "/>
<polyline fill="#31ABFF" fill-opacity="0.29" stroke="#31ABFF" stroke-width="0.2319" stroke-miterlimit="10" stroke-opacity="0.64" points="
	289.662,460.536 289.662,465.878 257.789,465.878 257.789,451.989 289.662,451.989 289.662,460.536 "/>
<polyline fill="#31ABFF" fill-opacity="0.29" stroke="#31ABFF" stroke-width="0.2319" stroke-miterlimit="10" stroke-opacity="0.64" points="
	289.662,443.474 289.662,448.814 257.789,448.814 257.789,434.927 289.662,434.927 289.662,443.474 "/>
<polyline fill="#31ABFF" fill-opacity="0.29" stroke="#31ABFF" stroke-width="0.2319" stroke-miterlimit="10" stroke-opacity="0.64" points="
	289.662,426.411 289.662,431.752 257.789,431.752 257.789,417.864 289.662,417.864 289.662,426.411 "/>
<polyline fill="#31ABFF" fill-opacity="0.29" stroke="#31ABFF" stroke-width="0.2319" stroke-miterlimit="10" stroke-opacity="0.64" points="
	289.662,409.349 289.662,414.69 257.789,414.69 257.789,400.802 289.662,400.802 289.662,409.349 "/>
<polyline fill="#31ABFF" fill-opacity="0.29" stroke="#31ABFF" stroke-width="0.2319" stroke-miterlimit="10" stroke-opacity="0.64" points="
	289.662,392.287 289.662,397.629 257.789,397.629 257.789,383.741 289.662,383.741 289.662,392.287 "/>
<polyline fill="#31ABFF" fill-opacity="0.29" stroke="#31ABFF" stroke-width="0.2319" stroke-miterlimit="10" stroke-opacity="0.64" points="
	289.662,375.223 289.662,380.566 257.789,380.566 257.789,366.677 289.662,366.677 289.662,375.223 "/>
<polyline fill="#31ABFF" fill-opacity="0.29" stroke="#31ABFF" stroke-width="0.2319" stroke-miterlimit="10" stroke-opacity="0.64" points="
	289.662,358.161 289.662,363.503 257.789,363.503 257.789,349.615 289.662,349.615 289.662,358.161 "/>
<polyline fill="#31ABFF" fill-opacity="0.29" stroke="#31ABFF" stroke-width="0.2319" stroke-miterlimit="10" stroke-opacity="0.64" points="
	289.662,341.101 289.662,346.441 257.789,346.441 257.789,332.554 289.662,332.554 289.662,341.101 "/>
<polyline fill="#31ABFF" fill-opacity="0.29" stroke="#31ABFF" stroke-width="0.2319" stroke-miterlimit="10" stroke-opacity="0.64" points="
	289.662,324.037 289.662,329.379 257.789,329.379 257.789,315.49 289.662,315.49 289.662,324.037 "/>
<polyline fill="#31ABFF" fill-opacity="0.29" stroke="#31ABFF" stroke-width="0.2319" stroke-miterlimit="10" stroke-opacity="0.64" points="
	289.662,306.977 289.662,312.316 257.789,312.316 257.789,298.429 289.662,298.429 289.662,306.977 "/>
<polyline fill="#31ABFF" fill-opacity="0.29" stroke="#31ABFF" stroke-width="0.2319" stroke-miterlimit="10" stroke-opacity="0.64" points="
	289.662,289.912 289.662,295.254 257.789,295.254 257.789,281.366 289.662,281.366 289.662,289.912 "/>
<polyline fill="#31ABFF" fill-opacity="0.29" stroke="#31ABFF" stroke-width="0.2319" stroke-miterlimit="10" stroke-opacity="0.64" points="
	289.662,272.851 289.662,278.193 257.789,278.193 257.789,264.303 289.662,264.303 289.662,272.851 "/>
<polyline fill="#31ABFF" fill-opacity="0.29" stroke="#31ABFF" stroke-width="0.2319" stroke-miterlimit="10" stroke-opacity="0.64" points="
	289.662,255.787 289.662,261.131 257.789,261.131 257.789,247.242 289.662,247.242 289.662,255.787 "/>
<polyline fill="#31ABFF" fill-opacity="0.29" stroke="#31ABFF" stroke-width="0.2319" stroke-miterlimit="10" stroke-opacity="0.64" points="
	289.662,238.728 289.662,244.067 257.789,244.067 257.789,230.18 289.662,230.18 289.662,238.728 "/>
<polyline fill="#31ABFF" fill-opacity="0.29" stroke="#31ABFF" stroke-width="0.2319" stroke-miterlimit="10" stroke-opacity="0.64" points="
	289.662,221.665 289.662,227.005 257.789,227.005 257.789,213.117 289.662,213.117 289.662,221.665 "/>
<polyline fill="#31ABFF" fill-opacity="0.29" stroke="#31ABFF" stroke-width="0.2319" stroke-miterlimit="10" stroke-opacity="0.64" points="
	289.662,204.603 289.662,209.942 257.789,209.942 257.789,196.053 289.662,196.053 289.662,204.603 "/>
<polyline fill="#31ABFF" fill-opacity="0.29" stroke="#31ABFF" stroke-width="0.2319" stroke-miterlimit="10" stroke-opacity="0.64" points="
	289.662,187.539 289.662,192.88 257.789,192.88 257.789,178.992 289.662,178.992 289.662,187.539 "/>
<line fill="#31ABFF" stroke="#31ABFF" stroke-miterlimit="10" x1="246.5" y1="178.992" x2="246.5" y2="584.992"/>
<polyline fill="#31ABFF" fill-opacity="0.29" stroke="#31ABFF" stroke-width="0.2319" stroke-miterlimit="10" stroke-opacity="0.64" points="
	178.662,579.973 178.662,585.313 146.789,585.313 146.789,571.426 178.662,571.426 178.662,579.973 "/>
<polyline fill="#31ABFF" fill-opacity="0.29" stroke="#31ABFF" stroke-width="0.2319" stroke-miterlimit="10" stroke-opacity="0.64" points="
	178.662,562.91 178.662,568.251 146.789,568.251 146.789,554.363 178.662,554.363 178.662,562.91 "/>
<polyline fill="#31ABFF" fill-opacity="0.29" stroke="#31ABFF" stroke-width="0.2319" stroke-miterlimit="10" stroke-opacity="0.64" points="
	178.662,545.848 178.662,551.188 146.789,551.188 146.789,537.301 178.662,537.301 178.662,545.848 "/>
<polyline fill="#31ABFF" fill-opacity="0.29" stroke="#31ABFF" stroke-width="0.2319" stroke-miterlimit="10" stroke-opacity="0.64" points="
	178.662,528.785 178.662,534.126 146.789,534.126 146.789,520.238 178.662,520.238 178.662,528.785 "/>
<polyline fill="#31ABFF" fill-opacity="0.29" stroke="#31ABFF" stroke-width="0.2319" stroke-miterlimit="10" stroke-opacity="0.64" points="
	178.662,511.722 178.662,517.064 146.789,517.064 146.789,503.176 178.662,503.176 178.662,511.722 "/>
<polyline fill="#31ABFF" fill-opacity="0.29" stroke="#31ABFF" stroke-width="0.2319" stroke-miterlimit="10" stroke-opacity="0.64" points="
	178.662,494.66 178.662,500.003 146.789,500.003 146.789,486.114 178.662,486.114 178.662,494.66 "/>
<polyline fill="#31ABFF" fill-opacity="0.29" stroke="#31ABFF" stroke-width="0.2319" stroke-miterlimit="10" stroke-opacity="0.64" points="
	178.662,477.598 178.662,482.939 146.789,482.939 146.789,469.051 178.662,469.051 178.662,477.598 "/>
<polyline fill="#31ABFF" fill-opacity="0.29" stroke="#31ABFF" stroke-width="0.2319" stroke-miterlimit="10" stroke-opacity="0.64" points="
	178.662,460.536 178.662,465.878 146.789,465.878 146.789,451.989 178.662,451.989 178.662,460.536 "/>
<polyline fill="#31ABFF" fill-opacity="0.29" stroke="#31ABFF" stroke-width="0.2319" stroke-miterlimit="10" stroke-opacity="0.64" points="
	178.662,443.474 178.662,448.814 146.789,448.814 146.789,434.927 178.662,434.927 178.662,443.474 "/>
<polyline fill="#31ABFF" fill-opacity="0.29" stroke="#31ABFF" stroke-width="0.2319" stroke-miterlimit="10" stroke-opacity="0.64" points="
	178.662,426.411 178.662,431.752 146.789,431.752 146.789,417.864 178.662,417.864 178.662,426.411 "/>
<polyline fill="#31ABFF" fill-opacity="0.29" stroke="#31ABFF" stroke-width="0.2319" stroke-miterlimit="10" stroke-opacity="0.64" points="
	178.662,409.349 178.662,414.69 146.789,414.69 146.789,400.802 178.662,400.802 178.662,409.349 "/>
<polyline fill="#31ABFF" fill-opacity="0.29" stroke="#31ABFF" stroke-width="0.2319" stroke-miterlimit="10" stroke-opacity="0.64" points="
	178.662,392.287 178.662,397.629 146.789,397.629 146.789,383.741 178.662,383.741 178.662,392.287 "/>
<polyline fill="#31ABFF" fill-opacity="0.29" stroke="#31ABFF" stroke-width="0.2319" stroke-miterlimit="10" stroke-opacity="0.64" points="
	178.662,375.223 178.662,380.566 146.789,380.566 146.789,366.677 178.662,366.677 178.662,375.223 "/>
<polyline fill="#31ABFF" fill-opacity="0.29" stroke="#31ABFF" stroke-width="0.2319" stroke-miterlimit="10" stroke-opacity="0.64" points="
	178.662,358.161 178.662,363.503 146.789,363.503 146.789,349.615 178.662,349.615 178.662,358.161 "/>
<polyline fill="#31ABFF" fill-opacity="0.29" stroke="#31ABFF" stroke-width="0.2319" stroke-miterlimit="10" stroke-opacity="0.64" points="
	178.662,341.101 178.662,346.441 146.789,346.441 146.789,332.554 178.662,332.554 178.662,341.101 "/>
<polyline fill="#31ABFF" fill-opacity="0.29" stroke="#31ABFF" stroke-width="0.2319" stroke-miterlimit="10" stroke-opacity="0.64" points="
	178.662,324.037 178.662,329.379 146.789,329.379 146.789,315.49 178.662,315.49 178.662,324.037 "/>
<polyline fill="#31ABFF" fill-opacity="0.29" stroke="#31ABFF" stroke-width="0.2319" stroke-miterlimit="10" stroke-opacity="0.64" points="
	178.662,306.977 178.662,312.316 146.789,312.316 146.789,298.429 178.662,298.429 178.662,306.977 "/>
<polyline fill="#31ABFF" fill-opacity="0.29" stroke="#31ABFF" stroke-width="0.2319" stroke-miterlimit="10" stroke-opacity="0.64" points="
	178.662,289.912 178.662,295.254 146.789,295.254 146.789,281.366 178.662,281.366 178.662,289.912 "/>
<polyline fill="#31ABFF" fill-opacity="0.29" stroke="#31ABFF" stroke-width="0.2319" stroke-miterlimit="10" stroke-opacity="0.64" points="
	178.662,272.851 178.662,278.193 146.789,278.193 146.789,264.303 178.662,264.303 178.662,272.851 "/>
<polyline fill="#31ABFF" fill-opacity="0.29" stroke="#31ABFF" stroke-width="0.2319" stroke-miterlimit="10" stroke-opacity="0.64" points="
	178.662,255.787 178.662,261.131 146.789,261.131 146.789,247.242 178.662,247.242 178.662,255.787 "/>
<polyline fill="#31ABFF" fill-opacity="0.29" stroke="#31ABFF" stroke-width="0.2319" stroke-miterlimit="10" stroke-opacity="0.64" points="
	178.662,238.728 178.662,244.067 146.789,244.067 146.789,230.18 178.662,230.18 178.662,238.728 "/>
<polyline fill="#31ABFF" fill-opacity="0.29" stroke="#31ABFF" stroke-width="0.2319" stroke-miterlimit="10" stroke-opacity="0.64" points="
	178.662,221.665 178.662,227.005 146.789,227.005 146.789,213.117 178.662,213.117 178.662,221.665 "/>
<polyline fill="#31ABFF" fill-opacity="0.29" stroke="#31ABFF" stroke-width="0.2319" stroke-miterlimit="10" stroke-opacity="0.64" points="
	178.662,204.603 178.662,209.942 146.789,209.942 146.789,196.053 178.662,196.053 178.662,204.603 "/>
<polyline fill="#31ABFF" fill-opacity="0.29" stroke="#31ABFF" stroke-width="0.2319" stroke-miterlimit="10" stroke-opacity="0.64" points="
	178.662,187.539 178.662,192.88 146.789,192.88 146.789,178.992 178.662,178.992 178.662,187.539 "/>
<line fill="#31ABFF" stroke="#31ABFF" stroke-miterlimit="10" x1="135.5" y1="178.992" x2="135.5" y2="584.992"/>
<polyline fill="#31ABFF" fill-opacity="0.29" stroke="#31ABFF" stroke-width="0.2319" stroke-miterlimit="10" stroke-opacity="0.64" points="
	64.662,579.973 64.662,585.313 32.789,585.313 32.789,571.426 64.662,571.426 64.662,579.973 "/>
<polyline fill="#31ABFF" fill-opacity="0.29" stroke="#31ABFF" stroke-width="0.2319" stroke-miterlimit="10" stroke-opacity="0.64" points="
	64.662,562.91 64.662,568.251 32.789,568.251 32.789,554.363 64.662,554.363 64.662,562.91 "/>
<polyline fill="#31ABFF" fill-opacity="0.29" stroke="#31ABFF" stroke-width="0.2319" stroke-miterlimit="10" stroke-opacity="0.64" points="
	64.662,545.848 64.662,551.188 32.789,551.188 32.789,537.301 64.662,537.301 64.662,545.848 "/>
<polyline fill="#31ABFF" fill-opacity="0.29" stroke="#31ABFF" stroke-width="0.2319" stroke-miterlimit="10" stroke-opacity="0.64" points="
	64.662,528.785 64.662,534.126 32.789,534.126 32.789,520.238 64.662,520.238 64.662,528.785 "/>
<polyline fill="#31ABFF" fill-opacity="0.29" stroke="#31ABFF" stroke-width="0.2319" stroke-miterlimit="10" stroke-opacity="0.64" points="
	64.662,511.722 64.662,517.064 32.789,517.064 32.789,503.176 64.662,503.176 64.662,511.722 "/>
<polyline fill="#31ABFF" fill-opacity="0.29" stroke="#31ABFF" stroke-width="0.2319" stroke-miterlimit="10" stroke-opacity="0.64" points="
	64.662,494.66 64.662,500.003 32.789,500.003 32.789,486.114 64.662,486.114 64.662,494.66 "/>
<polyline fill="#31ABFF" fill-opacity="0.29" stroke="#31ABFF" stroke-width="0.2319" stroke-miterlimit="10" stroke-opacity="0.64" points="
	64.662,477.598 64.662,482.939 32.789,482.939 32.789,469.051 64.662,469.051 64.662,477.598 "/>
<polyline fill="#31ABFF" fill-opacity="0.29" stroke="#31ABFF" stroke-width="0.2319" stroke-miterlimit="10" stroke-opacity="0.64" points="
	64.662,460.536 64.662,465.878 32.789,465.878 32.789,451.989 64.662,451.989 64.662,460.536 "/>
<polyline fill="#31ABFF" fill-opacity="0.29" stroke="#31ABFF" stroke-width="0.2319" stroke-miterlimit="10" stroke-opacity="0.64" points="
	64.662,443.474 64.662,448.814 32.789,448.814 32.789,434.927 64.662,434.927 64.662,443.474 "/>
<polyline fill="#31ABFF" fill-opacity="0.29" stroke="#31ABFF" stroke-width="0.2319" stroke-miterlimit="10" stroke-opacity="0.64" points="
	64.662,426.411 64.662,431.752 32.789,431.752 32.789,417.864 64.662,417.864 64.662,426.411 "/>
<polyline fill="#31ABFF" fill-opacity="0.29" stroke="#31ABFF" stroke-width="0.2319" stroke-miterlimit="10" stroke-opacity="0.64" points="
	64.662,409.349 64.662,414.69 32.789,414.69 32.789,400.802 64.662,400.802 64.662,409.349 "/>
<polyline fill="#31ABFF" fill-opacity="0.29" stroke="#31ABFF" stroke-width="0.2319" stroke-miterlimit="10" stroke-opacity="0.64" points="
	64.662,392.287 64.662,397.629 32.789,397.629 32.789,383.741 64.662,383.741 64.662,392.287 "/>
<polyline fill="#31ABFF" fill-opacity="0.29" stroke="#31ABFF" stroke-width="0.2319" stroke-miterlimit="10" stroke-opacity="0.64" points="
	64.662,375.223 64.662,380.566 32.789,380.566 32.789,366.677 64.662,366.677 64.662,375.223 "/>
<polyline fill="#31ABFF" fill-opacity="0.29" stroke="#31ABFF" stroke-width="0.2319" stroke-miterlimit="10" stroke-opacity="0.64" points="
	64.662,358.161 64.662,363.503 32.789,363.503 32.789,349.615 64.662,349.615 64.662,358.161 "/>
<polyline fill="#31ABFF" fill-opacity="0.29" stroke="#31ABFF" stroke-width="0.2319" stroke-miterlimit="10" stroke-opacity="0.64" points="
	64.662,341.101 64.662,346.441 32.789,346.441 32.789,332.554 64.662,332.554 64.662,341.101 "/>
<polyline fill="#31ABFF" fill-opacity="0.29" stroke="#31ABFF" stroke-width="0.2319" stroke-miterlimit="10" stroke-opacity="0.64" points="
	64.662,324.037 64.662,329.379 32.789,329.379 32.789,315.49 64.662,315.49 64.662,324.037 "/>
<polyline fill="#31ABFF" fill-opacity="0.29" stroke="#31ABFF" stroke-width="0.2319" stroke-miterlimit="10" stroke-opacity="0.64" points="
	64.662,306.977 64.662,312.316 32.789,312.316 32.789,298.429 64.662,298.429 64.662,306.977 "/>
<polyline fill="#31ABFF" fill-opacity="0.29" stroke="#31ABFF" stroke-width="0.2319" stroke-miterlimit="10" stroke-opacity="0.64" points="
	64.662,289.912 64.662,295.254 32.789,295.254 32.789,281.366 64.662,281.366 64.662,289.912 "/>
<polyline fill="#31ABFF" fill-opacity="0.29" stroke="#31ABFF" stroke-width="0.2319" stroke-miterlimit="10" stroke-opacity="0.64" points="
	64.662,272.851 64.662,278.193 32.789,278.193 32.789,264.303 64.662,264.303 64.662,272.851 "/>
<polyline fill="#31ABFF" fill-opacity="0.29" stroke="#31ABFF" stroke-width="0.2319" stroke-miterlimit="10" stroke-opacity="0.64" points="
	64.662,255.787 64.662,261.131 32.789,261.131 32.789,247.242 64.662,247.242 64.662,255.787 "/>
<polyline fill="#31ABFF" fill-opacity="0.29" stroke="#31ABFF" stroke-width="0.2319" stroke-miterlimit="10" stroke-opacity="0.64" points="
	64.662,238.728 64.662,244.067 32.789,244.067 32.789,230.18 64.662,230.18 64.662,238.728 "/>
<polyline fill="#31ABFF" fill-opacity="0.29" stroke="#31ABFF" stroke-width="0.2319" stroke-miterlimit="10" stroke-opacity="0.64" points="
	64.662,221.665 64.662,227.005 32.789,227.005 32.789,213.117 64.662,213.117 64.662,221.665 "/>
<polyline fill="#31ABFF" fill-opacity="0.29" stroke="#31ABFF" stroke-width="0.2319" stroke-miterlimit="10" stroke-opacity="0.64" points="
	64.662,204.603 64.662,209.942 32.789,209.942 32.789,196.053 64.662,196.053 64.662,204.603 "/>
<polyline fill="#31ABFF" fill-opacity="0.29" stroke="#31ABFF" stroke-width="0.2319" stroke-miterlimit="10" stroke-opacity="0.64" points="
	64.662,187.539 64.662,192.88 32.789,192.88 32.789,178.992 64.662,178.992 64.662,187.539 "/>
<line fill="#31ABFF" stroke="#31ABFF" stroke-miterlimit="10" x1="21.5" y1="178.992" x2="21.5" y2="584.992"/>
<rect y="0.992" fill="#31ABFF" width="223" height="15"/>
<g>
	<g>
		<path fill="#31ABFF" d="M238.749,3.245h-4.226V0.257h12.093v2.988h-4.295v12.747h-3.572V3.245z"/>
		<path fill="#31ABFF" d="M262.232,7.961c0,5.16-3.128,8.288-7.728,8.288c-4.669,0-7.401-3.525-7.401-8.008
			c0-4.716,3.012-8.241,7.658-8.241C259.594,0,262.232,3.619,262.232,7.961z M250.863,8.171c0,3.082,1.448,5.253,3.829,5.253
			c2.405,0,3.782-2.288,3.782-5.346c0-2.825-1.354-5.253-3.805-5.253C252.264,2.825,250.863,5.113,250.863,8.171z"/>
		<path fill="#31ABFF" d="M264.564,15.992V0.257h4.155l3.269,5.767c0.934,1.658,1.868,3.619,2.568,5.393h0.07
			c-0.233-2.078-0.304-4.203-0.304-6.561V0.257h3.269v15.735h-3.735l-3.362-6.07c-0.934-1.681-1.961-3.712-2.731-5.557l-0.07,0.023
			c0.094,2.078,0.14,4.296,0.14,6.864v4.739H264.564z"/>
		<path fill="#31ABFF" d="M290.032,9.338h-5.79v3.735h6.467v2.918H280.67V0.257h9.712v2.918h-6.14v3.269h5.79V9.338z"/>
	</g>
</g>
<rect x="338" y="0.992" fill="#31ABFF" width="145" height="15"/>
<g>
	<g>
		<path fill="#31ABFF" d="M497.74,0.467c0.934-0.187,2.824-0.327,4.6-0.327c2.17,0,3.502,0.21,4.645,0.887
			c1.098,0.584,1.892,1.658,1.892,3.082c0,1.401-0.817,2.708-2.591,3.362v0.047c1.797,0.49,3.128,1.844,3.128,3.875
			c0,1.424-0.653,2.544-1.634,3.338c-1.145,0.911-3.059,1.424-6.188,1.424c-1.75,0-3.059-0.117-3.852-0.233V0.467z M501.266,6.49
			h1.167c1.868,0,2.872-0.771,2.872-1.938c0-1.191-0.911-1.821-2.521-1.821c-0.771,0-1.215,0.047-1.518,0.094V6.49z M501.266,13.471
			c0.35,0.047,0.77,0.047,1.377,0.047c1.611,0,3.035-0.607,3.035-2.265c0-1.587-1.424-2.218-3.198-2.218h-1.214V13.471z"/>
		<path fill="#31ABFF" d="M515.41,11.953l-1.121,4.039h-3.688l4.809-15.735h4.67l4.879,15.735h-3.829l-1.214-4.039H515.41z
			 M519.402,9.292l-0.98-3.338c-0.28-0.934-0.561-2.101-0.794-3.035h-0.046c-0.234,0.934-0.468,2.125-0.725,3.035l-0.934,3.338
			H519.402z"/>
		<path fill="#31ABFF" d="M527.058,0.257h3.571v12.747h6.258v2.988h-9.829V0.257z"/>
		<path fill="#31ABFF" d="M542.79,11.953l-1.12,4.039h-3.689l4.81-15.735h4.669l4.88,15.735h-3.829l-1.214-4.039H542.79z
			 M546.782,9.292l-0.98-3.338c-0.28-0.934-0.561-2.101-0.794-3.035h-0.047c-0.232,0.934-0.467,2.125-0.723,3.035l-0.935,3.338
			H546.782z"/>
		<path fill="#31ABFF" d="M554.438,15.992V0.257h4.154l3.27,5.767c0.934,1.658,1.867,3.619,2.567,5.393h0.07
			c-0.233-2.078-0.304-4.203-0.304-6.561V0.257h3.269v15.735h-3.735l-3.361-6.07c-0.935-1.681-1.961-3.712-2.732-5.557l-0.069,0.023
			c0.093,2.078,0.14,4.296,0.14,6.864v4.739H554.438z"/>
		<path fill="#31ABFF" d="M582.099,15.549c-0.653,0.327-2.124,0.677-4.038,0.677c-5.439,0-8.242-3.385-8.242-7.868
			c0-5.37,3.829-8.358,8.592-8.358c1.845,0,3.245,0.374,3.876,0.701l-0.724,2.825c-0.725-0.303-1.729-0.583-2.988-0.583
			c-2.825,0-5.02,1.704-5.02,5.206c0,3.152,1.867,5.136,5.042,5.136c1.074,0,2.265-0.233,2.966-0.514L582.099,15.549z"/>
		<path fill="#31ABFF" d="M593.792,9.338h-5.79v3.735h6.467v2.918h-10.038V0.257h9.712v2.918h-6.141v3.269h5.79V9.338z"/>
		<path fill="#31ABFF" d="M600.443,16.926L605.438,0h2.358l-4.996,16.926H600.443z"/>
		<path fill="#31ABFF" d="M614.052,0.257h9.618v2.918h-6.047v3.595h5.65v2.895h-5.65v6.327h-3.571V0.257z"/>
		<path fill="#31ABFF" d="M628.454,11.953l-1.12,4.039h-3.689l4.81-15.735h4.669l4.88,15.735h-3.829l-1.214-4.039H628.454z
			 M632.446,9.292l-0.98-3.338c-0.28-0.934-0.561-2.101-0.794-3.035h-0.047c-0.233,0.934-0.467,2.125-0.724,3.035l-0.934,3.338
			H632.446z"/>
		<path fill="#31ABFF" d="M640.102,0.467c1.308-0.21,3.012-0.327,4.809-0.327c2.988,0,4.927,0.537,6.444,1.681
			c1.634,1.214,2.661,3.151,2.661,5.93c0,3.012-1.098,5.089-2.615,6.374c-1.657,1.377-4.179,2.031-7.26,2.031
			c-1.845,0-3.152-0.117-4.039-0.233V0.467z M643.673,13.308c0.304,0.07,0.794,0.07,1.237,0.07c3.223,0.023,5.323-1.751,5.323-5.51
			c0.023-3.268-1.891-4.996-4.949-4.996c-0.794,0-1.308,0.07-1.611,0.14V13.308z"/>
		<path fill="#31ABFF" d="M665.709,9.338h-5.79v3.735h6.468v2.918h-10.039V0.257h9.712v2.918h-6.141v3.269h5.79V9.338z"/>
	</g>
</g>
<g>
	<g>
		<path fill="#FFFFFF" d="M12.074,37.798c0.835-0.167,2.527-0.292,4.115-0.292c1.942,0,3.133,0.188,4.156,0.793
			c0.982,0.522,1.692,1.483,1.692,2.757c0,1.253-0.731,2.423-2.318,3.008v0.042c1.608,0.439,2.799,1.65,2.799,3.468
			c0,1.274-0.585,2.277-1.462,2.987c-1.023,0.814-2.736,1.274-5.536,1.274c-1.566,0-2.736-0.104-3.446-0.208V37.798z M15.229,43.188
			h1.044c1.672,0,2.569-0.689,2.569-1.734c0-1.065-0.814-1.629-2.256-1.629c-0.689,0-1.086,0.042-1.357,0.083V43.188z
			 M15.229,49.434c0.313,0.042,0.689,0.042,1.232,0.042c1.441,0,2.716-0.543,2.716-2.026c0-1.42-1.274-1.984-2.862-1.984h-1.086
			V49.434z"/>
		<path fill="#FFFFFF" d="M27.889,48.076l-1.003,3.614h-3.3l4.303-14.08h4.178l4.366,14.08h-3.426l-1.087-3.614H27.889z
			 M31.461,45.694l-0.877-2.987c-0.251-0.835-0.502-1.88-0.711-2.716h-0.042c-0.208,0.836-0.417,1.901-0.647,2.716l-0.835,2.987
			H31.461z"/>
		<path fill="#FFFFFF" d="M38.419,48.41c0.856,0.439,2.172,0.877,3.53,0.877c1.462,0,2.235-0.605,2.235-1.525
			c0-0.877-0.669-1.378-2.361-1.984c-2.339-0.815-3.864-2.11-3.864-4.157c0-2.402,2.006-4.24,5.327-4.24
			c1.587,0,2.757,0.334,3.593,0.71l-0.71,2.57c-0.564-0.272-1.567-0.669-2.945-0.669c-1.379,0-2.048,0.627-2.048,1.358
			c0,0.898,0.794,1.295,2.611,1.985c2.486,0.919,3.655,2.214,3.655,4.199c0,2.36-1.817,4.366-5.682,4.366
			c-1.608,0-3.196-0.418-3.989-0.856L38.419,48.41z"/>
		<path fill="#FFFFFF" d="M49.701,48.41c0.856,0.439,2.172,0.877,3.53,0.877c1.462,0,2.235-0.605,2.235-1.525
			c0-0.877-0.669-1.378-2.361-1.984c-2.339-0.815-3.864-2.11-3.864-4.157c0-2.402,2.006-4.24,5.327-4.24
			c1.587,0,2.757,0.334,3.593,0.71l-0.71,2.57c-0.564-0.272-1.567-0.669-2.945-0.669c-1.379,0-2.048,0.627-2.048,1.358
			c0,0.898,0.794,1.295,2.611,1.985c2.486,0.919,3.655,2.214,3.655,4.199c0,2.36-1.816,4.366-5.682,4.366
			c-1.608,0-3.196-0.418-3.989-0.856L49.701,48.41z"/>
	</g>
</g>
<g>
	<g>
		<path fill="#FFFFFF" d="M128.79,40.284h-3.781V37.61h10.82v2.674h-3.844v11.406h-3.195V40.284z"/>
		<path fill="#FFFFFF" d="M137.523,37.798c1.023-0.167,2.548-0.292,4.24-0.292c2.089,0,3.551,0.313,4.554,1.107
			c0.836,0.668,1.295,1.65,1.295,2.945c0,1.796-1.273,3.029-2.485,3.468v0.062c0.981,0.397,1.524,1.337,1.88,2.632
			c0.438,1.587,0.878,3.426,1.149,3.969h-3.259c-0.23-0.397-0.564-1.546-0.982-3.28c-0.376-1.754-0.981-2.235-2.276-2.256h-0.961
			v5.536h-3.154V37.798z M140.678,43.856h1.253c1.588,0,2.527-0.794,2.527-2.026c0-1.295-0.877-1.942-2.339-1.963
			c-0.773,0-1.212,0.062-1.441,0.104V43.856z"/>
		<path fill="#FFFFFF" d="M158.288,45.736h-5.18v3.342h5.786v2.611h-8.982V37.61h8.689v2.611h-5.493v2.924h5.18V45.736z"/>
		<path fill="#FFFFFF" d="M161.068,37.798c0.835-0.167,2.527-0.292,4.115-0.292c1.942,0,3.133,0.188,4.156,0.793
			c0.982,0.522,1.692,1.483,1.692,2.757c0,1.253-0.731,2.423-2.318,3.008v0.042c1.608,0.439,2.799,1.65,2.799,3.468
			c0,1.274-0.585,2.277-1.462,2.987c-1.023,0.814-2.736,1.274-5.536,1.274c-1.566,0-2.736-0.104-3.446-0.208V37.798z
			 M164.223,43.188h1.044c1.672,0,2.569-0.689,2.569-1.734c0-1.065-0.814-1.629-2.256-1.629c-0.689,0-1.086,0.042-1.357,0.083
			V43.188z M164.223,49.434c0.313,0.042,0.689,0.042,1.232,0.042c1.441,0,2.716-0.543,2.716-2.026c0-1.42-1.274-1.984-2.862-1.984
			h-1.086V49.434z"/>
		<path fill="#FFFFFF" d="M173.688,37.61h3.196v11.406h5.598v2.674h-8.794V37.61z"/>
		<path fill="#FFFFFF" d="M192.739,45.736h-5.18v3.342h5.786v2.611h-8.982V37.61h8.689v2.611h-5.493v2.924h5.18V45.736z"/>
	</g>
</g>
<g>
	<g>
		<path fill="#FFFFFF" d="M239.179,48.41c0.856,0.439,2.172,0.877,3.53,0.877c1.462,0,2.235-0.605,2.235-1.525
			c0-0.877-0.669-1.378-2.361-1.984c-2.339-0.815-3.864-2.11-3.864-4.157c0-2.402,2.006-4.24,5.327-4.24
			c1.587,0,2.757,0.334,3.593,0.71l-0.71,2.57c-0.564-0.272-1.567-0.669-2.945-0.669c-1.379,0-2.048,0.627-2.048,1.358
			c0,0.898,0.794,1.295,2.611,1.985c2.486,0.919,3.655,2.214,3.655,4.199c0,2.36-1.817,4.366-5.682,4.366
			c-1.608,0-3.196-0.418-3.989-0.856L239.179,48.41z"/>
		<path fill="#FFFFFF" d="M253.53,37.61v8.105c0,2.423,0.919,3.655,2.549,3.655c1.671,0,2.59-1.169,2.59-3.655V37.61h3.176v7.896
			c0,4.345-2.193,6.413-5.87,6.413c-3.552,0-5.641-1.964-5.641-6.455V37.61H253.53z"/>
		<path fill="#FFFFFF" d="M264.604,37.798c0.835-0.167,2.527-0.292,4.115-0.292c1.942,0,3.133,0.188,4.156,0.793
			c0.982,0.522,1.692,1.483,1.692,2.757c0,1.253-0.731,2.423-2.318,3.008v0.042c1.608,0.439,2.799,1.65,2.799,3.468
			c0,1.274-0.585,2.277-1.462,2.987c-1.023,0.814-2.736,1.274-5.536,1.274c-1.566,0-2.736-0.104-3.446-0.208V37.798z
			 M267.759,43.188h1.044c1.672,0,2.569-0.689,2.569-1.734c0-1.065-0.814-1.629-2.256-1.629c-0.689,0-1.086,0.042-1.357,0.083
			V43.188z M267.759,49.434c0.313,0.042,0.689,0.042,1.232,0.042c1.441,0,2.716-0.543,2.716-2.026c0-1.42-1.274-1.984-2.862-1.984
			h-1.086V49.434z"/>
	</g>
</g>
</svg>
